<svg width="20" height="20" viewBox="0 0 20 20" fill="none" xmlns="http://www.w3.org/2000/svg">
<g clip-path="url(#clip0_524_1612)">
<path d="M10.6715 9.85714C10.4596 9.94915 10.2311 9.99663 10.0001 9.99663C9.7691 9.99663 9.54057 9.94915 9.32868 9.85714L1.18582 6.08571C1.05359 6.01902 0.942476 5.91693 0.864838 5.79082C0.787201 5.66471 0.746094 5.51952 0.746094 5.37142C0.746094 5.22333 0.787201 5.07814 0.864838 4.95203C0.942476 4.82592 1.05359 4.72383 1.18582 4.65714L9.32868 0.857139C9.54057 0.76513 9.7691 0.717651 10.0001 0.717651C10.2311 0.717651 10.4596 0.76513 10.6715 0.857139L18.8144 4.62857C18.9466 4.69526 19.0577 4.79735 19.1354 4.92346C19.213 5.04957 19.2541 5.19476 19.2541 5.34285C19.2541 5.49095 19.213 5.63613 19.1354 5.76225C19.0577 5.88836 18.9466 5.99045 18.8144 6.05714L10.6715 9.85714Z" stroke="white" stroke-width="1.5" stroke-linecap="round" stroke-linejoin="round"/>
<path d="M19.2863 10.5L10.572 14.5143C10.3859 14.5992 10.1837 14.6431 9.97913 14.6431C9.77457 14.6431 9.57239 14.5992 9.38627 14.5143L0.714844 10.5" stroke="white" stroke-width="1.5" stroke-linecap="round" stroke-linejoin="round"/>
<path d="M19.2863 15.1428L10.572 19.1571C10.3859 19.242 10.1837 19.2859 9.97913 19.2859C9.77457 19.2859 9.57239 19.242 9.38627 19.1571L0.714844 15.1428" stroke="white" stroke-width="1.5" stroke-linecap="round" stroke-linejoin="round"/>
</g>
<defs>
<clipPath id="clip0_524_1612">
<rect width="20" height="20" fill="white"/>
</clipPath>
</defs>
</svg>
