<svg width="32" height="32" viewBox="0 0 32 32" fill="none" xmlns="http://www.w3.org/2000/svg">
<path d="M21.6442 1L21.1316 8.9462L28.528 5.94504L32 16.4643L24.2614 18.521L29.421 24.5161L20.3077 31L16.0132 24.3685L11.6879 30.9971L2.57463 24.5132L7.76354 18.521L0 16.4657L3.472 5.94793L10.9066 8.95054L10.394 1H21.6442ZM11.9963 2.48105L12.5603 11.2198L4.40169 7.92363L1.91959 15.4403L10.4542 17.6995L4.77768 24.2528L11.2811 28.8811L16.0191 21.6234L20.7189 28.8811L27.2238 24.2528L21.584 17.6995L30.0804 15.4403L27.5998 7.92363L19.4779 11.2198L20.0419 2.48105H11.9963Z" fill="#734BDF"/>
</svg>
