<svg width="30" height="30" viewBox="0 0 30 30" fill="none" xmlns="http://www.w3.org/2000/svg">
<path d="M15 21.4727V23.6369" stroke="white" stroke-width="1.5" stroke-linecap="round" stroke-linejoin="round"/>
<path d="M15 10.7363V12.7506" stroke="white" stroke-width="1.5" stroke-linecap="round" stroke-linejoin="round"/>
<path d="M15 28.9078C22.5 28.9078 27.8571 26.2507 27.8571 20.3364C27.8571 13.9078 24.6428 9.6221 18.2143 6.40781L20.7428 3.15067C20.8713 2.93696 20.941 2.6931 20.9448 2.44378C20.9486 2.19447 20.8865 1.94857 20.7646 1.73102C20.6428 1.51347 20.4656 1.33199 20.2511 1.20498C20.0365 1.07798 19.7922 1.00995 19.5428 1.00781H10.4571C10.2078 1.00995 9.96344 1.07798 9.74887 1.20498C9.5343 1.33199 9.35712 1.51347 9.23529 1.73102C9.11346 1.94857 9.05131 2.19447 9.05514 2.44378C9.05897 2.6931 9.12865 2.93696 9.25711 3.15067L11.7857 6.42924C5.35711 9.66496 2.14282 13.9507 2.14282 20.3792C2.14282 26.2507 7.49996 28.9078 15 28.9078Z" stroke="white" stroke-width="1.5" stroke-linecap="round" stroke-linejoin="round"/>
<path d="M12.8571 20.4871C13.1186 20.7975 13.4476 21.0439 13.8191 21.2073C14.1905 21.3707 14.5945 21.4469 15 21.43C15.6197 21.4722 16.2316 21.2726 16.7072 20.8729C17.1827 20.4733 17.4848 19.9049 17.55 19.2871C17.4848 18.6694 17.1827 18.101 16.7072 17.7013C16.2316 17.3017 15.6197 17.102 15 17.1443C14.3802 17.1865 13.7683 16.9869 13.2927 16.5872C12.8172 16.1876 12.5151 15.6192 12.45 15.0014C12.5098 14.3815 12.8105 13.8098 13.2873 13.4092C13.7641 13.0085 14.379 12.8108 15 12.8586C15.3983 12.8342 15.7971 12.8984 16.1676 13.0466C16.5381 13.1949 16.8712 13.4234 17.1428 13.7157" stroke="white" stroke-width="1.5" stroke-linecap="round" stroke-linejoin="round"/>
</svg>
