<svg width="25" height="25" viewBox="0 0 25 25" fill="none" xmlns="http://www.w3.org/2000/svg">
<g clip-path="url(#clip0_325_3303)">
<path d="M15.1783 16.9654C15.6519 16.9654 16.1061 16.7773 16.441 16.4424C16.7759 16.1075 16.9641 15.6533 16.9641 15.1797" stroke="white" stroke-width="1.5" stroke-linecap="round" stroke-linejoin="round"/>
<path d="M8.03516 16.9648H10.7137" stroke="white" stroke-width="1.5" stroke-linecap="round" stroke-linejoin="round"/>
<path d="M16.964 8.03906V10.7176" stroke="white" stroke-width="1.5" stroke-linecap="round" stroke-linejoin="round"/>
<path d="M9.82087 8.03906C9.34727 8.03906 8.89307 8.2272 8.55818 8.56209C8.22329 8.89697 8.03516 9.35118 8.03516 9.82478" stroke="white" stroke-width="1.5" stroke-linecap="round" stroke-linejoin="round"/>
<path d="M0.892578 2.68025C0.892578 2.20664 1.08072 1.75244 1.4156 1.41755C1.75049 1.08267 2.20469 0.894531 2.67829 0.894531H15.1783C15.6519 0.894531 16.1061 1.08267 16.441 1.41755C16.7759 1.75244 16.964 2.20664 16.964 2.68025V8.03739H22.3211C22.7948 8.03739 23.249 8.22553 23.5838 8.56041C23.9187 8.8953 24.1069 9.3495 24.1069 9.8231V22.3231C24.1069 22.7967 23.9187 23.2509 23.5838 23.5858C23.249 23.9207 22.7948 24.1088 22.3211 24.1088H9.82115C9.34755 24.1088 8.89335 23.9207 8.55846 23.5858C8.22357 23.2509 8.03544 22.7967 8.03544 22.3231V16.966H2.67829C2.20469 16.966 1.75049 16.7778 1.4156 16.4429C1.08072 16.108 0.892578 15.6538 0.892578 15.1802V2.68025Z" stroke="white" stroke-width="1.5" stroke-linecap="round" stroke-linejoin="round"/>
<path d="M14.2852 8.03906H16.9637" stroke="white" stroke-width="1.5" stroke-linecap="round" stroke-linejoin="round"/>
<path d="M8.03516 14.2891V16.9676" stroke="white" stroke-width="1.5" stroke-linecap="round" stroke-linejoin="round"/>
</g>
<defs>
<clipPath id="clip0_325_3303">
<rect width="25" height="25" fill="white"/>
</clipPath>
</defs>
</svg>
