<svg width="24" height="24" viewBox="0 0 24 24" fill="none" xmlns="http://www.w3.org/2000/svg">
<path d="M8.96569 3.85547L9.70283 1.95261C9.82715 1.63044 10.0459 1.35332 10.3303 1.15755C10.6148 0.961778 10.9518 0.856489 11.2971 0.855469H12.7028C13.0482 0.856489 13.3851 0.961778 13.6696 1.15755C13.9541 1.35332 14.1728 1.63044 14.2971 1.95261L15.0343 3.85547L17.5371 5.29547L19.56 4.9869C19.8968 4.94118 20.2396 4.99663 20.5449 5.14619C20.8501 5.29576 21.104 5.5327 21.2743 5.8269L21.96 7.0269C22.1357 7.32578 22.2166 7.67092 22.1922 8.01676C22.1677 8.3626 22.0389 8.69289 21.8228 8.96404L20.5714 10.5583V13.4383L21.8571 15.0326C22.0732 15.3038 22.202 15.634 22.2264 15.9799C22.2509 16.3257 22.17 16.6709 21.9943 16.9698L21.3085 18.1698C21.1383 18.464 20.8844 18.7009 20.5791 18.8505C20.2739 19 19.9311 19.0555 19.5943 19.0098L17.5714 18.7012L15.0685 20.1412L14.3314 22.044C14.2071 22.3662 13.9884 22.6433 13.7039 22.8391C13.4194 23.0349 13.0824 23.1402 12.7371 23.1412H11.2971C10.9518 23.1402 10.6148 23.0349 10.3303 22.8391C10.0459 22.6433 9.82715 22.3662 9.70283 22.044L8.96569 20.1412L6.46283 18.7012L4.43998 19.0098C4.10315 19.0555 3.76033 19 3.45509 18.8505C3.14985 18.7009 2.89596 18.464 2.72569 18.1698L2.03998 16.9698C1.86426 16.6709 1.78331 16.3257 1.80779 15.9799C1.83228 15.634 1.96105 15.3038 2.17712 15.0326L3.42855 13.4383V10.5583L2.14283 8.96404C1.92677 8.69289 1.79799 8.3626 1.77351 8.01676C1.74902 7.67092 1.82998 7.32578 2.00569 7.0269L2.6914 5.8269C2.86167 5.5327 3.11556 5.29576 3.4208 5.14619C3.72604 4.99663 4.06886 4.94118 4.40569 4.9869L6.42855 5.29547L8.96569 3.85547ZM8.5714 11.9983C8.5714 12.6764 8.77249 13.3393 9.14922 13.9031C9.52596 14.467 10.0614 14.9064 10.6879 15.1659C11.3144 15.4254 12.0038 15.4933 12.6689 15.361C13.3339 15.2287 13.9448 14.9022 14.4243 14.4227C14.9038 13.9432 15.2304 13.3323 15.3627 12.6672C15.495 12.0021 15.4271 11.3128 15.1676 10.6863C14.9081 10.0598 14.4686 9.52431 13.9048 9.14757C13.341 8.77084 12.6781 8.56975 12 8.56975C11.0907 8.56975 10.2186 8.93098 9.57561 9.57396C8.93263 10.2169 8.5714 11.089 8.5714 11.9983V11.9983Z" stroke="white" stroke-width="1.5" stroke-linecap="round" stroke-linejoin="round"/>
</svg>
