<svg width="25" height="25" viewBox="0 0 25 25" fill="none" xmlns="http://www.w3.org/2000/svg">
<g clip-path="url(#clip0_317_6679)">
<path d="M5.35711 24.1072C7.82267 24.1072 9.82139 22.1084 9.82139 19.6429C9.82139 17.1773 7.82267 15.1786 5.35711 15.1786C2.89155 15.1786 0.892822 17.1773 0.892822 19.6429C0.892822 22.1084 2.89155 24.1072 5.35711 24.1072Z" stroke="white" stroke-width="1.5" stroke-linecap="round" stroke-linejoin="round"/>
<path d="M9.82134 5.35716V2.67859C9.82134 2.20499 9.6332 1.75078 9.29832 1.4159C8.96343 1.08101 8.50923 0.892874 8.03563 0.892874H5.92848C5.5082 0.88523 5.09869 1.0261 4.77205 1.29068C4.4454 1.55526 4.22257 1.92659 4.14277 2.3393L0.982056 18.75" stroke="white" stroke-width="1.5" stroke-linecap="round" stroke-linejoin="round"/>
<path d="M8.03564 9.82147H16.9642" stroke="white" stroke-width="1.5" stroke-linecap="round" stroke-linejoin="round"/>
<path d="M9.82141 14.2857V19.6428" stroke="white" stroke-width="1.5" stroke-linecap="round" stroke-linejoin="round"/>
<path d="M19.6429 24.1072C22.1084 24.1072 24.1072 22.1084 24.1072 19.6429C24.1072 17.1773 22.1084 15.1786 19.6429 15.1786C17.1773 15.1786 15.1786 17.1773 15.1786 19.6429C15.1786 22.1084 17.1773 24.1072 19.6429 24.1072Z" stroke="white" stroke-width="1.5" stroke-linecap="round" stroke-linejoin="round"/>
<path d="M15.1786 5.35716V2.67859C15.1786 2.20499 15.3667 1.75078 15.7016 1.4159C16.0365 1.08101 16.4907 0.892874 16.9643 0.892874H19.0714C19.4917 0.88523 19.9012 1.0261 20.2279 1.29068C20.5545 1.55526 20.7774 1.92659 20.8572 2.3393L24.0536 18.75" stroke="white" stroke-width="1.5" stroke-linecap="round" stroke-linejoin="round"/>
<path d="M15.1786 14.2857V19.6428" stroke="white" stroke-width="1.5" stroke-linecap="round" stroke-linejoin="round"/>
</g>
<defs>
<clipPath id="clip0_317_6679">
<rect width="25" height="25" fill="white"/>
</clipPath>
</defs>
</svg>
