<svg width="20" height="20" viewBox="0 0 20 20" fill="none" xmlns="http://www.w3.org/2000/svg">
<g clip-path="url(#clip0_524_1541)">
<path d="M6.42913 0.714233H2.14342C1.35444 0.714233 0.714844 1.35383 0.714844 2.1428V6.42852C0.714844 7.2175 1.35444 7.85709 2.14342 7.85709H6.42913C7.21811 7.85709 7.8577 7.2175 7.8577 6.42852V2.1428C7.8577 1.35383 7.21811 0.714233 6.42913 0.714233Z" stroke="white" stroke-width="1.5" stroke-linecap="round" stroke-linejoin="round"/>
<path d="M17.8569 0.714233H13.5711C12.7822 0.714233 12.1426 1.35383 12.1426 2.1428V6.42852C12.1426 7.2175 12.7822 7.85709 13.5711 7.85709H17.8569C18.6458 7.85709 19.2854 7.2175 19.2854 6.42852V2.1428C19.2854 1.35383 18.6458 0.714233 17.8569 0.714233Z" stroke="white" stroke-width="1.5" stroke-linecap="round" stroke-linejoin="round"/>
<path d="M6.42913 12.1428H2.14342C1.35444 12.1428 0.714844 12.7824 0.714844 13.5714V17.8571C0.714844 18.6461 1.35444 19.2857 2.14342 19.2857H6.42913C7.21811 19.2857 7.8577 18.6461 7.8577 17.8571V13.5714C7.8577 12.7824 7.21811 12.1428 6.42913 12.1428Z" stroke="white" stroke-width="1.5" stroke-linecap="round" stroke-linejoin="round"/>
<path d="M17.8569 12.1428H13.5711C12.7822 12.1428 12.1426 12.7824 12.1426 13.5714V17.8571C12.1426 18.6461 12.7822 19.2857 13.5711 19.2857H17.8569C18.6458 19.2857 19.2854 18.6461 19.2854 17.8571V13.5714C19.2854 12.7824 18.6458 12.1428 17.8569 12.1428Z" stroke="white" stroke-width="1.5" stroke-linecap="round" stroke-linejoin="round"/>
</g>
<defs>
<clipPath id="clip0_524_1541">
<rect width="20" height="20" fill="white"/>
</clipPath>
</defs>
</svg>
