<svg width="20" height="20" viewBox="0 0 20 20" fill="none" xmlns="http://www.w3.org/2000/svg">
<g clip-path="url(#clip0_317_7481)">
<path d="M19.0226 14.9419C18.9129 13.8 17.8936 12.9032 16.7065 12.9032C16.5645 12.9032 16.4516 12.7903 16.4516 12.6483V8.84834C16.4516 6.02576 14.6452 3.56448 12.158 2.64513C12.1871 2.49995 12.2032 2.35159 12.2032 2.20318C12.2032 0.987117 11.2162 0 10 0C8.78383 0 7.79677 0.987117 7.79677 2.20324C7.79677 2.34842 7.81287 2.49354 7.83868 2.63226C6.98387 2.93549 6.19354 3.41612 5.51935 4.06774C4.24839 5.29355 3.5484 6.94193 3.5484 8.70967V12.6484C3.5484 12.7871 3.43549 12.9033 3.29354 12.9033C2.10323 12.9033 1.08707 13.8 0.977395 14.942C0.916091 15.5775 1.12581 16.2097 1.55483 16.6807C1.98062 17.1484 2.59032 17.4194 3.22577 17.4194H7.11612C7.2774 18.8678 8.50968 20.0001 10 20.0001C11.4903 20.0001 12.7226 18.8678 12.8839 17.4194H16.7742C17.4097 17.4194 18.0194 17.1484 18.4452 16.6807C18.871 16.2096 19.0839 15.5774 19.0226 14.9419ZM10 1.2903C10.5032 1.2903 10.9129 1.69998 10.9129 2.20318C10.9129 2.24509 10.9064 2.28383 10.9 2.32574C10.6806 2.29347 10.458 2.2709 10.2354 2.26443C9.85154 2.2515 9.47412 2.27736 9.09994 2.32897C9.09347 2.28706 9.08701 2.24833 9.08701 2.20641C9.08712 1.69998 9.4968 1.2903 10 1.2903ZM10 18.7096C9.2226 18.7096 8.57099 18.1548 8.41934 17.4193H11.5806C11.4291 18.1548 10.7775 18.7096 10 18.7096ZM17.4903 15.8129C17.3032 16.0161 17.0516 16.129 16.7742 16.129H3.22583C2.9484 16.129 2.69682 16.0161 2.50968 15.8129C2.32259 15.6097 2.23548 15.3419 2.26452 15.0645C2.30966 14.5774 2.76454 14.1935 3.29678 14.1935C4.14841 14.1935 4.84193 13.5 4.84193 12.6484V8.70967C4.84193 7.29677 5.40321 5.97743 6.41936 4.99678C7.38708 4.05809 8.65163 3.54837 10 3.54837C10.0645 3.54837 10.1258 3.54837 10.1903 3.55161C12.929 3.64836 15.1613 6.02581 15.1613 8.84839V12.6484C15.1613 13.5 15.8548 14.1935 16.7065 14.1935C17.2387 14.1935 17.6936 14.5774 17.7387 15.0645C17.7645 15.3419 17.6774 15.6065 17.4903 15.8129Z" fill="white"/>
<path d="M1.6452 7.74164C1.94197 7.74164 2.2097 7.53521 2.27424 7.2352C2.58712 5.81907 3.29357 4.52877 4.32583 3.50297C4.57746 3.25134 4.57746 2.84166 4.32583 2.59009C4.0742 2.33846 3.66452 2.33846 3.41295 2.59009C2.20652 3.78999 1.37746 5.30294 1.01298 6.96095C0.935564 7.30933 1.15492 7.65448 1.5033 7.72871C1.55491 7.73841 1.60005 7.74164 1.6452 7.74164Z" fill="white"/>
<path d="M18.3549 7.74199C18.4 7.74199 18.4484 7.73553 18.4936 7.72589C18.842 7.64848 19.0613 7.30651 18.9839 6.95813C18.6194 5.30006 17.7904 3.7904 16.5839 2.58716C16.3323 2.33553 15.9226 2.33553 15.671 2.58716C15.4194 2.83879 15.4194 3.24847 15.671 3.50004C16.7 4.52584 17.4097 5.81619 17.7226 7.23228C17.7904 7.53551 18.0581 7.74199 18.3549 7.74199Z" fill="white"/>
</g>
<defs>
<clipPath id="clip0_317_7481">
<rect width="20" height="20" fill="white"/>
</clipPath>
</defs>
</svg>
