<svg width="24" height="24" viewBox="0 0 24 24" fill="none" xmlns="http://www.w3.org/2000/svg">
<path d="M12 22.9559C13.1256 22.9559 14.2402 22.7342 15.2801 22.3034C16.3201 21.8727 17.265 21.2413 18.0609 20.4454C18.8568 19.6494 19.4882 18.7045 19.919 17.6646C20.3497 16.6247 20.5714 15.5101 20.5714 14.3844V9.61873C20.5715 7.51305 19.7966 5.481 18.3943 3.91016" stroke="white" stroke-width="1.5" stroke-linecap="round" stroke-linejoin="round"/>
<path d="M3.42859 11.5195V14.3824C3.42801 16.0697 3.92548 17.7197 4.85864 19.1256C5.7918 20.5314 7.11914 21.6306 8.6743 22.2852" stroke="white" stroke-width="1.5" stroke-linecap="round" stroke-linejoin="round"/>
<path d="M16.2857 2.19521C14.317 1.05862 11.9775 0.750609 9.7817 1.33893C7.58593 1.92726 5.7138 3.36373 4.57712 5.33235C4.10908 6.14069 3.77885 7.0213 3.59998 7.93807" stroke="white" stroke-width="1.5" stroke-linecap="round" stroke-linejoin="round"/>
<path d="M11.1086 6.01952C11.7392 5.88862 12.391 5.90091 13.0161 6.05549C13.6413 6.21006 14.2237 6.50297 14.7206 6.91263C15.2174 7.32228 15.616 7.83823 15.8869 8.42243C16.1578 9.00663 16.2941 9.64419 16.2858 10.2881V13.0481" stroke="white" stroke-width="1.5" stroke-linecap="round" stroke-linejoin="round"/>
<path d="M15.1886 16.6485C14.6053 17.2982 13.8375 17.7543 12.9879 17.9557C12.1383 18.157 11.2475 18.0941 10.4346 17.7753C9.6218 17.4565 8.92572 16.897 8.43956 16.1718C7.9534 15.4465 7.70035 14.5901 7.71429 13.7171V10.2885C7.71103 9.69973 7.82769 9.11645 8.05715 8.57422" stroke="white" stroke-width="1.5" stroke-linecap="round" stroke-linejoin="round"/>
<path d="M12 10.4766V13.3394" stroke="white" stroke-width="1.5" stroke-linecap="round" stroke-linejoin="round"/>
</svg>
