<svg width="25" height="25" viewBox="0 0 25 25" fill="none" xmlns="http://www.w3.org/2000/svg">
<g clip-path="url(#clip0_490_76)">
<path d="M22.3211 0.892853H2.67829C1.69207 0.892853 0.892578 1.69234 0.892578 2.67857V22.3214C0.892578 23.3076 1.69207 24.1071 2.67829 24.1071H22.3211C23.3074 24.1071 24.1069 23.3076 24.1069 22.3214V2.67857C24.1069 1.69234 23.3074 0.892853 22.3211 0.892853Z" stroke="white" stroke-width="1.5" stroke-linecap="round" stroke-linejoin="round"/>
<path d="M5.35742 8.03571H14.286" stroke="white" stroke-width="1.5" stroke-linecap="round" stroke-linejoin="round"/>
<path d="M16.9637 10.7143C18.4431 10.7143 19.6423 9.51504 19.6423 8.0357C19.6423 6.55637 18.4431 5.35713 16.9637 5.35713C15.4844 5.35713 14.2852 6.55637 14.2852 8.0357C14.2852 9.51504 15.4844 10.7143 16.9637 10.7143Z" stroke="white" stroke-width="1.5" stroke-linecap="round" stroke-linejoin="round"/>
<path d="M19.6423 16.9643H14.2852" stroke="white" stroke-width="1.5" stroke-linecap="round" stroke-linejoin="round"/>
<path d="M8.92885 16.9643H5.35742" stroke="white" stroke-width="1.5" stroke-linecap="round" stroke-linejoin="round"/>
<path d="M11.6063 19.6428C13.0856 19.6428 14.2849 18.4436 14.2849 16.9643C14.2849 15.4849 13.0856 14.2857 11.6063 14.2857C10.127 14.2857 8.92773 15.4849 8.92773 16.9643C8.92773 18.4436 10.127 19.6428 11.6063 19.6428Z" stroke="white" stroke-width="1.5" stroke-linecap="round" stroke-linejoin="round"/>
</g>
<defs>
<clipPath id="clip0_490_76">
<rect width="25" height="25" fill="white"/>
</clipPath>
</defs>
</svg>
