<svg width="25" height="25" viewBox="0 0 25 25" fill="none" xmlns="http://www.w3.org/2000/svg">
<g clip-path="url(#clip0_367_126)">
<path d="M10.7148 23.6602H14.2863" stroke="white" stroke-width="1.5" stroke-linecap="round" stroke-linejoin="round"/>
<path d="M19.642 10.2679C19.642 8.37345 18.8895 6.55664 17.5499 5.21709C16.2104 3.87755 14.3936 3.125 12.4992 3.125C10.6048 3.125 8.78795 3.87755 7.4484 5.21709C6.10885 6.55664 5.35631 8.37345 5.35631 10.2679V16.5179C5.35631 17.2283 5.0741 17.9096 4.57177 18.4119C4.06944 18.9142 3.38814 19.1964 2.67773 19.1964H22.3206C21.6102 19.1964 20.9289 18.9142 20.4266 18.4119C19.9242 17.9096 19.642 17.2283 19.642 16.5179V10.2679Z" stroke="white" stroke-width="1.5" stroke-linecap="round" stroke-linejoin="round"/>
<path d="M0.892578 10.0353C0.893541 8.33555 1.29889 6.66042 2.07514 5.14828C2.85139 3.63614 3.97627 2.33039 5.35686 1.33887" stroke="white" stroke-width="1.5" stroke-linecap="round" stroke-linejoin="round"/>
<path d="M24.1069 10.0353C24.1059 8.33555 23.7006 6.66042 22.9243 5.14828C22.148 3.63614 21.0232 2.33039 19.6426 1.33887" stroke="white" stroke-width="1.5" stroke-linecap="round" stroke-linejoin="round"/>
</g>
<defs>
<clipPath id="clip0_367_126">
<rect width="25" height="25" fill="white"/>
</clipPath>
</defs>
</svg>
