<svg width="24" height="24" viewBox="0 0 24 24" fill="none" xmlns="http://www.w3.org/2000/svg">
<g clip-path="url(#clip0_325_3159)">
<path d="M11.9999 16.2824C14.3669 16.2824 16.2857 14.3636 16.2857 11.9967C16.2857 9.62972 14.3669 7.71094 11.9999 7.71094C9.63301 7.71094 7.71423 9.62972 7.71423 11.9967C7.71423 14.3636 9.63301 16.2824 11.9999 16.2824Z" stroke="white" stroke-width="1.5" stroke-linecap="round" stroke-linejoin="round"/>
<path d="M23.1428 11.9983L19.1314 14.9469L19.8857 19.884L14.9485 19.1298L12 23.1412L9.0514 19.1298L4.11426 19.884L4.86855 14.9469L0.857117 11.9983L4.86855 9.04975L4.11426 4.11261L9.0514 4.8669L12 0.855469L14.9485 4.8669L19.8857 4.11261L19.1314 9.04975L23.1428 11.9983Z" stroke="white" stroke-width="1.5" stroke-linecap="round" stroke-linejoin="round"/>
</g>
<defs>
<clipPath id="clip0_325_3159">
<rect width="24" height="24" fill="white"/>
</clipPath>
</defs>
</svg>
