<svg width="24" height="24" viewBox="0 0 24 24" fill="none" xmlns="http://www.w3.org/2000/svg">
<g clip-path="url(#clip0_524_1936)">
<path d="M2.57171 4.28571C2.11705 4.28571 1.68102 4.46632 1.35952 4.78782C1.03803 5.10931 0.857422 5.54534 0.857422 6V21.4286C0.857422 21.8832 1.03803 22.3193 1.35952 22.6408C1.68102 22.9622 2.11705 23.1429 2.57171 23.1429H21.4289C21.8835 23.1429 22.3195 22.9622 22.641 22.6408C22.9625 22.3193 23.1431 21.8832 23.1431 21.4286V6C23.1431 5.54534 22.9625 5.10931 22.641 4.78782C22.3195 4.46632 21.8835 4.28571 21.4289 4.28571H18.0003" stroke="#734BDF" stroke-width="1.5" stroke-linecap="round" stroke-linejoin="round"/>
<path d="M0.857422 11.1429H23.1431" stroke="#734BDF" stroke-width="1.5" stroke-linecap="round" stroke-linejoin="round"/>
<path d="M6 0.85714V7.71428" stroke="#734BDF" stroke-width="1.5" stroke-linecap="round" stroke-linejoin="round"/>
<path d="M18 0.85714V7.71428" stroke="#734BDF" stroke-width="1.5" stroke-linecap="round" stroke-linejoin="round"/>
<path d="M6 4.28571H14.5714" stroke="#734BDF" stroke-width="1.5" stroke-linecap="round" stroke-linejoin="round"/>
</g>
<defs>
<clipPath id="clip0_524_1936">
<rect width="24" height="24" fill="white"/>
</clipPath>
</defs>
</svg>
