<svg width="24" height="24" viewBox="0 0 24 24" fill="none" xmlns="http://www.w3.org/2000/svg">
<g clip-path="url(#clip0_524_1996)">
<path d="M12.8051 11.8286C12.5508 11.939 12.2766 11.996 11.9993 11.996C11.7221 11.996 11.4479 11.939 11.1936 11.8286L1.4222 7.30286C1.26353 7.22283 1.13019 7.10032 1.03702 6.94899C0.94386 6.79765 0.894531 6.62343 0.894531 6.44572C0.894531 6.268 0.94386 6.09378 1.03702 5.94244C1.13019 5.79111 1.26353 5.6686 1.4222 5.58857L11.1936 1.02857C11.4479 0.918161 11.7221 0.861187 11.9993 0.861187C12.2766 0.861187 12.5508 0.918161 12.8051 1.02857L22.5765 5.55429C22.7352 5.63432 22.8685 5.75682 22.9617 5.90816C23.0548 6.05949 23.1042 6.23372 23.1042 6.41143C23.1042 6.58914 23.0548 6.76337 22.9617 6.9147C22.8685 7.06604 22.7352 7.18854 22.5765 7.26857L12.8051 11.8286Z" stroke="#734BDF" stroke-width="1.5" stroke-linecap="round" stroke-linejoin="round"/>
<path d="M23.1431 12.6L12.686 17.4171C12.4627 17.519 12.22 17.5717 11.9746 17.5717C11.7291 17.5717 11.4865 17.519 11.2631 17.4171L0.857422 12.6" stroke="#734BDF" stroke-width="1.5" stroke-linecap="round" stroke-linejoin="round"/>
<path d="M23.1431 18.1714L12.686 22.9886C12.4627 23.0904 12.22 23.1432 11.9746 23.1432C11.7291 23.1432 11.4865 23.0904 11.2631 22.9886L0.857422 18.1714" stroke="#734BDF" stroke-width="1.5" stroke-linecap="round" stroke-linejoin="round"/>
</g>
<defs>
<clipPath id="clip0_524_1996">
<rect width="24" height="24" fill="white"/>
</clipPath>
</defs>
</svg>
