<svg width="20" height="20" viewBox="0 0 20 20" fill="none" xmlns="http://www.w3.org/2000/svg">
<path d="M10 19.1286C10.938 19.1286 11.8668 18.9438 12.7335 18.5849C13.6001 18.2259 14.3875 17.6998 15.0508 17.0365C15.714 16.3732 16.2402 15.5858 16.5991 14.7192C16.9581 13.8526 17.1429 12.9237 17.1429 11.9857V8.01428C17.143 6.25955 16.4971 4.56617 15.3286 3.25714" stroke="white" stroke-width="1.5" stroke-linecap="round" stroke-linejoin="round"/>
<path d="M2.85742 9.60004V11.9858C2.85694 13.3919 3.2715 14.7669 4.04913 15.9384C4.82676 17.1099 5.93288 18.0259 7.22885 18.5715" stroke="white" stroke-width="1.5" stroke-linecap="round" stroke-linejoin="round"/>
<path d="M13.5714 1.82859C11.9309 0.88143 9.98124 0.624754 8.15144 1.11502C6.32163 1.6053 4.76152 2.80235 3.81429 4.44288C3.42425 5.11649 3.14907 5.85033 3 6.6143" stroke="white" stroke-width="1.5" stroke-linecap="round" stroke-linejoin="round"/>
<path d="M9.25781 5.01431C9.78324 4.90523 10.3264 4.91548 10.8474 5.04429C11.3683 5.1731 11.8537 5.41719 12.2678 5.75857C12.6818 6.09995 13.0139 6.52991 13.2397 7.01674C13.4654 7.50358 13.579 8.03487 13.5721 8.57146V10.8715" stroke="white" stroke-width="1.5" stroke-linecap="round" stroke-linejoin="round"/>
<path d="M12.6568 13.8715C12.1707 14.4129 11.5308 14.7929 10.8229 14.9607C10.1149 15.1286 9.37252 15.0761 8.69515 14.8105C8.01778 14.5448 7.43771 14.0786 7.03258 13.4742C6.62745 12.8698 6.41658 12.1561 6.42819 11.4286V8.57145C6.42547 8.08081 6.52269 7.59474 6.7139 7.14288" stroke="white" stroke-width="1.5" stroke-linecap="round" stroke-linejoin="round"/>
<path d="M10 8.72858V11.1143" stroke="white" stroke-width="1.5" stroke-linecap="round" stroke-linejoin="round"/>
</svg>
