<svg width="25" height="25" viewBox="0 0 25 25" fill="none" xmlns="http://www.w3.org/2000/svg">
<path d="M12.5 23.9107C13.6725 23.9107 14.8336 23.6798 15.9168 23.2311C17.0001 22.7824 17.9844 22.1247 18.8135 21.2956C19.6425 20.4665 20.3002 19.4822 20.7489 18.399C21.1976 17.3157 21.4286 16.1547 21.4286 14.9822V10.0179C21.4287 7.82445 20.6214 5.70773 19.1607 4.07144" stroke="white" stroke-width="1.5" stroke-linecap="round" stroke-linejoin="round"/>
<path d="M3.57129 12V14.9821C3.57069 16.7398 4.08888 18.4585 5.06092 19.923C6.03297 21.3874 7.41561 22.5323 9.03558 23.2143" stroke="white" stroke-width="1.5" stroke-linecap="round" stroke-linejoin="round"/>
<path d="M16.9643 2.28572C14.9136 1.10177 12.4766 0.780928 10.1893 1.39377C7.90204 2.0066 5.9519 3.50293 4.76786 5.55358C4.28032 6.3956 3.93633 7.31289 3.75 8.26786" stroke="white" stroke-width="1.5" stroke-linecap="round" stroke-linejoin="round"/>
<path d="M11.5713 6.26786C12.2281 6.13151 12.9071 6.14431 13.5583 6.30533C14.2094 6.46634 14.8162 6.77146 15.3337 7.19818C15.8513 7.6249 16.2664 8.16235 16.5486 8.7709C16.8308 9.37944 16.9728 10.0436 16.9641 10.7143V13.5893" stroke="white" stroke-width="1.5" stroke-linecap="round" stroke-linejoin="round"/>
<path d="M15.8214 17.3393C15.2139 18.0161 14.4141 18.4912 13.5291 18.7009C12.6441 18.9107 11.7161 18.8451 10.8694 18.5131C10.0227 18.181 9.29763 17.5982 8.79121 16.8427C8.28479 16.0873 8.02121 15.1951 8.03573 14.2857V10.7143C8.03233 10.101 8.15385 9.49341 8.39287 8.92859" stroke="white" stroke-width="1.5" stroke-linecap="round" stroke-linejoin="round"/>
<path d="M12.5 10.9107V13.8929" stroke="white" stroke-width="1.5" stroke-linecap="round" stroke-linejoin="round"/>
</svg>
