<svg width="177" height="50" viewBox="0 0 177 50" fill="none" xmlns="http://www.w3.org/2000/svg">
<path d="M68.37 36V14.79H83.34V18.21H72.12V23.79H81.87V27.15H72.12V32.58H83.34V36H68.37ZM90.3349 36L84.6049 20.19H88.6549L92.8249 32.88L96.9649 20.19H100.985L95.2549 36H90.3349ZM109.889 36.21C108.249 36.21 106.849 35.87 105.689 35.19C104.549 34.51 103.679 33.57 103.079 32.37C102.499 31.15 102.209 29.74 102.209 28.14C102.209 26.54 102.509 25.13 103.109 23.91C103.729 22.67 104.609 21.7 105.749 21C106.909 20.3 108.299 19.95 109.919 19.95C111.119 19.95 112.169 20.17 113.069 20.61C113.969 21.03 114.719 21.61 115.319 22.35C115.939 23.09 116.399 23.93 116.699 24.87C116.999 25.81 117.139 26.8 117.119 27.84C117.099 28.08 117.079 28.32 117.059 28.56C117.039 28.78 117.009 29.02 116.969 29.28H105.869C105.929 29.98 106.109 30.62 106.409 31.2C106.729 31.78 107.169 32.24 107.729 32.58C108.309 32.92 109.029 33.09 109.889 33.09C110.389 33.09 110.869 33.03 111.329 32.91C111.789 32.77 112.189 32.57 112.529 32.31C112.889 32.05 113.129 31.72 113.249 31.32H116.909C116.649 32.46 116.169 33.39 115.469 34.11C114.769 34.83 113.929 35.36 112.949 35.7C111.989 36.04 110.969 36.21 109.889 36.21ZM105.929 26.55H113.549C113.549 25.89 113.399 25.29 113.099 24.75C112.799 24.21 112.369 23.79 111.809 23.49C111.269 23.17 110.609 23.01 109.829 23.01C108.989 23.01 108.289 23.18 107.729 23.52C107.169 23.86 106.739 24.3 106.439 24.84C106.139 25.38 105.969 25.95 105.929 26.55ZM120.036 36V20.19H123.456L123.666 22.2C124.086 21.64 124.576 21.2 125.136 20.88C125.696 20.56 126.286 20.33 126.906 20.19C127.526 20.03 128.106 19.95 128.646 19.95C130.146 19.95 131.326 20.28 132.186 20.94C133.066 21.6 133.686 22.48 134.046 23.58C134.406 24.68 134.586 25.91 134.586 27.27V36H130.926V27.87C130.926 27.29 130.886 26.73 130.806 26.19C130.726 25.63 130.566 25.13 130.326 24.69C130.106 24.25 129.786 23.9 129.366 23.64C128.946 23.38 128.386 23.25 127.686 23.25C126.826 23.25 126.096 23.48 125.496 23.94C124.896 24.4 124.446 25.02 124.146 25.8C123.846 26.56 123.696 27.43 123.696 28.41V36H120.036ZM137.424 36V33.18L145.764 23.43H137.424V20.19H150.474V22.98L142.074 32.76H150.474V36H137.424ZM158.445 36.21C157.705 36.21 157.005 36.11 156.345 35.91C155.685 35.71 155.095 35.42 154.575 35.04C154.055 34.64 153.635 34.15 153.315 33.57C153.015 32.97 152.865 32.27 152.865 31.47C152.865 30.45 153.065 29.62 153.465 28.98C153.865 28.32 154.405 27.82 155.085 27.48C155.785 27.14 156.575 26.91 157.455 26.79C158.335 26.65 159.255 26.58 160.215 26.58H163.305C163.305 25.88 163.195 25.28 162.975 24.78C162.755 24.26 162.405 23.85 161.925 23.55C161.465 23.25 160.865 23.1 160.125 23.1C159.645 23.1 159.195 23.16 158.775 23.28C158.375 23.38 158.025 23.55 157.725 23.79C157.445 24.01 157.245 24.3 157.125 24.66H153.375C153.515 23.84 153.795 23.14 154.215 22.56C154.655 21.96 155.185 21.47 155.805 21.09C156.445 20.71 157.145 20.43 157.905 20.25C158.665 20.05 159.435 19.95 160.215 19.95C162.515 19.95 164.185 20.61 165.225 21.93C166.285 23.25 166.815 25.1 166.815 27.48V36H163.575L163.485 33.96C163.025 34.64 162.475 35.14 161.835 35.46C161.195 35.78 160.575 35.98 159.975 36.06C159.375 36.16 158.865 36.21 158.445 36.21ZM159.165 33.24C159.965 33.24 160.675 33.09 161.295 32.79C161.915 32.49 162.405 32.07 162.765 31.53C163.145 30.99 163.335 30.37 163.335 29.67V29.16H160.455C159.975 29.16 159.495 29.18 159.015 29.22C158.555 29.24 158.135 29.32 157.755 29.46C157.375 29.58 157.065 29.77 156.825 30.03C156.605 30.29 156.495 30.66 156.495 31.14C156.495 31.62 156.615 32.01 156.855 32.31C157.115 32.61 157.445 32.84 157.845 33C158.265 33.16 158.705 33.24 159.165 33.24Z" fill="white"/>
<path d="M172.619 36.36C171.979 36.36 171.429 36.15 170.969 35.73C170.529 35.31 170.309 34.74 170.309 34.02C170.309 33.3 170.539 32.73 170.999 32.31C171.459 31.87 172.009 31.65 172.649 31.65C173.289 31.65 173.829 31.87 174.269 32.31C174.709 32.73 174.929 33.3 174.929 34.02C174.929 34.74 174.709 35.31 174.269 35.73C173.829 36.15 173.279 36.36 172.619 36.36Z" fill="#734BDF"/>
<rect width="50" height="50" rx="25" fill="#734BDF"/>
<path d="M23.7135 35.2131L25.4993 36.9991L27.2853 35.2131L25.4993 33.4277L23.7135 35.2131Z" fill="white"/>
<path d="M20.1436 31.6435L23.7131 35.2142L25.4993 33.4289L21.9289 29.8574L20.1436 31.6435Z" fill="white"/>
<path d="M27.2853 13.7861L25.4993 12L23.7135 13.7861L25.4993 15.5714L27.2853 13.7861Z" fill="white"/>
<path d="M25.4996 33.4289L27.2853 35.2142L30.8568 31.642L29.0707 29.8574L25.4996 33.4289Z" fill="white"/>
<path d="M27.2869 28.0705L25.5007 26.2852L23.715 28.0705L25.5007 29.8566L27.2869 28.0705Z" fill="white"/>
<path d="M29.0707 15.5723L27.285 17.3584L34.4278 24.5005L32.6421 26.2858L25.4996 19.1429L18.3571 26.2858L16.5707 24.5012L23.7135 17.3576L21.9286 15.5723L13 24.5012L18.3594 29.858L20.1448 28.072L20.144 28.0711L25.4993 22.7152L31.8462 29.0621L31.8469 29.0613L32.6421 29.8565L37.9992 24.5012L29.0707 15.5723Z" fill="white"/>
</svg>
