<svg width="177" height="50" viewBox="0 0 177 50" fill="none" xmlns="http://www.w3.org/2000/svg">
<path d="M68.37 37V15.79H83.34V19.21H72.12V24.79H81.87V28.15H72.12V33.58H83.34V37H68.37ZM90.3349 37L84.6049 21.19H88.6549L92.8249 33.88L96.9649 21.19H100.985L95.2549 37H90.3349ZM109.889 37.21C108.249 37.21 106.849 36.87 105.689 36.19C104.549 35.51 103.679 34.57 103.079 33.37C102.499 32.15 102.209 30.74 102.209 29.14C102.209 27.54 102.509 26.13 103.109 24.91C103.729 23.67 104.609 22.7 105.749 22C106.909 21.3 108.299 20.95 109.919 20.95C111.119 20.95 112.169 21.17 113.069 21.61C113.969 22.03 114.719 22.61 115.319 23.35C115.939 24.09 116.399 24.93 116.699 25.87C116.999 26.81 117.139 27.8 117.119 28.84C117.099 29.08 117.079 29.32 117.059 29.56C117.039 29.78 117.009 30.02 116.969 30.28H105.869C105.929 30.98 106.109 31.62 106.409 32.2C106.729 32.78 107.169 33.24 107.729 33.58C108.309 33.92 109.029 34.09 109.889 34.09C110.389 34.09 110.869 34.03 111.329 33.91C111.789 33.77 112.189 33.57 112.529 33.31C112.889 33.05 113.129 32.72 113.249 32.32H116.909C116.649 33.46 116.169 34.39 115.469 35.11C114.769 35.83 113.929 36.36 112.949 36.7C111.989 37.04 110.969 37.21 109.889 37.21ZM105.929 27.55H113.549C113.549 26.89 113.399 26.29 113.099 25.75C112.799 25.21 112.369 24.79 111.809 24.49C111.269 24.17 110.609 24.01 109.829 24.01C108.989 24.01 108.289 24.18 107.729 24.52C107.169 24.86 106.739 25.3 106.439 25.84C106.139 26.38 105.969 26.95 105.929 27.55ZM120.036 37V21.19H123.456L123.666 23.2C124.086 22.64 124.576 22.2 125.136 21.88C125.696 21.56 126.286 21.33 126.906 21.19C127.526 21.03 128.106 20.95 128.646 20.95C130.146 20.95 131.326 21.28 132.186 21.94C133.066 22.6 133.686 23.48 134.046 24.58C134.406 25.68 134.586 26.91 134.586 28.27V37H130.926V28.87C130.926 28.29 130.886 27.73 130.806 27.19C130.726 26.63 130.566 26.13 130.326 25.69C130.106 25.25 129.786 24.9 129.366 24.64C128.946 24.38 128.386 24.25 127.686 24.25C126.826 24.25 126.096 24.48 125.496 24.94C124.896 25.4 124.446 26.02 124.146 26.8C123.846 27.56 123.696 28.43 123.696 29.41V37H120.036ZM137.424 37V34.18L145.764 24.43H137.424V21.19H150.474V23.98L142.074 33.76H150.474V37H137.424ZM158.445 37.21C157.705 37.21 157.005 37.11 156.345 36.91C155.685 36.71 155.095 36.42 154.575 36.04C154.055 35.64 153.635 35.15 153.315 34.57C153.015 33.97 152.865 33.27 152.865 32.47C152.865 31.45 153.065 30.62 153.465 29.98C153.865 29.32 154.405 28.82 155.085 28.48C155.785 28.14 156.575 27.91 157.455 27.79C158.335 27.65 159.255 27.58 160.215 27.58H163.305C163.305 26.88 163.195 26.28 162.975 25.78C162.755 25.26 162.405 24.85 161.925 24.55C161.465 24.25 160.865 24.1 160.125 24.1C159.645 24.1 159.195 24.16 158.775 24.28C158.375 24.38 158.025 24.55 157.725 24.79C157.445 25.01 157.245 25.3 157.125 25.66H153.375C153.515 24.84 153.795 24.14 154.215 23.56C154.655 22.96 155.185 22.47 155.805 22.09C156.445 21.71 157.145 21.43 157.905 21.25C158.665 21.05 159.435 20.95 160.215 20.95C162.515 20.95 164.185 21.61 165.225 22.93C166.285 24.25 166.815 26.1 166.815 28.48V37H163.575L163.485 34.96C163.025 35.64 162.475 36.14 161.835 36.46C161.195 36.78 160.575 36.98 159.975 37.06C159.375 37.16 158.865 37.21 158.445 37.21ZM159.165 34.24C159.965 34.24 160.675 34.09 161.295 33.79C161.915 33.49 162.405 33.07 162.765 32.53C163.145 31.99 163.335 31.37 163.335 30.67V30.16H160.455C159.975 30.16 159.495 30.18 159.015 30.22C158.555 30.24 158.135 30.32 157.755 30.46C157.375 30.58 157.065 30.77 156.825 31.03C156.605 31.29 156.495 31.66 156.495 32.14C156.495 32.62 156.615 33.01 156.855 33.31C157.115 33.61 157.445 33.84 157.845 34C158.265 34.16 158.705 34.24 159.165 34.24Z" fill="white"/>
<path d="M172.619 37.36C171.979 37.36 171.429 37.15 170.969 36.73C170.529 36.31 170.309 35.74 170.309 35.02C170.309 34.3 170.539 33.73 170.999 33.31C171.459 32.87 172.009 32.65 172.649 32.65C173.289 32.65 173.829 32.87 174.269 33.31C174.709 33.73 174.929 34.3 174.929 35.02C174.929 35.74 174.709 36.31 174.269 36.73C173.829 37.15 173.279 37.36 172.619 37.36Z" fill="#734BDF"/>
<rect width="50" height="50" rx="25" fill="#734BDF"/>
<path d="M23.7148 35.2139L25.5006 37L27.2867 35.2139L25.5006 33.4286L23.7148 35.2139Z" fill="white"/>
<path d="M20.1445 31.6433L23.714 35.214L25.5001 33.4286L21.9298 29.8572L20.1445 31.6433Z" fill="white"/>
<path d="M27.2867 13.7861L25.5006 12L23.7148 13.7861L25.5006 15.5714L27.2867 13.7861Z" fill="white"/>
<path d="M25.5 33.4286L27.2858 35.214L30.8572 31.6418L29.0711 29.8572L25.5 33.4286Z" fill="white"/>
<path d="M27.2867 28.0711L25.5005 26.2857L23.7148 28.0711L25.5005 29.8572L27.2867 28.0711Z" fill="white"/>
<path d="M29.0707 15.5714L27.285 17.3575L34.4278 24.4996L32.6421 26.285L25.4996 19.1421L18.3571 26.285L16.5707 24.5004L23.7135 17.3567L21.9286 15.5714L13 24.5004L18.3594 29.8571L20.1448 28.0711L20.144 28.0703L25.4993 22.7143L31.8462 29.0612L31.8469 29.0604L32.6421 29.8556L37.9992 24.5004L29.0707 15.5714Z" fill="white"/>
</svg>
