<svg width="166" height="39" viewBox="0 0 166 39" fill="none" xmlns="http://www.w3.org/2000/svg">
<g clip-path="url(#clip0_51_142)">
<path d="M47.3262 28.2749H58.2828V25.123H50.6672V10.4058H47.3262V28.2749Z" fill="white"/>
<path d="M64.8669 28.6469C66.1935 28.6469 67.3604 28.349 68.3676 27.7534C69.383 27.1495 70.1732 26.3181 70.7383 25.2592C71.3115 24.192 71.5981 22.9635 71.5981 21.5737C71.5981 20.1921 71.3156 18.9719 70.7506 17.913C70.1855 16.8459 69.3953 16.0103 68.3799 15.4064C67.3727 14.8024 66.2017 14.5005 64.8669 14.5005C63.5566 14.5005 62.3979 14.7984 61.3907 15.394C60.3835 15.9896 59.5933 16.821 59.02 17.8882C58.4468 18.9471 58.1602 20.1756 58.1602 21.5737C58.1602 22.9552 58.4386 24.1796 58.9955 25.2467C59.5604 26.3057 60.3466 27.1371 61.3538 27.741C62.3611 28.3449 63.5321 28.6469 64.8669 28.6469ZM64.8669 25.495C63.8268 25.495 63.0367 25.1434 62.4962 24.4402C61.9639 23.7288 61.6978 22.7733 61.6978 21.5737C61.6978 20.4072 61.9516 19.4641 62.4594 18.7444C62.9752 18.0164 63.7777 17.6524 64.8669 17.6524C65.9233 17.6524 66.7176 18.0081 67.2498 18.7196C67.7903 19.4311 68.0605 20.3824 68.0605 21.5737C68.0605 22.7236 67.7944 23.6667 67.2621 24.403C66.738 25.1309 65.9396 25.495 64.8669 25.495Z" fill="white"/>
<path d="M78.2049 28.6469C78.8273 28.6469 79.4005 28.5724 79.9246 28.4235C80.4569 28.2746 80.94 28.0636 81.374 27.7906V29.1432C81.3904 29.6396 81.2634 30.0532 80.9932 30.3841C80.7312 30.7233 80.3791 30.9756 79.9369 31.1411C79.4947 31.3149 79.0238 31.4017 78.5243 31.4017C78.0575 31.4017 77.6235 31.2983 77.2223 31.0915C76.8292 30.8847 76.5262 30.5827 76.3133 30.1856L73.2179 31.6995C73.7256 32.5681 74.4503 33.2672 75.3921 33.7966C76.3338 34.3343 77.3697 34.6032 78.4997 34.6032C79.4742 34.6032 80.3791 34.4708 81.2143 34.2061C82.0496 33.9497 82.7539 33.5568 83.3271 33.0272C83.9084 32.4978 84.3057 31.8236 84.5186 31.0046C84.5922 30.715 84.6414 30.4214 84.666 30.1235C84.6987 29.834 84.7151 29.5238 84.7151 29.1929V14.8727H81.7916V15.6174C81.3412 15.2616 80.8294 14.9886 80.2562 14.7984C79.6912 14.5997 79.0648 14.5005 78.3769 14.5005C77.1076 14.5005 76.0021 14.8066 75.0605 15.4187C74.1187 16.0309 73.3858 16.8706 72.8617 17.9379C72.3458 18.9967 72.0879 20.2087 72.0879 21.5737C72.0879 22.9139 72.3417 24.1175 72.8495 25.1847C73.3653 26.2519 74.0818 27.0957 74.999 27.7162C75.9161 28.3366 76.9848 28.6469 78.2049 28.6469ZM78.7454 25.6439C78.0248 25.6439 77.4352 25.4618 76.9766 25.0979C76.5181 24.7339 76.1782 24.2458 75.9571 23.6336C75.736 23.0131 75.6254 22.3265 75.6254 21.5737C75.6254 20.8291 75.7401 20.1508 75.9694 19.5386C76.1987 18.9181 76.5508 18.4259 77.0257 18.0619C77.5088 17.6896 78.1231 17.5035 78.8682 17.5035C79.9164 17.5035 80.6657 17.8799 81.1161 18.6327C81.5665 19.3772 81.7916 20.3576 81.7916 21.5737C81.7916 22.7897 81.5623 23.7742 81.1038 24.527C80.6534 25.2716 79.8673 25.6439 78.7454 25.6439Z" fill="white"/>
<path d="M92.651 28.6469C93.9777 28.6469 95.1446 28.349 96.1518 27.7534C97.167 27.1495 97.9574 26.3181 98.522 25.2592C99.0953 24.192 99.3819 22.9635 99.3819 21.5737C99.3819 20.1921 99.1001 18.9719 98.5346 17.913C97.97 16.8459 97.1795 16.0103 96.1641 15.4064C95.1569 14.8024 93.9858 14.5005 92.651 14.5005C91.3408 14.5005 90.1821 14.7984 89.1749 15.394C88.1677 15.9896 87.3774 16.821 86.8042 17.8882C86.231 18.9471 85.9443 20.1756 85.9443 21.5737C85.9443 22.9552 86.2228 24.1796 86.7796 25.2467C87.3446 26.3057 88.1308 27.1371 89.138 27.741C90.1453 28.3449 91.3163 28.6469 92.651 28.6469ZM92.651 25.495C91.611 25.495 90.8208 25.1434 90.2803 24.4402C89.7481 23.7288 89.482 22.7733 89.482 21.5737C89.482 20.4072 89.7358 19.4641 90.2435 18.7444C90.7594 18.0164 91.5619 17.6524 92.651 17.6524C93.7074 17.6524 94.5017 18.0081 95.034 18.7196C95.5745 19.4311 95.8447 20.3824 95.8447 21.5737C95.8447 22.7236 95.5785 23.6667 95.0463 24.403C94.5222 25.1309 93.7238 25.495 92.651 25.495Z" fill="white"/>
<path d="M100.854 13.0123H104.196V10.0342H100.854V13.0123ZM100.854 28.2756H104.196V14.8737H100.854V28.2756Z" fill="white"/>
<path d="M106.38 34.231H109.745V27.7906C110.18 28.0636 110.658 28.2746 111.182 28.4235C111.715 28.5724 112.292 28.6469 112.915 28.6469C114.135 28.6469 115.204 28.3366 116.121 27.7162C117.038 27.0957 117.75 26.2519 118.258 25.1847C118.774 24.1175 119.032 22.9139 119.032 21.5737C119.032 20.2087 118.77 18.9967 118.246 17.9379C117.73 16.8706 117.001 16.0309 116.059 15.4187C115.117 14.8066 114.012 14.5005 112.743 14.5005C112.055 14.5005 111.425 14.5997 110.851 14.7984C110.286 14.9886 109.778 15.2616 109.328 15.6174V14.8727H106.38V34.231ZM112.374 25.6439C111.26 25.6439 110.475 25.2716 110.015 24.527C109.557 23.7742 109.328 22.7897 109.328 21.5737C109.328 20.3576 109.553 19.3772 110.004 18.6327C110.462 17.8799 111.211 17.5035 112.252 17.5035C112.997 17.5035 113.607 17.6896 114.082 18.0619C114.565 18.4259 114.921 18.9181 115.15 19.5386C115.38 20.1508 115.494 20.8291 115.494 21.5737C115.494 22.3265 115.383 23.0131 115.162 23.6336C114.941 24.2458 114.602 24.7339 114.143 25.0979C113.685 25.4618 113.095 25.6439 112.374 25.6439Z" fill="white"/>
<path d="M125.085 28.6469C126.82 28.6469 128.18 28.2539 129.163 27.468C130.145 26.682 130.636 25.6025 130.636 24.2292C130.636 23.1869 130.317 22.3638 129.679 21.7598C129.048 21.1559 127.976 20.6554 126.46 20.2584C125.429 19.9935 124.658 19.7785 124.151 19.613C123.652 19.4476 123.32 19.2863 123.156 19.1291C123 18.9719 122.923 18.7775 122.923 18.5459C122.923 18.157 123.107 17.8593 123.475 17.6524C123.853 17.4456 124.348 17.3629 124.962 17.4042C126.263 17.5035 126.977 18.0661 127.099 19.0919L130.514 18.4714C130.342 17.2554 129.752 16.2916 128.745 15.5801C127.738 14.8604 126.453 14.5005 124.888 14.5005C123.283 14.5005 122.002 14.881 121.043 15.6421C120.086 16.4032 119.606 17.429 119.606 18.7196C119.606 19.7454 119.938 20.5561 120.601 21.1517C121.264 21.7392 122.407 22.2437 124.028 22.6657C124.987 22.9221 125.69 23.1289 126.141 23.2861C126.599 23.4433 126.895 23.6046 127.025 23.7701C127.156 23.9273 127.222 24.1383 127.222 24.403C127.222 24.8249 127.058 25.1558 126.731 25.3957C126.403 25.6273 125.936 25.7431 125.33 25.7431C124.593 25.7431 123.983 25.5653 123.5 25.2095C123.025 24.8538 122.718 24.3616 122.579 23.7329L119.164 24.254C119.385 25.6521 120.008 26.7359 121.032 27.5052C122.063 28.2663 123.414 28.6469 125.085 28.6469Z" fill="white"/>
<path d="M136.8 28.673C137.758 28.673 138.593 28.5116 139.306 28.189C140.019 27.8664 140.616 27.4362 141.099 26.8985V28.2759H144.047V14.874H140.682V21.6743C140.682 22.5015 140.587 23.1716 140.399 23.6845C140.219 24.1892 139.986 24.5738 139.699 24.8385C139.412 25.095 139.106 25.2687 138.777 25.3598C138.45 25.4507 138.143 25.4963 137.857 25.4963C137.144 25.4963 136.591 25.3349 136.199 25.0123C135.814 24.6896 135.535 24.2884 135.363 23.8086C135.191 23.3287 135.089 22.8531 135.056 22.3815C135.023 21.9017 135.007 21.5088 135.007 21.2027V14.874H131.616V22.394C131.616 22.6173 131.633 22.9731 131.665 23.4611C131.698 23.9492 131.793 24.4911 131.948 25.0868C132.104 25.6741 132.361 26.2408 132.722 26.7868C133.091 27.3328 133.602 27.7836 134.258 28.1394C134.912 28.4951 135.76 28.673 136.8 28.673Z" fill="white"/>
<path d="M145.981 28.2748H149.347V20.1592C149.347 19.3899 149.555 18.7653 149.973 18.2854C150.399 17.7973 150.96 17.5533 151.656 17.5533C152.385 17.5533 152.954 17.8015 153.364 18.2979C153.781 18.786 153.99 19.4726 153.99 20.3578V28.2748H157.331V20.1592C157.331 19.3899 157.54 18.7653 157.958 18.2854C158.383 17.7973 158.944 17.5533 159.64 17.5533C160.369 17.5533 160.938 17.8015 161.347 18.2979C161.765 18.786 161.974 19.4726 161.974 20.3578V28.2748H165.315V19.4643C165.315 18 164.926 16.8171 164.148 15.9153C163.379 15.0053 162.236 14.5503 160.721 14.5503C159.869 14.5503 159.088 14.7364 158.375 15.1087C157.662 15.481 157.094 15.9898 156.667 16.635C156.324 16.0064 155.832 15.5017 155.193 15.1212C154.555 14.7406 153.76 14.5503 152.811 14.5503C152.008 14.5503 151.271 14.7117 150.6 15.0343C149.928 15.3486 149.371 15.783 148.929 16.3372V14.8729H145.981V28.2748Z" fill="white"/>
<path d="M19.3023 0C8.64194 0 0 8.73044 0 19.5C10.6604 19.5 19.3023 10.7696 19.3023 0Z" fill="#734BDF"/>
<path d="M19.3027 39C29.9631 39 38.6051 30.2696 38.6051 19.5C27.9447 19.5 19.3027 28.2304 19.3027 39Z" fill="#734BDF"/>
<path d="M19.3027 0C29.9631 0 38.6051 8.73044 38.6051 19.5C27.9447 19.5 19.3027 10.7696 19.3027 0Z" fill="#734BDF"/>
<path d="M19.3023 39C8.64194 39 -9.3196e-07 30.2696 0 19.5C10.6604 19.5 19.3023 28.2304 19.3023 39Z" fill="#734BDF"/>
</g>
<defs>
<clipPath id="clip0_51_142">
<rect width="166" height="39" fill="white"/>
</clipPath>
</defs>
</svg>
