<svg width="30" height="30" viewBox="0 0 30 30" fill="none" xmlns="http://www.w3.org/2000/svg">
<path fill-rule="evenodd" clip-rule="evenodd" d="M6.91123 19.5149C5.89812 20.9342 3.98318 22.4622 1.3762 23.7342C0.698708 24.0648 1.00434 25.0893 1.75221 24.9947C7.22973 24.3019 10.78 21.9029 12.7188 18.3354C13.4398 17.0086 13.8929 15.5962 14.1341 14.1545C14.2932 13.204 14.3352 12.4906 14.3352 11.6667C14.3352 7.98477 11.3505 5 7.66855 5C3.98666 5 1.00189 7.98477 1.00189 11.6667C1.00189 15.3486 4.03428 18.3354 7.51898 18.3354C7.33514 18.8402 7.29099 18.9828 6.91123 19.5149ZM21.5779 19.5149C20.5648 20.9342 18.6498 22.4622 16.0429 23.7342C15.3654 24.0648 15.671 25.0893 16.4189 24.9947C21.8964 24.3019 25.4467 21.9029 27.3854 18.3354C28.1065 17.0086 28.5595 15.5962 28.8008 14.1545C28.9599 13.204 29.0019 12.4906 29.0019 11.6667C29.0019 7.98477 26.0171 5 22.3352 5C18.6533 5 15.6686 7.98477 15.6686 11.6667C15.6686 15.3486 18.7009 18.3354 22.1856 18.3354C22.0018 18.8402 21.9577 18.9828 21.5779 19.5149Z" fill="#734BDF"/>
</svg>
