<svg width="166" height="40" viewBox="0 0 166 40" fill="none" xmlns="http://www.w3.org/2000/svg">
<g clip-path="url(#clip0_113_48)">
<path d="M50.6399 27.4524H62.3107V23.9402H54.7879V10.7109H50.6399V27.4524Z" fill="white"/>
<path d="M69.2251 25.1094C67.5612 25.1094 66.6941 23.6577 66.6941 21.4801C66.6941 19.3026 67.5612 17.8274 69.2251 17.8274C70.889 17.8274 71.7796 19.3026 71.7796 21.4801C71.7796 23.6577 70.889 25.1094 69.2251 25.1094ZM69.2485 27.8255C73.1154 27.8255 75.6464 25.086 75.6464 21.4801C75.6464 17.8743 73.1154 15.1348 69.2485 15.1348C65.4051 15.1348 62.8273 17.8743 62.8273 21.4801C62.8273 25.086 65.4051 27.8255 69.2485 27.8255Z" fill="white"/>
<path d="M82.3396 31.5952C84.1207 31.5952 85.6909 31.1972 86.7455 30.2606C87.7063 29.3943 88.3391 28.083 88.3391 26.2801V15.4625H84.6832V16.7504H84.6363C83.9332 15.7435 82.8552 15.1113 81.2616 15.1113C78.2853 15.1113 76.223 17.5933 76.223 21.1055C76.223 24.7816 78.7306 26.7952 81.4257 26.7952C82.8786 26.7952 83.7926 26.2099 84.4957 25.4138H84.5894V26.6079C84.5894 28.0596 83.9098 28.9025 82.2928 28.9025C81.0273 28.9025 80.3945 28.364 80.1836 27.7318H76.4808C76.8558 30.2372 79.0353 31.5952 82.3396 31.5952ZM82.3162 23.9621C80.8866 23.9621 79.9492 22.7913 79.9492 20.9884C79.9492 19.1621 80.8866 17.9913 82.3162 17.9913C83.9098 17.9913 84.7535 19.3494 84.7535 20.965C84.7535 22.6508 83.9801 23.9621 82.3162 23.9621Z" fill="white"/>
<path d="M95.8562 25.1094C94.1923 25.1094 93.3252 23.6577 93.3252 21.4801C93.3252 19.3026 94.1923 17.8274 95.8562 17.8274C97.5201 17.8274 98.4107 19.3026 98.4107 21.4801C98.4107 23.6577 97.5201 25.1094 95.8562 25.1094ZM95.8796 27.8255C99.7465 27.8255 102.277 25.086 102.277 21.4801C102.277 17.8743 99.7465 15.1348 95.8796 15.1348C92.0363 15.1348 89.4584 17.8743 89.4584 21.4801C89.4584 25.086 92.0363 27.8255 95.8796 27.8255Z" fill="white"/>
<path d="M103.393 27.4524H107.213V15.4641H103.393V27.4524ZM103.393 13.8017H107.213V10.7109H103.393V13.8017Z" fill="white"/>
<path d="M108.871 31.4079H112.691V26.2099H112.737C113.487 27.2167 114.589 27.8255 116.136 27.8255C119.276 27.8255 121.362 25.3435 121.362 21.4567C121.362 17.8508 119.416 15.1113 116.229 15.1113C114.589 15.1113 113.417 15.8372 112.597 16.9143H112.527V15.4625H108.871V31.4079ZM115.151 24.8752C113.511 24.8752 112.573 23.5406 112.573 21.5972C112.573 19.6538 113.417 18.1786 115.081 18.1786C116.721 18.1786 117.495 19.5367 117.495 21.5972C117.495 23.6343 116.604 24.8752 115.151 24.8752Z" fill="white"/>
<path d="M127.581 27.8255C130.721 27.8255 133.041 26.4674 133.041 23.845C133.041 20.7777 130.557 20.2391 128.448 19.8879C126.925 19.6069 125.565 19.4899 125.565 18.6469C125.565 17.8977 126.292 17.5465 127.229 17.5465C128.284 17.5465 129.01 17.8743 129.151 18.9513H132.666C132.479 16.5865 130.651 15.1113 127.253 15.1113C124.417 15.1113 122.073 16.4225 122.073 18.9513C122.073 21.7611 124.3 22.323 126.386 22.6743C127.979 22.9552 129.432 23.0723 129.432 24.1494C129.432 24.9221 128.706 25.3435 127.557 25.3435C126.292 25.3435 125.495 24.7582 125.354 23.564H121.745C121.863 26.2099 124.065 27.8255 127.581 27.8255Z" fill="white"/>
<path d="M138.23 27.8024C139.894 27.8024 140.949 27.1468 141.816 25.9761H141.886V27.4512H145.542V15.4629H141.722V22.1595C141.722 23.5878 140.925 24.5712 139.613 24.5712C138.394 24.5712 137.808 23.8453 137.808 22.5341V15.4629H134.012V23.3302C134.012 25.9995 135.465 27.8024 138.23 27.8024Z" fill="white"/>
<path d="M147.203 27.4508H151.023V20.7308C151.023 19.3025 151.726 18.2957 152.921 18.2957C154.069 18.2957 154.608 19.045 154.608 20.3328V27.4508H158.428V20.7308C158.428 19.3025 159.108 18.2957 160.327 18.2957C161.475 18.2957 162.014 19.045 162.014 20.3328V27.4508H165.834V19.6538C165.834 16.9611 164.475 15.1113 161.756 15.1113C160.209 15.1113 158.921 15.7669 157.983 17.2186H157.936C157.327 15.9308 156.132 15.1113 154.562 15.1113C152.827 15.1113 151.679 15.9308 150.929 17.1718H150.859V15.4625H147.203V27.4508Z" fill="white"/>
<path fill-rule="evenodd" clip-rule="evenodd" d="M20.1974 39.1591C30.9832 39.1591 39.7268 30.4232 39.7268 19.6469C39.7268 8.87068 30.9832 0.134766 20.1974 0.134766C9.41157 0.134766 0.667969 8.87068 0.667969 19.6469C0.667969 30.4232 9.41157 39.1591 20.1974 39.1591ZM26.2899 9.22437C26.5864 8.17189 25.5642 7.54953 24.6306 8.21408L11.5977 17.4904C10.5852 18.2111 10.7445 19.6469 11.837 19.6469H15.2689V19.6204H21.9575L16.5075 21.5417L14.1049 30.0696C13.8084 31.1221 14.8305 31.7444 15.7642 31.0798L28.7971 21.8035C29.8096 21.0828 29.6502 19.6469 28.5578 19.6469H23.3534L26.2899 9.22437Z" fill="#734BDF"/>
</g>
<defs>
<clipPath id="clip0_113_48">
<rect width="166" height="40" fill="white"/>
</clipPath>
</defs>
</svg>
