<svg width="210" height="210" viewBox="0 0 210 210" fill="none" xmlns="http://www.w3.org/2000/svg">
<path d="M210 105C210 162.99 162.99 210 105 210C47.0101 210 0 162.99 0 105C0 47.0101 47.0101 0 105 0C162.99 0 210 47.0101 210 105ZM38.9459 105C38.9459 141.481 68.5193 171.054 105 171.054C141.481 171.054 171.054 141.481 171.054 105C171.054 68.5193 141.481 38.9459 105 38.9459C68.5193 38.9459 38.9459 68.5193 38.9459 105Z" fill="#734BDF"/>
<path d="M111.047 25.8717L111.549 20.2362L106.877 10L111.557 10.4169L114.145 16.4961L117.766 10.97L122.446 11.3869L116.038 20.6361L115.536 26.2716L111.047 25.8717Z" fill="white"/>
<path d="M125.981 28.7971C124.7 28.452 123.622 27.9381 122.746 27.2554C121.89 26.5613 121.299 25.7151 120.972 24.7167C120.661 23.7224 120.673 22.6002 121.01 21.3502C121.48 19.6064 122.348 18.3505 123.614 17.5826C124.884 16.7993 126.5 16.6716 128.46 17.1996C130.25 17.6818 131.524 18.5133 132.281 19.6941C133.055 20.879 133.229 22.2585 132.805 23.8326L132.288 25.7539L124.672 23.7022C124.714 24.3427 124.996 24.8654 125.516 25.2703C126.036 25.6752 126.797 26.0128 127.8 26.283C128.433 26.4534 129.08 26.5699 129.742 26.6323C130.423 26.6835 130.978 26.6838 131.405 26.6335L130.7 29.2492C129.483 29.4675 127.91 29.3168 125.981 28.7971ZM125.308 21.3411L129.174 22.3825L129.28 21.989C129.396 21.5569 129.353 21.1645 129.15 20.8119C128.962 20.4634 128.529 20.1978 127.85 20.0148C127.094 19.8111 126.518 19.8297 126.122 20.0707C125.745 20.3003 125.474 20.7238 125.308 21.3411Z" fill="white"/>
<path d="M136.119 32.3998C135.467 32.096 134.913 31.6966 134.456 31.2015C134.013 30.7132 133.74 30.1451 133.636 29.4973C133.533 28.8495 133.656 28.1489 134.007 27.3956C134.514 26.3091 135.268 25.6376 136.269 25.3812C137.277 25.1103 138.512 25.3158 139.975 25.9976L142.648 27.2431L142.739 27.0476C142.928 26.6419 142.9 26.2673 142.655 25.9237C142.409 25.5801 141.866 25.2126 141.026 24.821C139.838 24.2674 138.58 23.9017 137.253 23.7238L138.397 21.2683C139.013 21.3085 139.742 21.4457 140.586 21.6799C141.435 21.8995 142.266 22.1984 143.077 22.5765C144.714 23.3393 145.855 24.2767 146.501 25.3887C147.147 26.5006 147.132 27.7809 146.457 29.2296L143.5 35.5748L139.936 33.9141L140.125 32.9972C139.615 33.1471 139.026 33.1813 138.358 33.0996C137.706 33.0246 136.959 32.7913 136.119 32.3998ZM138.624 30.6576C139.087 30.8736 139.515 30.9762 139.908 30.9654C140.316 30.9613 140.682 30.894 141.008 30.7634L141.605 29.4814L139.628 28.5599C138.729 28.1413 138.115 28.287 137.784 28.9968C137.46 29.6922 137.74 30.2458 138.624 30.6576Z" fill="white"/>
<path d="M145.223 36.7741L151.443 27.2641L155.074 29.6393L154.676 30.4673C155.213 30.4937 155.843 30.61 156.568 30.8165C157.292 31.0229 157.975 31.3072 158.616 31.6696L156.779 34.4784C156.414 34.2777 156.002 34.0752 155.544 33.8709C155.099 33.6753 154.647 33.5041 154.189 33.3574C153.754 33.2061 153.369 33.1075 153.037 33.0617L148.995 39.2412L145.223 36.7741Z" fill="white"/>
<path d="M155.917 44.8408C155.177 44.2063 154.526 43.5537 153.964 42.8828C153.404 42.2345 153.004 41.6702 152.763 41.19L154.869 38.7327C155.127 39.2909 155.501 39.8742 155.99 40.4827C156.491 41.1015 156.947 41.5878 157.36 41.9414C157.797 42.3158 158.135 42.5845 158.374 42.7475C158.626 42.9208 158.829 42.9165 158.985 42.7345C159.162 42.5282 159.097 42.1988 158.79 41.7463C158.483 41.2939 158.115 40.7045 157.685 39.9782C157.136 39.023 156.828 38.1909 156.762 37.4819C156.696 36.7728 156.97 36.0603 157.584 35.3444C158.322 34.4828 159.229 34.1127 160.303 34.234C161.389 34.3432 162.659 35.0218 164.116 36.2699C164.674 36.7484 165.214 37.2849 165.736 37.8795C166.257 38.4741 166.641 38.9716 166.888 39.3721L164.828 41.7748C164.599 41.305 164.298 40.8465 163.923 40.3993C163.561 39.9624 163.204 39.5932 162.852 39.2915C162.464 38.9587 162.102 38.6805 161.768 38.4569C161.433 38.2332 161.193 38.2064 161.047 38.3763C160.881 38.5704 160.931 38.8556 161.198 39.2318C161.477 39.6184 161.83 40.1523 162.256 40.8336C162.745 41.5894 163.073 42.2386 163.239 42.7812C163.418 43.3342 163.44 43.8369 163.304 44.2894C163.181 44.7522 162.912 45.2264 162.496 45.7118C161.747 46.5855 160.806 46.9582 159.674 46.83C158.565 46.7 157.312 46.0369 155.917 44.8408Z" fill="white"/>
<path d="M169.629 60.0464C168.172 57.9453 167.568 55.9813 167.818 54.1545C168.077 52.3409 169.349 50.6415 171.634 49.0563C173.21 47.9631 174.65 47.3335 175.955 47.1675C177.273 46.9924 178.481 47.2338 179.579 47.8918C180.7 48.5538 181.743 49.5808 182.709 50.9728C183.674 52.3648 184.266 53.695 184.485 54.9634C184.726 56.2358 184.533 57.4585 183.908 58.6317C183.295 59.7957 182.201 60.9244 180.625 62.0176C178.34 63.6027 176.299 64.1925 174.5 63.7868C172.701 63.3812 171.078 62.1344 169.629 60.0464ZM172.781 57.86C173.437 58.8055 174.173 59.3062 174.99 59.362C175.829 59.4218 176.833 59.0464 178.002 58.2356C179.249 57.3701 179.979 56.5431 180.19 55.7544C180.424 54.9698 180.213 54.1047 179.557 53.1592C178.901 52.2137 178.16 51.7065 177.334 51.6375C176.531 51.5726 175.505 51.9729 174.257 52.8383C173.089 53.6491 172.381 54.4514 172.134 55.2451C171.909 56.0429 172.125 56.9145 172.781 57.86Z" fill="white"/>
<path d="M175.259 68.9249L182.529 65.5119L181.907 64.1881L184.924 62.7719L185.545 64.0957L186.218 63.7799C187.375 63.2365 188.487 63.121 189.551 63.4333C190.631 63.7388 191.483 64.5571 192.107 65.8881C192.372 66.4523 192.563 66.9718 192.68 67.4466C192.804 67.9359 192.878 68.4131 192.902 68.8785L190.255 70.1214C190.225 69.8705 190.181 69.6263 190.123 69.3889C190.071 69.166 189.991 68.9388 189.882 68.7073C189.638 68.1865 189.374 67.8689 189.091 67.7547C188.814 67.6549 188.466 67.7035 188.047 67.9005L187.461 68.1755L188.602 70.6061L185.504 71.8486L184.444 69.5917L177.174 73.0047L175.259 68.9249Z" fill="white"/>
<path d="M180.718 82.203L195.771 78.7744L198.37 90.1815L195.004 90.9481L193.406 83.9356L190.952 84.4946L192.352 90.6423L188.939 91.4196L187.539 85.2719L185.085 85.8309L186.682 92.8434L183.316 93.6101L180.718 82.203Z" fill="white"/>
<path d="M183.4 94.5305L189.412 98.5906L194.755 94.0679L195.027 98.9511L192.731 100.855L195.225 102.518L195.495 107.377L189.685 103.498L184.159 108.199L183.885 103.268L186.316 101.212L183.673 99.4376L183.4 94.5305Z" fill="white"/>
<path d="M178.842 108.271L195.26 110.288L194.784 114.167L193.853 114.27C194.161 114.775 194.378 115.308 194.502 115.871C194.64 116.452 194.664 117.107 194.574 117.837C194.368 119.518 193.781 120.758 192.813 121.557C191.859 122.374 190.367 122.658 188.336 122.408C186.322 122.161 184.85 121.489 183.922 120.393C182.994 119.296 182.634 117.9 182.843 116.202C182.981 115.076 183.312 114.15 183.836 113.426L178.292 112.745L178.842 108.271ZM186.243 115.46C186.163 116.111 186.332 116.639 186.749 117.044C187.166 117.45 187.859 117.712 188.826 117.831C189.762 117.946 190.417 117.857 190.791 117.565C191.163 117.289 191.39 116.817 191.472 116.151C191.554 115.485 191.404 114.871 191.022 114.309L187.025 113.817C186.803 114.048 186.629 114.284 186.503 114.526C186.377 114.768 186.29 115.08 186.243 115.46Z" fill="white"/>
<path d="M179.819 129.294C180.211 128.027 180.765 126.969 181.48 126.119C182.205 125.29 183.073 124.731 184.083 124.441C185.088 124.167 186.209 124.222 187.446 124.605C189.171 125.139 190.394 126.053 191.114 127.347C191.849 128.646 191.916 130.265 191.316 132.204C190.767 133.975 189.889 135.217 188.68 135.93C187.468 136.659 186.083 136.782 184.525 136.299L182.625 135.71L184.959 128.176C184.317 128.195 183.784 128.456 183.36 128.961C182.936 129.465 182.571 130.214 182.263 131.206C182.069 131.832 181.929 132.474 181.842 133.134C181.765 133.813 181.744 134.367 181.779 134.796L179.191 133.994C179.018 132.769 179.228 131.203 179.819 129.294ZM187.295 128.9L186.11 132.724L186.499 132.845C186.927 132.977 187.32 132.949 187.68 132.759C188.035 132.585 188.317 132.161 188.525 131.49C188.757 130.742 188.76 130.165 188.534 129.761C188.318 129.376 187.905 129.089 187.295 128.9Z" fill="white"/>
<path d="M177.606 136.079L187.871 140.953L186.01 144.873L185.136 144.59C185.182 145.125 185.152 145.766 185.046 146.511C184.94 147.257 184.75 147.972 184.478 148.657L181.447 147.217C181.596 146.828 181.741 146.393 181.881 145.911C182.015 145.444 182.123 144.973 182.206 144.5C182.297 144.047 182.343 143.653 182.343 143.317L175.673 140.15L177.606 136.079Z" fill="white"/>
<path d="M184.176 151.5L186.963 153.192L184.436 157.352L181.649 155.659L184.176 151.5ZM172.986 145.123L179.891 149.318L180.75 147.904L183.358 149.937L180.359 154.875L170.646 148.975L172.986 145.123Z" fill="white"/>
<path d="M165.685 155.165C166.515 154.13 167.418 153.349 168.395 152.821C169.374 152.315 170.386 152.113 171.432 152.214C172.468 152.328 173.491 152.79 174.501 153.6C175.909 154.729 176.712 156.028 176.907 157.496C177.115 158.974 176.584 160.505 175.314 162.088C174.154 163.535 172.881 164.368 171.496 164.589C170.1 164.821 168.766 164.428 167.495 163.408L165.942 162.163L170.877 156.01C170.273 155.792 169.682 155.84 169.102 156.154C168.523 156.468 167.908 157.03 167.258 157.84C166.848 158.351 166.482 158.898 166.159 159.479C165.839 160.083 165.616 160.59 165.491 161.002L163.377 159.307C163.666 158.104 164.435 156.724 165.685 155.165ZM172.785 157.54L170.28 160.663L170.598 160.918C170.947 161.198 171.324 161.316 171.728 161.272C172.122 161.24 172.54 160.949 172.98 160.401C173.47 159.79 173.684 159.255 173.622 158.795C173.562 158.358 173.283 157.94 172.785 157.54Z" fill="white"/>
<path d="M161.142 160.868L168.641 169.407L165.47 172.191L164.811 171.622C164.676 172.122 164.419 172.689 164.038 173.321C163.645 173.964 163.143 174.554 162.53 175.092C161.461 176.031 160.449 176.452 159.492 176.356C158.536 176.26 157.572 175.659 156.602 174.555L151.793 169.078L155.18 166.104L159.688 171.238C160.026 171.623 160.352 171.825 160.668 171.845C160.984 171.866 161.352 171.692 161.772 171.323C162.024 171.101 162.236 170.809 162.407 170.446C162.565 170.094 162.655 169.76 162.676 169.445L157.756 163.842L161.142 160.868Z" fill="white"/>
<path d="M144.819 173.104C146.57 172.016 148.212 171.569 149.745 171.765C151.286 171.974 152.579 172.92 153.625 174.604C154.334 175.744 154.682 176.835 154.671 177.877C154.66 178.919 154.336 179.882 153.7 180.767C153.072 181.664 152.188 182.468 151.048 183.176C150.329 183.623 149.65 183.969 149.012 184.215C148.383 184.474 147.735 184.642 147.067 184.718L145.397 182.03C146.434 181.912 147.462 181.537 148.48 180.905C149.349 180.365 149.906 179.793 150.152 179.189C150.384 178.593 150.238 177.875 149.715 177.033C149.226 176.245 148.661 175.806 148.021 175.714C147.381 175.623 146.606 175.86 145.697 176.425C145.208 176.728 144.767 177.078 144.372 177.473C143.987 177.882 143.651 178.326 143.365 178.805L141.619 175.994C141.992 175.443 142.447 174.934 142.985 174.468C143.502 173.997 144.113 173.542 144.819 173.104Z" fill="white"/>
<path d="M134.068 178.412C135.292 177.902 136.46 177.649 137.57 177.654C138.672 177.68 139.657 177.988 140.526 178.578C141.381 179.174 142.057 180.07 142.555 181.265C143.25 182.932 143.331 184.456 142.798 185.838C142.272 187.235 141.072 188.324 139.199 189.104C137.488 189.818 135.971 189.939 134.649 189.468C133.313 189.003 132.331 188.019 131.704 186.514L130.939 184.677L138.219 181.643C137.794 181.162 137.252 180.921 136.593 180.918C135.934 180.916 135.125 181.115 134.166 181.514C133.561 181.766 132.978 182.07 132.416 182.425C131.845 182.801 131.406 183.14 131.099 183.441L130.057 180.941C130.887 180.024 132.224 179.181 134.068 178.412ZM139.16 183.9L135.464 185.44L135.621 185.816C135.793 186.23 136.067 186.514 136.444 186.668C136.805 186.829 137.31 186.775 137.959 186.504C138.682 186.203 139.127 185.836 139.293 185.403C139.45 184.991 139.406 184.49 139.16 183.9Z" fill="white"/>
<path d="M120.347 189.849L123.16 191.247L121.63 193.425L124.209 194.012L123.359 196.902L121.316 196.177L121.808 198.233L118.522 198.787L118.313 196.682L116.645 198.033L114.894 195.581L117.139 194.182L114.98 192.625L117.179 190.382L119.13 192.29L120.347 189.849Z" fill="white"/>
<path d="M99.9599 184.241L99.6031 189.887L104.537 200L99.8476 199.704L97.1046 193.693L93.6268 199.311L88.9373 199.014L95.105 189.603L95.4618 183.957L99.9599 184.241Z" fill="white"/>
<path d="M84.9588 181.705C86.2482 182.017 87.3394 182.502 88.2324 183.162C89.1061 183.833 89.7194 184.664 90.0723 185.653C90.4097 186.639 90.4264 187.761 90.1225 189.02C89.6984 190.775 88.8636 192.053 87.6179 192.854C86.3684 193.67 84.7572 193.84 82.7841 193.364C80.982 192.928 79.6867 192.13 78.8982 190.97C78.0943 189.806 77.8837 188.431 78.2664 186.846L78.7336 184.912L86.4005 186.764C86.3411 186.125 86.0463 185.61 85.5159 185.219C84.9856 184.827 84.2156 184.51 83.2057 184.266C82.5688 184.112 81.9187 184.013 81.2554 183.968C80.5729 183.934 80.0187 183.948 79.5928 184.01L80.2288 181.377C81.4401 181.127 83.0168 181.236 84.9588 181.705ZM85.8264 189.141L81.9347 188.201L81.839 188.597C81.7339 189.032 81.7874 189.423 81.9995 189.771C82.1961 190.114 82.6362 190.368 83.3197 190.533C84.081 190.717 84.6564 190.684 85.0459 190.432C85.4161 190.193 85.6763 189.762 85.8264 189.141Z" fill="white"/>
<path d="M74.7262 178.368C75.3858 178.655 75.9505 179.04 76.4202 179.523C76.8753 179.999 77.1631 180.56 77.2836 181.205C77.4041 181.85 77.2988 182.553 76.9675 183.315C76.4897 184.415 75.7537 185.106 74.7596 185.388C73.7591 185.685 72.5187 185.512 71.0382 184.869L68.3339 183.693L68.2478 183.891C68.0695 184.301 68.1074 184.675 68.3617 185.012C68.616 185.349 69.1683 185.703 70.0184 186.072C71.2204 186.595 72.4873 186.927 73.8192 187.071L72.7393 189.555C72.1225 189.531 71.3896 189.413 70.5407 189.201C69.6855 189.003 68.8475 188.726 68.0266 188.369C66.3703 187.65 65.2049 186.742 64.5306 185.647C63.8562 184.553 63.8376 183.272 64.4747 181.807L67.2651 175.387L70.8709 176.954L70.7057 177.875C71.2123 177.712 71.8002 177.663 72.4693 177.727C73.1238 177.785 73.8761 177.999 74.7262 178.368ZM72.2679 180.175C71.7988 179.971 71.368 179.88 70.9755 179.901C70.5683 179.915 70.2038 179.992 69.882 180.131L69.3181 181.429L71.3189 182.298C72.2277 182.693 72.8382 182.532 73.1504 181.813C73.4562 181.11 73.162 180.564 72.2679 180.175Z" fill="white"/>
<path d="M65.4963 174.223L59.5225 183.89L55.8312 181.609L56.2082 180.771C55.6711 180.758 55.0378 180.658 54.3083 180.47C53.5789 180.283 52.8889 180.016 52.2382 179.67L54.0027 176.815C54.3729 177.006 54.7898 177.198 55.2533 177.391C55.7032 177.575 56.1589 177.734 56.6204 177.869C57.0599 178.009 57.4466 178.098 57.7806 178.135L61.6623 171.854L65.4963 174.223Z" fill="white"/>
<path d="M54.6048 166.437C55.3611 167.052 56.0286 167.688 56.6073 168.344C57.1837 168.978 57.5985 169.532 57.8517 170.006L55.8093 172.516C55.5367 171.965 55.1483 171.391 54.644 170.796C54.1272 170.19 53.6581 169.716 53.2366 169.373C52.7902 169.01 52.4454 168.75 52.2021 168.593C51.9463 168.426 51.7428 168.436 51.5915 168.622C51.4201 168.832 51.4935 169.16 51.8119 169.604C52.1302 170.049 52.5136 170.629 52.9621 171.344C53.536 172.284 53.8649 173.108 53.949 173.815C54.0331 174.522 53.7776 175.242 53.1825 175.973C52.4664 176.853 51.5695 177.247 50.492 177.153C49.4043 177.072 48.1166 176.426 46.6288 175.216C46.0585 174.752 45.5049 174.229 44.968 173.648C44.4311 173.067 44.0345 172.58 43.7781 172.186L45.7752 169.731C46.016 170.195 46.3293 170.645 46.7151 171.083C47.0885 171.51 47.455 171.87 47.8146 172.163C48.2113 172.485 48.5798 172.754 48.92 172.969C49.2602 173.184 49.5009 173.205 49.6421 173.031C49.8035 172.833 49.7459 172.549 49.4694 172.18C49.1804 171.801 48.814 171.276 48.3702 170.606C47.8621 169.863 47.5179 169.222 47.3376 168.684C47.1449 168.136 47.1103 167.634 47.2339 167.178C47.345 166.712 47.6023 166.231 48.0058 165.735C48.732 164.843 49.6625 164.446 50.7974 164.545C51.9099 164.647 53.179 165.277 54.6048 166.437Z" fill="white"/>
<path d="M40.51 151.592C42.0213 153.655 42.6755 155.603 42.4727 157.435C42.2605 159.255 41.0327 160.987 38.7894 162.63C37.2422 163.764 35.8186 164.43 34.5185 164.63C33.2055 164.839 31.9915 164.629 30.8766 163.999C29.7392 163.366 28.67 162.366 27.6687 161C26.6675 159.633 26.0413 158.319 25.7902 157.056C25.5167 155.79 25.6775 154.563 26.2726 153.374C26.8549 152.195 27.9196 151.038 29.4667 149.905C31.7101 148.261 33.736 147.619 35.5445 147.978C37.353 148.338 39.0082 149.542 40.51 151.592ZM37.4157 153.859C36.7357 152.931 35.9866 152.449 35.1687 152.414C34.3284 152.376 33.3345 152.777 32.187 153.618C30.9622 154.515 30.2542 155.361 30.0631 156.155C29.8496 156.945 30.083 157.805 30.763 158.733C31.4431 159.661 32.1968 160.149 33.0243 160.197C33.8293 160.241 34.8443 159.814 36.0691 158.917C37.2166 158.076 37.9035 157.256 38.1298 156.456C38.3338 155.653 38.0958 154.787 37.4157 153.859Z" fill="white"/>
<path d="M34.6519 142.865L27.4731 146.466L28.1288 147.773L25.1502 149.267L24.4945 147.96L23.8302 148.293C22.6873 148.866 21.5796 149.011 20.5071 148.726C19.4203 148.449 18.5473 147.653 17.888 146.339C17.6086 145.782 17.4042 145.267 17.2749 144.796C17.1385 144.31 17.0521 143.835 17.0158 143.37L19.6302 142.059C19.6662 142.309 19.7166 142.552 19.7812 142.788C19.8387 143.009 19.9247 143.234 20.0394 143.463C20.2973 143.977 20.5693 144.288 20.8554 144.394C21.1343 144.487 21.4808 144.429 21.8951 144.222L22.4737 143.931L21.2699 141.531L24.3345 140.209L25.4524 142.437L32.6311 138.836L34.6519 142.865Z" fill="white"/>
<path d="M28.8532 129.744L13.8945 133.565L10.9986 122.23L14.3434 121.376L16.1237 128.344L18.5626 127.721L17.0019 121.612L20.3931 120.746L21.9538 126.855L24.3927 126.231L22.6124 119.263L25.9572 118.409L28.8532 129.744Z" fill="white"/>
<path d="M25.8476 117.485L19.733 113.581L14.5079 118.24L14.1111 113.365L16.3566 111.403L13.8212 109.805L13.4264 104.954L19.3343 108.683L24.7369 103.841L25.1376 108.764L22.7604 110.881L25.4489 112.587L25.8476 117.485Z" fill="white"/>
<path d="M30.0551 103.617L13.5902 102.022L13.9669 98.1326L14.8944 98.0057C14.5732 97.5089 14.3434 96.9808 14.2048 96.4215C14.052 95.8446 14.011 95.1904 14.0818 94.4586C14.2451 92.7723 14.8002 91.5174 15.7471 90.6938C16.6796 89.8528 18.1639 89.5309 20.2002 89.7281C22.2205 89.9238 23.7086 90.5577 24.6646 91.6297C25.6205 92.7018 26.0161 94.0889 25.8512 95.7911C25.7419 96.9206 25.4347 97.8543 24.9297 98.5922L30.4895 99.1306L30.0551 103.617ZM22.4712 96.6199C22.5344 95.9676 22.3522 95.4442 21.9248 95.0495C21.4974 94.6549 20.7984 94.4106 19.828 94.3166C18.8895 94.2257 18.237 94.3311 17.8705 94.6328C17.5057 94.9186 17.2909 95.3956 17.2262 96.0637C17.1614 96.7319 17.3272 97.3421 17.7233 97.8942L21.7321 98.2825C21.9477 98.0465 22.1155 97.8058 22.2356 97.5605C22.3557 97.3152 22.4342 97.0017 22.4712 96.6199Z" fill="white"/>
<path d="M28.534 82.6326C28.1745 83.9095 27.6485 84.9818 26.956 85.8495C26.2524 86.6975 25.3996 87.2793 24.3975 87.595C23.3998 87.8952 22.2778 87.87 21.0317 87.5192C19.2932 87.0298 18.0472 86.1478 17.2936 84.873C16.5246 83.5939 16.4151 81.9774 16.9651 80.0236C17.4674 78.239 18.3132 76.9744 19.5024 76.2299C20.6959 75.47 22.0773 75.311 23.6465 75.7527L25.5619 76.2919L23.4247 83.8842C24.0656 83.8487 24.5914 83.5734 25.0022 83.058C25.4129 82.5427 25.759 81.7851 26.0405 80.7851C26.218 80.1543 26.3417 79.5084 26.4116 78.8473C26.4704 78.1665 26.477 77.6121 26.4315 77.1842L29.0392 77.9182C29.2437 79.1381 29.0753 80.7095 28.534 82.6326ZM21.0709 83.2216L22.1557 79.3677L21.7634 79.2573C21.3326 79.136 20.9398 79.1749 20.5849 79.3739C20.2344 79.5575 19.9638 79.9877 19.7733 80.6646C19.5611 81.4185 19.5732 81.9947 19.8097 82.3934C20.0351 82.7723 20.4555 83.0484 21.0709 83.2216Z" fill="white"/>
<path d="M30.5648 75.7981L20.1762 71.1929L21.9347 67.2259L22.8161 67.4855C22.7556 66.9517 22.7688 66.3107 22.8557 65.5625C22.9426 64.8143 23.1131 64.0944 23.3672 63.4029L26.4356 64.7631C26.2964 65.1559 26.1629 65.595 26.0352 66.0803C25.9139 66.5511 25.8178 67.0242 25.7469 67.4997C25.6678 67.9542 25.6325 68.3494 25.6409 68.6853L32.3913 71.6777L30.5648 75.7981Z" fill="white"/>
<path d="M23.6055 60.538L20.7762 58.9176L23.1948 54.6945L26.0241 56.3148L23.6055 60.538ZM34.9557 66.624L27.9449 62.6088L27.1228 64.0443L24.4634 62.0791L27.3347 57.0655L37.1956 62.7129L34.9557 66.624Z" fill="white"/>
<path d="M41.9928 56.4024C41.1897 57.4583 40.3069 58.2626 39.3441 58.8155C38.3784 59.3461 37.3715 59.5742 36.3236 59.5C35.2853 59.4131 34.2509 58.9778 33.2205 58.194C31.783 57.1007 30.9478 55.8228 30.7147 54.3604C30.4689 52.8883 30.9604 51.3445 32.1892 49.7289C33.3116 48.2533 34.5625 47.3875 35.9419 47.1315C37.3311 46.8627 38.6744 47.2218 39.9719 48.2087L41.5557 49.4134L36.7808 55.6912C37.39 55.8935 37.9802 55.8303 38.5514 55.5017C39.1226 55.1732 39.7227 54.5954 40.3516 53.7686C40.7483 53.247 41.1004 52.6916 41.4081 52.1023C41.7127 51.4906 41.9223 50.9774 42.037 50.5626L44.1932 52.2026C43.9357 53.4124 43.2023 54.8123 41.9928 56.4024ZM34.8345 54.2108L37.2582 51.0242L36.9338 50.7775C36.5776 50.5066 36.198 50.3985 35.7948 50.4533C35.4014 50.4954 34.9918 50.7963 34.5661 51.3561C34.092 51.9794 33.8917 52.5199 33.9653 52.9775C34.0359 53.4127 34.3256 53.8238 34.8345 54.2108Z" fill="white"/>
<path d="M46.3892 50.582L38.6745 42.2385L41.7725 39.374L42.4464 39.9263C42.568 39.4221 42.8109 38.8491 43.1754 38.2074C43.5515 37.5549 44.0388 36.9519 44.6373 36.3985C45.6817 35.4328 46.6832 34.9857 47.6417 35.0572C48.6003 35.1286 49.5787 35.7042 50.577 36.7838L55.5248 42.1349L52.2156 45.1947L47.577 40.1781C47.2297 39.8025 46.898 39.6086 46.5818 39.5962C46.2656 39.5838 45.9022 39.7675 45.4915 40.1473C45.245 40.3752 45.0411 40.6725 44.8797 41.0395C44.7301 41.3955 44.649 41.7316 44.6367 42.0478L49.6984 47.5222L46.3892 50.582Z" fill="white"/>
<path d="M62.3977 37.9276C60.6749 39.0603 59.0449 39.5485 57.5077 39.3923C55.9618 39.2228 54.6444 38.3101 53.5557 36.6541C52.8182 35.5322 52.4417 34.4504 52.4262 33.4086C52.4107 32.3668 52.7095 31.3957 53.3226 30.4953C53.9269 29.5816 54.79 28.756 55.9118 28.0185C56.6196 27.5531 57.2891 27.1895 57.9202 26.9276C58.5426 26.6523 59.1865 26.4681 59.8521 26.3748L61.5905 29.0191C60.5567 29.1632 59.539 29.5644 58.5374 30.2229C57.6827 30.7849 57.1403 31.3709 56.9103 31.9812C56.6937 32.5827 56.8576 33.2974 57.4019 34.1254C57.9112 34.9 58.4869 35.3248 59.1292 35.3999C59.7715 35.4749 60.54 35.2183 61.4348 34.6301C61.9156 34.314 62.3479 33.9533 62.7317 33.5479C63.1067 33.1292 63.431 32.6769 63.7046 32.1911L65.522 34.9555C65.1638 35.5162 64.7216 36.0364 64.1954 36.5162C63.6914 37.0006 63.0922 37.4711 62.3977 37.9276Z" fill="white"/>
<path d="M72.997 32.3493C71.7862 32.8913 70.6259 33.1743 69.5159 33.1983C68.4141 33.2012 67.421 32.919 66.5367 32.3518C65.667 31.778 64.9677 30.9003 64.4388 29.7187C63.7009 28.0702 63.5801 26.5484 64.0762 25.1531C64.5658 23.7432 65.737 22.6237 67.5896 21.7944C69.2818 21.037 70.7946 20.8764 72.1281 21.3126C73.4761 21.7423 74.4832 22.7012 75.1492 24.1891L75.9621 26.0053L68.763 29.2277C69.2008 29.6972 69.7491 29.9245 70.4079 29.9098C71.0667 29.8951 71.8702 29.6755 72.8184 29.2511C73.4165 28.9834 73.9918 28.6646 74.5442 28.2948C75.1046 27.9038 75.5346 27.5538 75.834 27.2447L76.9407 29.7173C76.1351 30.6558 74.8205 31.5331 72.997 32.3493ZM67.764 26.9958L71.4183 25.3601L71.2517 24.9881C71.0689 24.5796 70.7874 24.3029 70.4073 24.1578C70.0418 24.0063 69.5381 24.0741 68.8962 24.3614C68.1814 24.6814 67.7467 25.0598 67.5921 25.4968C67.4455 25.9126 67.5028 26.4123 67.764 26.9958Z" fill="white"/>
<path d="M90.2821 20.5517L87.4348 19.2257L88.9081 17.0091L86.3154 16.4884L87.0916 13.5772L89.1523 14.2505L88.6077 12.2072L91.8786 11.57L92.1408 13.6683L93.7746 12.2754L95.5868 14.6823L93.3791 16.1382L95.5767 17.6396L93.4353 19.9374L91.437 18.0797L90.2821 20.5517Z" fill="white"/>
</svg>
