<svg width="120" height="120" viewBox="0 0 120 120" fill="none" xmlns="http://www.w3.org/2000/svg">
<rect width="120" height="120" rx="60" fill="#734BDF"/>
<path d="M63.154 17.8484L61.0742 10L62.7482 10.1518L64.3019 16.6433L66.9547 10.5331L68.6179 10.6839L65.1714 18.0313L63.154 17.8484Z" fill="white"/>
<path d="M68.3771 18.5508L69.5574 12.9966L71.0329 13.3101L69.8526 18.8644L68.3771 18.5508ZM70.4138 12.5947C70.1398 12.5365 69.9357 12.4087 69.8014 12.2112C69.6686 12.0068 69.6298 11.7746 69.685 11.5146C69.7433 11.2406 69.8781 11.0379 70.0896 10.9066C70.3011 10.7753 70.5404 10.738 70.8074 10.7947C71.0533 10.847 71.2461 10.9761 71.386 11.1821C71.5343 11.3825 71.5794 11.6197 71.5211 11.8937C71.4644 12.1607 71.3303 12.3599 71.1188 12.4912C70.9158 12.617 70.6808 12.6515 70.4138 12.5947Z" fill="white"/>
<path d="M73.3373 19.9347C72.7705 19.7496 72.3259 19.4797 72.0035 19.125C71.681 18.7703 71.4809 18.3536 71.403 17.8747C71.3274 17.3891 71.3799 16.8697 71.5605 16.3166C71.7434 15.7567 72.0121 15.3042 72.3667 14.959C72.7234 14.607 73.1389 14.3762 73.6129 14.2666C74.0939 14.1592 74.6075 14.1947 75.1537 14.3731C75.5634 14.5069 75.8996 14.6923 76.1622 14.9292C76.4317 15.1683 76.6322 15.4454 76.7636 15.7603C76.9018 16.0775 76.9686 16.4167 76.964 16.7779C76.9684 17.1345 76.9059 17.4995 76.7764 17.8728C76.7452 17.9684 76.7116 18.0595 76.6758 18.146C76.64 18.2326 76.5974 18.3169 76.5479 18.3989L72.8504 17.1913C72.804 17.4028 72.8007 17.6096 72.8405 17.8115C72.8804 18.0134 72.9689 18.1935 73.1062 18.3517C73.2525 18.5052 73.4554 18.6244 73.7149 18.7092C73.8856 18.7649 74.0482 18.7991 74.2027 18.8118C74.3595 18.8177 74.5025 18.7964 74.6317 18.7479C74.7608 18.6994 74.8638 18.6272 74.9404 18.5314L76.3539 18.993C76.1335 19.3669 75.8581 19.6434 75.5275 19.8226C75.2038 20.004 74.8511 20.1004 74.4696 20.1118C74.0902 20.1164 73.7128 20.0573 73.3373 19.9347ZM73.209 16.1976L75.5545 16.9637C75.6078 16.7771 75.6158 16.5908 75.5783 16.4047C75.5499 16.2141 75.466 16.0431 75.3265 15.8917C75.196 15.7358 75.0011 15.6154 74.7416 15.5307C74.4822 15.4459 74.2469 15.4258 74.0359 15.4702C73.8318 15.5169 73.6586 15.6077 73.5163 15.7426C73.383 15.8728 73.2806 16.0245 73.209 16.1976Z" fill="white"/>
<path d="M78.1349 21.6716L79.3125 15.8359L80.7558 16.6325L79.7697 20.6048L82.6614 17.6841L84.1425 18.5014L83.213 22.505L86.0292 19.5427L87.4537 20.3288L83.1441 24.4361L81.6253 23.5979L82.4881 19.6929L79.6537 22.5098L78.1349 21.6716Z" fill="white"/>
<path d="M89.7227 29.9547C89.3422 29.5834 89.0452 29.1782 88.8316 28.7388C88.6231 28.3045 88.5338 27.851 88.5636 27.3782C88.5985 26.9105 88.7859 26.4459 89.1257 25.9846L90.2515 27.0833C90.1272 27.3033 90.074 27.5274 90.0921 27.7558C90.1151 27.979 90.1889 28.1965 90.3134 28.4084C90.443 28.6252 90.6029 28.8264 90.7931 29.0121C90.9371 29.1525 91.096 29.2725 91.2699 29.372C91.4438 29.4715 91.6171 29.5202 91.7898 29.518C91.9676 29.521 92.1293 29.4479 92.2748 29.2988C92.3852 29.1857 92.4498 29.0681 92.4686 28.9459C92.4926 28.8288 92.4784 28.7045 92.426 28.5731C92.3837 28.4415 92.3159 28.2951 92.2225 28.1336C92.1446 27.9974 92.0566 27.8614 91.9585 27.7254C91.8654 27.5945 91.7774 27.4584 91.6944 27.3172C91.6166 27.181 91.5463 27.0421 91.4836 26.9007C91.3384 26.6586 91.211 26.4138 91.1013 26.1663C90.9966 25.9135 90.9301 25.6629 90.9017 25.4144C90.8782 25.1607 90.9107 24.9063 90.999 24.6512C91.0925 24.4012 91.2596 24.1528 91.5004 23.906C91.7613 23.6387 92.0258 23.4552 92.2938 23.3554C92.5669 23.2606 92.8357 23.2269 93.1002 23.2541C93.3748 23.2812 93.6373 23.3517 93.8876 23.4655C94.143 23.5843 94.3784 23.7236 94.5937 23.8836C94.809 24.0435 95.0014 24.2062 95.1711 24.3718C95.5258 24.718 95.7843 25.0907 95.9467 25.49C96.109 25.8893 96.1597 26.3002 96.0988 26.7225C96.038 27.1449 95.8372 27.5562 95.4967 27.9566L94.4249 26.9105C94.5548 26.7362 94.6212 26.5551 94.624 26.3671C94.6267 26.1792 94.5787 25.9918 94.48 25.805C94.3863 25.6233 94.2521 25.4472 94.0773 25.2766C93.9642 25.1662 93.8436 25.0686 93.7156 24.9838C93.5876 24.899 93.4573 24.8371 93.3248 24.7981C93.2024 24.759 93.0803 24.7503 92.9587 24.7721C92.8422 24.7989 92.7338 24.8637 92.6334 24.9666C92.5331 25.0694 92.4736 25.1869 92.4549 25.3192C92.4412 25.4464 92.4607 25.5909 92.5135 25.7528C92.5764 25.9146 92.6598 26.0914 92.7638 26.2831C92.8678 26.4851 92.9896 26.6842 93.1292 26.8806C93.2687 27.077 93.3905 27.2762 93.4946 27.4781C93.6398 27.7202 93.7621 27.9599 93.8615 28.1975C93.9659 28.4299 94.0297 28.6628 94.0528 28.8961C94.081 29.1244 94.0508 29.3559 93.9623 29.5906C93.8787 29.8202 93.7215 30.0533 93.4908 30.2897C93.1847 30.6033 92.8647 30.813 92.5307 30.9186C92.2069 31.0242 91.8796 31.0459 91.5486 30.9839C91.2228 30.9269 90.9039 30.8064 90.5918 30.6222C90.2797 30.4381 89.99 30.2156 89.7227 29.9547Z" fill="white"/>
<path d="M94.131 35.023C93.7841 34.5559 93.5816 34.0844 93.5235 33.6086C93.4697 33.1386 93.5516 32.6886 93.7691 32.2586C93.9924 31.8244 94.3405 31.4317 94.8134 31.0805C95.2921 30.725 95.7737 30.5061 96.2582 30.4236C96.7485 30.3368 97.2159 30.3879 97.6604 30.5768C98.1091 30.7714 98.5112 31.108 98.8667 31.5867C99.1408 31.9558 99.3186 32.3337 99.4001 32.7206C99.4815 33.1074 99.4625 33.4794 99.3431 33.8366C99.2278 34.1995 98.9993 34.5303 98.6574 34.8289L97.7773 33.6438C97.9406 33.4421 98.0127 33.2319 97.9936 33.0135C97.9788 32.8008 97.8965 32.5935 97.7466 32.3917C97.5539 32.1322 97.3363 31.9717 97.0938 31.9102C96.8555 31.8544 96.6127 31.8648 96.3652 31.9412C96.122 32.0234 95.9024 32.1373 95.7063 32.2829C95.493 32.4413 95.3168 32.6258 95.1779 32.8364C95.0448 33.0426 94.9733 33.2657 94.9636 33.5055C94.9639 33.7469 95.0561 33.9916 95.2402 34.2395C95.3944 34.4472 95.5754 34.5945 95.7833 34.6817C95.997 34.7646 96.2219 34.7542 96.458 34.6504L97.3574 35.8615C96.9611 36.111 96.5662 36.2298 96.1726 36.2179C95.779 36.206 95.4053 36.0943 95.0514 35.8829C94.7076 35.673 94.4008 35.3863 94.131 35.023Z" fill="white"/>
<path d="M96.3017 37.975L103.042 34.4023L103.748 35.7352L101.445 36.9563C101.693 37.0115 101.912 37.1026 102.102 37.2299C102.295 37.3635 102.459 37.5122 102.594 37.6761C102.74 37.843 102.854 38.0057 102.939 38.1644C103.187 38.634 103.278 39.0577 103.21 39.4352C103.142 39.8128 102.96 40.1529 102.665 40.4555C102.37 40.7582 102.01 41.0222 101.585 41.2476L98.8147 42.716L98.1082 41.3832L100.688 40.0157C100.841 39.9349 100.984 39.8383 101.12 39.7259C101.259 39.6197 101.373 39.4981 101.463 39.361C101.559 39.2206 101.612 39.0667 101.621 38.8994C101.636 38.7287 101.588 38.5387 101.477 38.3292C101.373 38.1325 101.242 37.9862 101.086 37.8903C100.929 37.7944 100.758 37.739 100.571 37.7241C100.394 37.7123 100.213 37.731 100.028 37.7804C99.8426 37.8298 99.6675 37.8982 99.5025 37.9857L97.0082 39.3078L96.3017 37.975Z" fill="white"/>
<path d="M100.074 46.3604C99.8792 45.7968 99.826 45.2794 99.9141 44.8083C100.002 44.3371 100.214 43.926 100.548 43.5748C100.89 43.2214 101.336 42.9497 101.886 42.7598C102.442 42.5676 102.965 42.5087 103.455 42.583C103.951 42.6549 104.385 42.8468 104.759 43.1586C105.135 43.4772 105.417 43.908 105.604 44.4512C105.745 44.8586 105.8 45.2386 105.77 45.591C105.742 45.9502 105.642 46.2773 105.47 46.5721C105.301 46.8738 105.07 47.1318 104.78 47.3462C104.498 47.565 104.169 47.7354 103.794 47.8575C103.699 47.8904 103.606 47.9186 103.515 47.9423C103.424 47.966 103.332 47.9829 103.236 47.993L101.967 44.3162C101.77 44.4069 101.603 44.5291 101.467 44.6827C101.33 44.8364 101.24 45.0157 101.196 45.2206C101.162 45.4299 101.19 45.6636 101.279 45.9216C101.337 46.0914 101.408 46.2417 101.491 46.3726C101.581 46.5011 101.685 46.6022 101.801 46.6759C101.918 46.7496 102.038 46.7881 102.16 46.7914L102.645 48.1969C102.214 48.2469 101.828 48.1942 101.485 48.0389C101.145 47.8903 100.855 47.6673 100.616 47.37C100.383 47.0704 100.203 46.7338 100.074 46.3604ZM102.976 44.0022L103.781 46.3345C103.962 46.2645 104.115 46.1583 104.241 46.0162C104.376 45.8784 104.461 45.7083 104.498 45.5057C104.543 45.3076 104.522 45.0795 104.433 44.8215C104.343 44.5635 104.218 44.3638 104.055 44.2224C103.894 44.0878 103.717 44.0045 103.524 43.9725C103.34 43.9449 103.157 43.9548 102.976 44.0022Z" fill="white"/>
<path d="M101.637 52.322C101.537 51.7562 101.581 51.2633 101.77 50.8433C101.966 50.4292 102.264 50.092 102.663 49.8317C103.069 49.5702 103.537 49.3925 104.068 49.2986C104.626 49.1997 105.139 49.2111 105.606 49.3328C106.079 49.4532 106.474 49.686 106.791 50.0313C107.107 50.3765 107.316 50.8391 107.419 51.4191C107.454 51.6171 107.464 51.816 107.448 52.0158C107.441 52.2213 107.405 52.4136 107.342 52.5925C107.287 52.7773 107.2 52.9424 107.08 53.0876L109.52 52.6557L109.783 54.1411L102.271 55.4706L102.016 54.0277L102.638 53.8957C102.453 53.7972 102.291 53.6653 102.152 53.5002C102.022 53.3409 101.914 53.1631 101.828 52.9667C101.742 52.7703 101.679 52.5555 101.637 52.322ZM103.027 52.3825C103.083 52.7008 103.203 52.9458 103.387 53.1176C103.571 53.2964 103.789 53.4147 104.04 53.4724C104.291 53.5301 104.551 53.5352 104.82 53.4876C105.096 53.4388 105.338 53.3448 105.547 53.2058C105.764 53.0725 105.922 52.8914 106.02 52.6625C106.126 52.4394 106.151 52.1652 106.093 51.8398C106.035 51.5144 105.915 51.2659 105.731 51.0941C105.548 50.9224 105.328 50.8153 105.073 50.773C104.825 50.7365 104.567 50.742 104.299 50.7896C104.101 50.8247 103.913 50.8797 103.737 50.9547C103.569 51.0355 103.424 51.1415 103.301 51.2726C103.178 51.4037 103.089 51.5617 103.035 51.7465C102.987 51.93 102.984 52.142 103.027 52.3825Z" fill="white"/>
<path d="M102.335 59.2744C102.319 58.4413 102.518 57.7944 102.933 57.3337C103.355 56.8801 103.997 56.6449 104.859 56.6281L108.037 56.5664L108.066 58.0746L104.996 58.1342C104.738 58.1392 104.509 58.1796 104.309 58.2553C104.116 58.3381 103.964 58.4596 103.852 58.6198C103.741 58.7872 103.687 59.0002 103.692 59.2588C103.698 59.5389 103.763 59.7531 103.888 59.9016C104.013 60.05 104.177 60.151 104.379 60.2046C104.588 60.258 104.808 60.2825 105.038 60.278L108.108 60.2184L108.137 61.7158L104.959 61.7775C104.061 61.7949 103.403 61.5814 102.985 61.1369C102.567 60.6996 102.351 60.0787 102.335 59.2744Z" fill="white"/>
<path d="M102.31 63.1348L109.91 63.7891L109.781 65.292L102.18 64.6377L102.31 63.1348Z" fill="white"/>
<path d="M101.559 68.1749C101.672 67.5895 101.884 67.1146 102.195 66.7503C102.507 66.386 102.895 66.1353 103.361 65.9981C103.833 65.8623 104.355 65.8494 104.926 65.9593C105.505 66.0707 105.987 66.2807 106.374 66.5892C106.768 66.8991 107.049 67.2824 107.217 67.7391C107.384 68.2027 107.413 68.7167 107.304 69.281C107.223 69.7042 107.081 70.061 106.879 70.3512C106.675 70.6485 106.425 70.8821 106.129 71.0519C105.832 71.2287 105.504 71.3374 105.145 71.378C104.792 71.4271 104.422 71.4107 104.035 71.329C103.936 71.3099 103.842 71.2881 103.752 71.2634C103.661 71.2387 103.572 71.2069 103.485 71.1681L104.22 67.3486C104.004 67.329 103.799 67.3516 103.603 67.4164C103.408 67.4812 103.24 67.5916 103.101 67.7475C102.967 67.9119 102.874 68.1281 102.822 68.3962C102.788 68.5725 102.775 68.7381 102.781 68.8931C102.795 69.0493 102.834 69.1885 102.899 69.3106C102.963 69.4327 103.047 69.5258 103.152 69.5898L102.871 71.0499C102.472 70.8781 102.164 70.6394 101.944 70.3339C101.724 70.0354 101.584 69.6976 101.525 69.3205C101.473 68.9447 101.484 68.5629 101.559 68.1749ZM105.251 67.5799L104.784 70.0028C104.976 70.0325 105.162 70.017 105.342 69.9566C105.527 69.9045 105.687 69.7998 105.819 69.6425C105.958 69.4936 106.053 69.2851 106.104 69.0171C106.156 68.749 106.146 68.5131 106.076 68.3094C106.004 68.1127 105.892 67.9522 105.741 67.8279C105.595 67.712 105.431 67.6293 105.251 67.5799Z" fill="white"/>
<path d="M103.234 77.6668L104.323 77.0113L104.768 77.9898L105.372 77.0976L106.338 77.9192L105.543 78.6507L106.578 78.941L106.086 80.1249L105.15 79.5959L105.196 80.665L103.928 80.5697L104.135 79.512L103.131 79.8765L102.828 78.6417L103.892 78.5242L103.234 77.6668Z" fill="white"/>
<path d="M95.7453 82.8706L103.63 84.8086L102.694 86.2049L96.2524 84.4557L100.343 89.7134L99.4127 91.1007L94.6175 84.5533L95.7453 82.8706Z" fill="white"/>
<path d="M92.6001 87.1473L96.9073 90.8474L95.9243 91.9917L91.6172 88.2915L92.6001 87.1473ZM96.849 91.7917C97.0315 91.5792 97.2417 91.4614 97.4793 91.4383C97.7224 91.4198 97.9448 91.4972 98.1464 91.6704C98.3589 91.853 98.472 92.0685 98.4857 92.3171C98.4995 92.5656 98.4174 92.7934 98.2396 93.0005C98.0757 93.1912 97.8699 93.2985 97.6221 93.3223C97.3751 93.3564 97.1454 93.2821 96.9329 93.0995C96.7258 92.9217 96.6154 92.7084 96.6017 92.4599C96.5887 92.2215 96.6711 91.9987 96.849 91.7917Z" fill="white"/>
<path d="M89.0273 90.8175C89.4608 90.4081 89.9104 90.1466 90.3761 90.0329C90.8417 89.9193 91.3035 89.9427 91.7613 90.1031C92.224 90.2688 92.6551 90.5632 93.0546 90.9863C93.459 91.4145 93.728 91.8668 93.8617 92.3432C94.0003 92.8249 94.0045 93.3001 93.8742 93.7689C93.7387 94.2427 93.462 94.6768 93.0442 95.0714C92.7308 95.3673 92.4073 95.5739 92.0736 95.6914C91.7348 95.8138 91.3956 95.8575 91.0562 95.8223C90.7115 95.7921 90.3816 95.6887 90.0666 95.5119C89.7512 95.3454 89.4605 95.116 89.1945 94.8238C89.1255 94.7507 89.0615 94.6777 89.0026 94.6049C88.9437 94.5321 88.8901 94.4543 88.8416 94.3716L91.6697 91.7011C91.5061 91.5593 91.3261 91.4575 91.1297 91.396C90.9333 91.3345 90.7328 91.3262 90.5283 91.3712C90.3234 91.4263 90.1218 91.5475 89.9233 91.7349C89.7927 91.8582 89.685 91.9847 89.5999 92.1144C89.5198 92.2493 89.4702 92.3851 89.4511 92.5217C89.4319 92.6583 89.4461 92.7832 89.4937 92.8964L88.4126 93.9173C88.1895 93.545 88.0783 93.1709 88.0789 92.7949C88.0743 92.4238 88.1582 92.068 88.3305 91.7274C88.5078 91.392 88.7401 91.0887 89.0273 90.8175ZM92.3712 92.4911L90.5772 94.1851C90.7156 94.3212 90.8754 94.4172 91.0567 94.4732C91.2378 94.5394 91.4281 94.5474 91.6277 94.4972C91.827 94.4572 92.0259 94.3435 92.2244 94.1561C92.4228 93.9687 92.553 93.7717 92.6148 93.5651C92.6714 93.3635 92.6744 93.168 92.624 92.9785C92.5732 92.7992 92.489 92.6367 92.3712 92.4911Z" fill="white"/>
<path d="M85.21 94.2111L89.7793 98.0273L88.3912 98.9167L85.3689 96.1567L86.5586 100.091L85.1342 101.003L82.0575 98.2783L83.3197 102.166L81.9498 103.044L80.3926 97.2976L81.8532 96.3617L84.8751 98.9812L83.7494 95.1469L85.21 94.2111Z" fill="white"/>
<path d="M72.4048 100.441C72.9128 100.284 73.4108 100.217 73.8988 100.24C74.3799 100.264 74.8209 100.403 75.2219 100.655C75.616 100.909 75.9344 101.296 76.1771 101.815L74.6737 102.278C74.54 102.064 74.3686 101.91 74.1594 101.817C73.9523 101.73 73.726 101.691 73.4804 101.699C73.228 101.709 72.9748 101.754 72.7208 101.832C72.5286 101.891 72.3472 101.973 72.1767 102.078C72.0062 102.184 71.8805 102.313 71.7998 102.465C71.7122 102.62 71.6991 102.797 71.7605 102.996C71.807 103.147 71.8794 103.26 71.9777 103.335C72.0691 103.412 72.185 103.459 72.3255 103.476C72.4612 103.502 72.6223 103.512 72.8088 103.507C72.9656 103.504 73.1272 103.492 73.2935 103.471C73.453 103.451 73.6146 103.439 73.7783 103.434C73.9352 103.431 74.0907 103.435 74.2449 103.448C74.5269 103.436 74.8029 103.441 75.0728 103.463C75.3448 103.492 75.5967 103.554 75.8286 103.648C76.0626 103.748 76.2705 103.898 76.4523 104.098C76.6272 104.3 76.7654 104.565 76.867 104.895C76.977 105.252 77.0117 105.572 76.9712 105.855C76.9238 106.14 76.8249 106.392 76.6745 106.611C76.5193 106.84 76.332 107.036 76.1123 107.202C75.8859 107.369 75.6509 107.509 75.4075 107.622C75.1641 107.735 74.9291 107.826 74.7026 107.896C74.229 108.042 73.778 108.091 73.3496 108.042C72.9213 107.994 72.5362 107.842 72.1944 107.586C71.8526 107.331 71.5873 106.958 71.3985 106.467L72.8298 106.026C72.9207 106.224 73.0481 106.369 73.2118 106.461C73.3756 106.553 73.5631 106.601 73.7743 106.603C73.9787 106.608 74.1976 106.574 74.431 106.502C74.582 106.456 74.7254 106.397 74.8611 106.325C74.9968 106.253 75.1134 106.168 75.2111 106.07C75.304 105.982 75.37 105.879 75.409 105.761C75.4411 105.646 75.4361 105.52 75.3937 105.383C75.3514 105.245 75.2766 105.137 75.1694 105.057C75.0643 104.984 74.928 104.932 74.7606 104.901C74.5884 104.879 74.3932 104.868 74.1751 104.867C73.948 104.862 73.7149 104.874 73.4757 104.903C73.2364 104.931 73.0033 104.943 72.7762 104.938C72.4942 104.95 72.2251 104.942 71.9689 104.916C71.7149 104.897 71.4799 104.841 71.2638 104.75C71.0499 104.666 70.861 104.528 70.6972 104.338C70.5355 104.155 70.406 103.906 70.3087 103.59C70.1796 103.171 70.1485 102.79 70.2154 102.446C70.2776 102.111 70.415 101.813 70.6277 101.552C70.8336 101.294 71.092 101.071 71.4029 100.885C71.7139 100.699 72.0479 100.551 72.4048 100.441Z" fill="white"/>
<path d="M65.8468 101.883C66.4231 101.803 66.9339 101.851 67.3793 102.028C67.8175 102.207 68.1731 102.494 68.4461 102.891C68.72 103.296 68.8977 103.79 68.979 104.373C69.0613 104.963 69.0225 105.491 68.8625 105.956C68.7034 106.428 68.4344 106.813 68.0555 107.113C67.6695 107.413 67.1813 107.604 66.5908 107.687C66.1355 107.75 65.7185 107.725 65.34 107.611C64.9615 107.497 64.6442 107.302 64.3881 107.026C64.1249 106.75 63.9442 106.391 63.8462 105.948L65.3082 105.744C65.4069 105.984 65.5567 106.148 65.7576 106.236C65.9513 106.325 66.1727 106.353 66.4217 106.318C66.7418 106.273 66.987 106.159 67.1573 105.976C67.3204 105.794 67.4278 105.576 67.4795 105.322C67.524 105.069 67.5294 104.822 67.4957 104.58C67.459 104.316 67.3816 104.073 67.2635 103.851C67.1463 103.635 66.9849 103.465 66.7791 103.342C66.5671 103.226 66.3082 103.19 66.0023 103.232C65.7462 103.268 65.53 103.356 65.3538 103.497C65.1786 103.644 65.0799 103.847 65.0577 104.104L63.5637 104.312C63.5348 103.845 63.6199 103.441 63.8192 103.101C64.0184 102.762 64.2956 102.487 64.6509 102.278C65 102.077 65.3986 101.946 65.8468 101.883Z" fill="white"/>
<path d="M62.1642 102.372L62.0674 110L60.559 109.981L60.5921 107.374C60.4245 107.565 60.2394 107.714 60.0369 107.819C59.8273 107.924 59.618 107.997 59.4092 108.037C59.193 108.085 58.9952 108.108 58.8156 108.105C58.2841 108.099 57.869 107.975 57.5704 107.734C57.2717 107.493 57.0603 107.171 56.9361 106.767C56.8119 106.363 56.7529 105.92 56.759 105.439L56.7988 102.304L58.3071 102.323L58.2701 105.243C58.2679 105.415 58.2837 105.588 58.3174 105.761C58.3439 105.933 58.3958 106.092 58.473 106.237C58.5501 106.389 58.6599 106.509 58.8025 106.597C58.9449 106.692 59.1347 106.741 59.3717 106.744C59.5944 106.747 59.7853 106.702 59.9445 106.611C60.1037 106.52 60.2346 106.396 60.3371 106.239C60.4324 106.089 60.5028 105.921 60.5483 105.735C60.5937 105.549 60.6176 105.362 60.62 105.176L60.6558 102.353L62.1642 102.372Z" fill="white"/>
<path d="M52.9778 101.663C53.5657 101.762 54.0455 101.962 54.4171 102.265C54.7888 102.568 55.0487 102.95 55.1969 103.412C55.3439 103.881 55.3693 104.402 55.2729 104.976C55.1754 105.557 54.977 106.045 54.6777 106.439C54.3773 106.84 54.0008 107.13 53.5483 107.309C53.0887 107.487 52.5756 107.528 52.0088 107.433C51.5838 107.361 51.2238 107.228 50.9288 107.033C50.6267 106.836 50.3873 106.592 50.2105 106.3C50.0267 106.007 49.9102 105.682 49.861 105.324C49.8036 104.972 49.8111 104.602 49.8836 104.213C49.9003 104.114 49.9199 104.019 49.9424 103.928C49.965 103.837 49.9946 103.748 50.0313 103.659L53.8673 104.303C53.8817 104.087 53.8542 103.882 53.7848 103.688C53.7154 103.495 53.601 103.33 53.4418 103.194C53.2742 103.064 53.0559 102.976 52.7867 102.931C52.6096 102.901 52.4437 102.891 52.289 102.902C52.1331 102.919 51.9948 102.962 51.8743 103.029C51.7538 103.096 51.6627 103.183 51.6012 103.289L50.1348 103.043C50.2971 102.64 50.5283 102.326 50.8286 102.099C51.1217 101.872 51.4561 101.724 51.8317 101.656C52.2061 101.595 52.5881 101.597 52.9778 101.663ZM53.6605 105.339L51.2272 104.931C51.2022 105.123 51.222 105.308 51.2867 105.487C51.3432 105.671 51.4517 105.828 51.6121 105.957C51.7643 106.091 51.975 106.182 52.2441 106.227C52.5133 106.272 52.7489 106.257 52.951 106.182C53.1459 106.105 53.3037 105.989 53.4244 105.835C53.5367 105.686 53.6155 105.521 53.6605 105.339Z" fill="white"/>
<path d="M46.9983 100.189C47.5432 100.371 47.955 100.646 48.2337 101.012C48.5034 101.383 48.6571 101.805 48.6949 102.28C48.7305 102.762 48.6626 103.258 48.4914 103.769C48.311 104.307 48.0558 104.752 47.7258 105.103C47.3936 105.461 47.0002 105.697 46.5457 105.81C46.0912 105.923 45.5847 105.885 45.0262 105.698C44.8355 105.634 44.6562 105.548 44.4883 105.438C44.3113 105.333 44.1593 105.211 44.0324 105.07C43.8963 104.933 43.7932 104.777 43.7231 104.602L42.9354 106.952L41.5052 106.472L43.93 99.2395L45.3194 99.7053L45.1377 100.315C45.3128 100.199 45.506 100.12 45.7174 100.077C45.9196 100.039 46.1275 100.029 46.341 100.048C46.5544 100.066 46.7736 100.113 46.9983 100.189ZM46.2807 101.38C45.9743 101.277 45.7017 101.265 45.463 101.344C45.2176 101.421 45.0095 101.556 44.8388 101.749C44.6681 101.942 44.5394 102.167 44.4526 102.426C44.3636 102.692 44.3302 102.95 44.3525 103.199C44.3657 103.454 44.4493 103.679 44.6035 103.875C44.7485 104.075 44.9777 104.227 45.2909 104.332C45.6042 104.437 45.8802 104.45 46.1188 104.371C46.3575 104.292 46.5565 104.15 46.7159 103.946C46.8661 103.747 46.9846 103.517 47.0714 103.259C47.1353 103.068 47.1765 102.877 47.195 102.686C47.2045 102.5 47.1809 102.322 47.1244 102.151C47.0679 101.981 46.9716 101.827 46.8356 101.691C46.6972 101.561 46.5123 101.458 46.2807 101.38Z" fill="white"/>
<path d="M40.5686 97.4788C41.3074 97.8641 41.7795 98.3492 41.9849 98.9342C42.1805 99.5223 42.079 100.199 41.6805 100.963L40.2109 103.781L38.8734 103.084L40.2931 100.361C40.4127 100.132 40.4871 99.9112 40.5164 99.6997C40.536 99.4912 40.5023 99.2994 40.4153 99.1244C40.322 98.9462 40.1607 98.7972 39.9314 98.6777C39.683 98.5481 39.4637 98.5027 39.2734 98.5412C39.0832 98.5797 38.9161 98.6749 38.7722 98.8267C38.6249 98.9848 38.4982 99.1658 38.3919 99.3696L36.9721 102.092L35.6441 101.4L37.1137 98.5816C37.5288 97.7854 38.0317 97.3104 38.6223 97.1566C39.2065 96.9995 39.8552 97.1069 40.5686 97.4788Z" fill="white"/>
<path d="M37.2517 95.6362L33.0332 101.992L31.7764 101.158L35.9948 94.802L37.2517 95.6362Z" fill="white"/>
<path d="M33.161 92.5424C33.6206 92.9222 33.9354 93.3362 34.1056 93.7843C34.2757 94.2324 34.3093 94.6935 34.2064 95.1676C34.0989 95.6472 33.8598 96.1113 33.4892 96.5598C33.1139 97.0138 32.6982 97.3365 32.2418 97.5278C31.7809 97.7246 31.3098 97.7873 30.8285 97.7156C30.3417 97.6395 29.8768 97.4183 29.4338 97.0522C29.1016 96.7777 28.8567 96.4821 28.6991 96.1654C28.5359 95.8442 28.4508 95.5129 28.4439 95.1718C28.4315 94.826 28.4936 94.4859 28.6302 94.1515C28.7566 93.818 28.9485 93.5013 29.2057 93.2014C29.2698 93.1239 29.3343 93.0514 29.3993 92.984C29.4644 92.9166 29.5349 92.8538 29.611 92.7955L32.6093 95.2734C32.73 95.0936 32.8087 94.9024 32.8456 94.7C32.8825 94.4975 32.8661 94.2975 32.7963 94.1C32.7164 93.9035 32.5712 93.7183 32.3608 93.5445C32.2224 93.4301 32.0836 93.3387 31.9444 93.2702C31.8007 93.2074 31.6599 93.1748 31.5219 93.1726C31.3839 93.1704 31.2617 93.1999 31.1553 93.261L30.0091 92.3138C30.3511 92.0466 30.7087 91.8902 31.0819 91.8445C31.4496 91.7943 31.8131 91.8337 32.1723 91.9629C32.5269 92.0975 32.8565 92.2907 33.161 92.5424ZM31.9117 96.0668L30.0098 94.4949C29.8917 94.649 29.8161 94.8194 29.7828 95.0063C29.7394 95.1941 29.7549 95.3839 29.8293 95.5759C29.8935 95.7687 30.0309 95.9521 30.2413 96.126C30.4517 96.2999 30.6632 96.4048 30.8758 96.4407C31.0828 96.4721 31.2773 96.451 31.4591 96.3776C31.6308 96.3052 31.7816 96.2016 31.9117 96.0668Z" fill="white"/>
<path d="M24.033 89.4751L24.0888 90.7453L23.0166 90.669L23.5119 91.6261L22.3291 92.082L22.0657 91.0347L21.3167 91.8052L20.5115 90.8073L21.4229 90.2381L20.4618 89.7676L21.1506 88.6995L21.9814 89.386L22.1403 88.3303L23.37 88.6533L22.9652 89.6444L24.033 89.4751Z" fill="white"/>
<path d="M23.0364 80.4224L17.5742 86.4297L16.7929 84.9414L21.4012 80.1126L14.8296 81.2018L14.0533 79.7231L22.0948 78.6289L23.0364 80.4224Z" fill="white"/>
<path d="M20.7783 75.6184L15.4704 77.6355L14.9345 76.2254L20.2425 74.2083L20.7783 75.6184ZM14.6686 77.1333C14.7681 77.3952 14.7713 77.636 14.6781 77.8559C14.5782 78.0783 14.404 78.2367 14.1556 78.3311C13.8937 78.4306 13.6503 78.427 13.4253 78.3204C13.2004 78.2138 13.0394 78.0329 12.9425 77.7777C12.8532 77.5427 12.8572 77.3106 12.9546 77.0815C13.0427 76.8483 13.2176 76.6819 13.4795 76.5824C13.7347 76.4854 13.9747 76.4902 14.1997 76.5969C14.4153 76.6993 14.5717 76.8781 14.6686 77.1333Z" fill="white"/>
<path d="M19.2613 70.7245C19.4131 71.3011 19.4274 71.821 19.3042 72.2843C19.1811 72.7475 18.9394 73.1417 18.5793 73.4667C18.2123 73.7936 17.7474 74.0311 17.1848 74.1792C16.6151 74.3292 16.0892 74.3488 15.607 74.2381C15.1178 74.1292 14.6986 73.9053 14.3494 73.5664C13.9983 73.2205 13.7497 72.7698 13.6034 72.214C13.4937 71.7973 13.4671 71.4143 13.5238 71.0651C13.5786 70.709 13.7027 70.3904 13.896 70.1092C14.0876 69.8211 14.3364 69.581 14.6424 69.389C14.9396 69.1919 15.2802 69.0466 15.664 68.9529C15.7613 68.9273 15.856 68.9061 15.9481 68.8893C16.0403 68.8725 16.1342 68.8626 16.23 68.8597L17.2203 72.6212C17.4232 72.5455 17.5987 72.4361 17.7467 72.2932C17.8948 72.1502 17.998 71.9782 18.0565 71.7771C18.1062 71.5709 18.0963 71.3358 18.0268 71.0718C17.9811 70.8982 17.9217 70.743 17.8486 70.6062C17.7685 70.4713 17.673 70.3627 17.5623 70.2805C17.4515 70.1982 17.335 70.1509 17.2129 70.1385L16.8344 68.7006C17.268 68.683 17.6497 68.7645 17.9795 68.945C18.3075 69.1187 18.5797 69.3627 18.7961 69.6771C19.0057 69.9933 19.1607 70.3425 19.2613 70.7245ZM16.1909 72.8587L15.5627 70.4726C15.377 70.5289 15.2161 70.6233 15.0802 70.7557C14.9354 70.8829 14.8372 71.0462 14.7857 71.2454C14.7254 71.4396 14.73 71.6686 14.7995 71.9326C14.869 72.1966 14.9796 72.4051 15.1313 72.5583C15.2812 72.7045 15.4514 72.8009 15.6419 72.8473C15.8236 72.8886 16.0066 72.8924 16.1909 72.8587Z" fill="white"/>
<path d="M18.1181 65.7578L12.5781 67.9375L12.4633 66.293L16.3345 64.9643L12.3118 64.1217L12.194 62.4342L16.0607 61.041L12.0439 60.2845L11.9307 58.6615L17.7197 60.0503L17.8405 61.7809L14.0928 63.1766L17.9973 64.0273L18.1181 65.7578Z" fill="white"/>
<path d="M18.78 51.4776C18.6748 51.9986 18.4957 52.4681 18.2428 52.886C17.9912 53.2969 17.6589 53.6182 17.2457 53.8498C16.8339 54.0745 16.3421 54.1694 15.7702 54.1345L16.0816 52.5925C16.3338 52.5775 16.5509 52.5004 16.7329 52.3613C16.9078 52.2207 17.0504 52.0407 17.1607 51.8211C17.2724 51.5945 17.3546 51.3509 17.4072 51.0904C17.447 50.8933 17.4614 50.6947 17.4505 50.4946C17.4396 50.2946 17.3864 50.1226 17.2909 49.9787C17.1968 49.8278 17.0476 49.7317 16.8435 49.6905C16.6886 49.6592 16.5547 49.6688 16.4419 49.7193C16.3305 49.7628 16.2339 49.8422 16.152 49.9576C16.0644 50.0645 15.9783 50.201 15.8934 50.3671C15.8213 50.5064 15.7548 50.6542 15.694 50.8104C15.6345 50.9597 15.568 51.1075 15.4945 51.2538C15.4224 51.3932 15.344 51.5275 15.2592 51.657C15.1348 51.9103 14.9984 52.1503 14.8501 52.3768C14.6947 52.6019 14.5203 52.7939 14.3271 52.9527C14.1267 53.1101 13.8955 53.221 13.6333 53.2853C13.3726 53.3426 13.0733 53.3371 12.7353 53.2689C12.3692 53.1949 12.0714 53.0725 11.8421 52.9016C11.6142 52.7237 11.4399 52.5163 11.3192 52.2794C11.1929 52.0341 11.1096 51.7754 11.0692 51.5034C11.0303 51.2244 11.0195 50.9511 11.0369 50.6835C11.0543 50.4159 11.0865 50.1659 11.1334 49.9335C11.2315 49.4477 11.4041 49.0282 11.6513 48.6751C11.8985 48.3219 12.216 48.0563 12.6037 47.8781C12.9914 47.6999 13.4458 47.6451 13.967 47.7137L13.6705 49.1817C13.4536 49.1672 13.2654 49.2099 13.1061 49.3096C12.9467 49.4093 12.8154 49.5513 12.7123 49.7357C12.6105 49.913 12.5354 50.1214 12.4871 50.3608C12.4558 50.5157 12.4393 50.6699 12.4376 50.8234C12.436 50.977 12.4547 51.12 12.4939 51.2525C12.5275 51.3765 12.5865 51.4837 12.6708 51.574C12.7566 51.6573 12.8699 51.7132 13.0107 51.7416C13.1515 51.77 13.2826 51.7562 13.4038 51.7001C13.518 51.6425 13.6288 51.5476 13.7361 51.4154C13.8378 51.2747 13.9409 51.1087 14.0455 50.9173C14.1586 50.7203 14.2597 50.5098 14.3489 50.286C14.4381 50.0622 14.5392 49.8518 14.6522 49.6548C14.7767 49.4014 14.9116 49.1685 15.0571 48.9561C15.1956 48.7422 15.3565 48.5622 15.5399 48.416C15.7163 48.2684 15.9271 48.1681 16.1723 48.115C16.4105 48.0605 16.6915 48.066 17.0154 48.1314C17.4449 48.2181 17.7947 48.373 18.0647 48.5961C18.3292 48.8107 18.5252 49.0738 18.6528 49.3853C18.7819 49.6899 18.8538 50.0232 18.8686 50.3852C18.8835 50.7473 18.8539 51.1114 18.78 51.4776Z" fill="white"/>
<path d="M20.6556 45.0063C20.4504 45.5507 20.1634 45.976 19.7946 46.2822C19.4283 46.5817 19.0056 46.7563 18.5263 46.8059C18.0403 46.853 17.5217 46.7726 16.9705 46.5649C16.4126 46.3545 15.968 46.0679 15.6365 45.705C15.2983 45.3395 15.0885 44.9188 15.0069 44.4428C14.9279 43.9601 14.9935 43.4398 15.2038 42.8819C15.366 42.4518 15.5877 42.0978 15.869 41.82C16.1503 41.5422 16.4734 41.3569 16.8385 41.2643C17.2061 41.1649 17.6079 41.1782 18.044 41.3042L17.5233 42.6854C17.2653 42.6572 17.0495 42.7103 16.8761 42.8445C16.7052 42.972 16.5754 43.1533 16.4867 43.3886C16.3727 43.6911 16.3554 43.9609 16.4349 44.1981C16.5169 44.4286 16.6569 44.6273 16.855 44.7941C17.0557 44.9542 17.2703 45.0773 17.4988 45.1634C17.7475 45.2572 17.998 45.3056 18.2502 45.3085C18.4957 45.3089 18.7219 45.2484 18.929 45.1268C19.1318 44.996 19.2877 44.7861 19.3967 44.4971C19.4879 44.2551 19.5139 44.0231 19.4748 43.8011C19.4289 43.5766 19.2985 43.3931 19.0836 43.2506L19.6157 41.8391C20.0399 42.0374 20.3534 42.3053 20.5563 42.6428C20.7592 42.9803 20.8674 43.355 20.881 43.767C20.8904 44.1697 20.8152 44.5828 20.6556 45.0063Z" fill="white"/>
<path d="M21.9694 41.5789L15.3223 37.8359L16.0624 36.5215L18.3344 37.8009C18.2465 37.5618 18.2049 37.3282 18.2097 37.1C18.2181 36.8657 18.2546 36.6471 18.3192 36.4445C18.3811 36.232 18.4561 36.0476 18.5443 35.8911C18.8051 35.4279 19.1128 35.123 19.4673 34.9765C19.8219 34.8299 20.2062 34.799 20.6201 34.8837C21.0341 34.9684 21.4507 35.1288 21.8701 35.3649L24.6022 36.9033L23.862 38.2177L21.3177 36.7851C21.1675 36.7005 21.0085 36.6315 20.8406 36.5782C20.6763 36.5187 20.5122 36.4881 20.3482 36.4865C20.178 36.4813 20.0201 36.5202 19.8745 36.6031C19.7227 36.6824 19.5886 36.8254 19.4723 37.0319C19.363 37.226 19.3103 37.4147 19.3141 37.5983C19.318 37.7818 19.3641 37.9561 19.4524 38.1213C19.538 38.2767 19.6517 38.4189 19.7932 38.5481C19.9348 38.6773 20.087 38.7877 20.2497 38.8794L22.7096 40.2645L21.9694 41.5789Z" fill="white"/>
<path d="M26.9863 33.8769C26.6176 34.3454 26.2113 34.6701 25.7674 34.8509C25.3235 35.0317 24.8633 35.0763 24.3869 34.9848C23.9048 34.8888 23.4352 34.6609 22.978 34.3011C22.5151 33.9369 22.1825 33.5289 21.9803 33.0773C21.7725 32.6213 21.6986 32.1518 21.7587 31.6689C21.8232 31.1804 22.0331 30.7104 22.3885 30.2588C22.655 29.9201 22.9447 29.6681 23.2575 29.5029C23.5747 29.3321 23.9038 29.2392 24.2447 29.2241C24.5901 29.2034 24.9316 29.2573 25.2692 29.3858C25.6056 29.5043 25.9268 29.6885 26.2328 29.9385C26.3118 30.0007 26.3858 30.0634 26.4548 30.1268C26.5237 30.1902 26.5882 30.2593 26.6482 30.334L24.2428 33.3907C24.4255 33.507 24.6185 33.5812 24.8218 33.6132C25.0251 33.6452 25.2247 33.624 25.4204 33.5495C25.6149 33.4649 25.7966 33.3154 25.9654 33.1009C26.0764 32.9598 26.1645 32.8188 26.2295 32.6781C26.289 32.5329 26.3181 32.3913 26.317 32.2533C26.3159 32.1153 26.2835 31.9939 26.2198 31.8889L27.1394 30.7204C27.4147 31.0559 27.5796 31.4096 27.6342 31.7817C27.6932 32.148 27.6625 32.5123 27.542 32.8745C27.4159 33.2323 27.2306 33.5664 26.9863 33.8769ZM23.433 32.7123L24.9589 30.7733C24.802 30.659 24.6298 30.5874 24.4422 30.5586C24.2535 30.5198 24.064 30.5398 23.8739 30.6187C23.6826 30.6876 23.5026 30.8293 23.3338 31.0438C23.165 31.2583 23.0652 31.4722 23.0344 31.6856C23.008 31.8934 23.0337 32.0873 23.1114 32.2673C23.1879 32.4372 23.2951 32.5855 23.433 32.7123Z" fill="white"/>
<path d="M31.1395 29.3405C30.7187 29.7318 30.2808 29.9624 29.8259 30.0322C29.3714 30.092 28.9266 30.025 28.4914 29.8312C28.0514 29.6323 27.6479 29.3355 27.2811 28.941C26.8947 28.5254 26.6259 28.0887 26.4748 27.6308C26.3189 27.1677 26.2999 26.7096 26.4181 26.2565C26.5362 25.8033 26.8109 25.3762 27.2423 24.9751C27.3896 24.8382 27.5514 24.7221 27.7277 24.6268C27.9043 24.5214 28.0849 24.4467 28.2695 24.4026C28.4544 24.3483 28.6405 24.3322 28.8278 24.3542L27.1403 22.5394L28.245 21.5122L33.4396 27.0988L32.3664 28.0966L31.9178 27.6458C31.9356 27.8548 31.9128 28.0624 31.8494 28.2684C31.7864 28.4644 31.6957 28.6517 31.5774 28.8303C31.4591 29.009 31.3131 29.1791 31.1395 29.3405ZM30.436 28.1408C30.6727 27.9207 30.8134 27.6869 30.8579 27.4395C30.9078 27.1872 30.8888 26.94 30.801 26.6979C30.7133 26.4558 30.5764 26.2349 30.3906 26.035C30.1998 25.8298 29.9893 25.6773 29.7592 25.5774C29.5294 25.4674 29.2917 25.4334 29.0462 25.4753C28.8011 25.507 28.5576 25.6354 28.3156 25.8604C28.0736 26.0854 27.9303 26.3216 27.8857 26.569C27.8412 26.8165 27.8705 27.059 27.9737 27.2965C28.0772 27.5239 28.2219 27.7376 28.4078 27.9375C28.5447 28.0848 28.6926 28.2121 28.8513 28.3195C29.0104 28.4168 29.1784 28.4814 29.3551 28.5132C29.5318 28.545 29.7127 28.5338 29.8976 28.4796C30.0777 28.42 30.2571 28.3071 30.436 28.1408Z" fill="white"/>
<path d="M36.5991 24.979C35.9083 25.4449 35.2568 25.6286 34.6446 25.5302C34.0344 25.4218 33.4884 25.0103 33.0065 24.2956L31.2295 21.6602L32.4802 20.8168L34.197 23.3629C34.3415 23.5774 34.4998 23.7479 34.6718 23.8745C34.8457 23.9911 35.0304 24.0529 35.2256 24.0598C35.4269 24.0628 35.6347 23.9919 35.8491 23.8474C36.0814 23.6908 36.2259 23.5197 36.2827 23.3341C36.3395 23.1485 36.3355 22.9563 36.2707 22.7574C36.2019 22.5525 36.1033 22.3548 35.9748 22.1642L34.258 19.6181L35.4998 18.7808L37.2768 21.4163C37.7787 22.1608 37.9566 22.8292 37.8103 23.4217C37.6699 24.0102 37.2662 24.5293 36.5991 24.979Z" fill="white"/>
<path d="M39.7955 22.9412L36.2188 16.2031L37.5511 15.4959L41.1279 22.2339L39.7955 22.9412Z" fill="white"/>
<path d="M44.4726 20.8205C43.9195 21.0429 43.4054 21.1219 42.9304 21.0574C42.4554 20.9929 42.0342 20.8023 41.6668 20.4855C41.2968 20.162 41.0032 19.7304 40.7861 19.1905C40.5664 18.644 40.4814 18.1246 40.5312 17.6323C40.5783 17.1334 40.7482 16.6896 41.041 16.3009C41.3404 15.9095 41.7567 15.6066 42.2898 15.3922C42.6897 15.2314 43.0664 15.1574 43.4199 15.1701C43.7801 15.1801 44.1117 15.2635 44.4148 15.4204C44.7245 15.5745 44.9937 15.7915 45.2223 16.0712C45.4549 16.3415 45.6415 16.6613 45.7823 17.0305C45.8198 17.1238 45.8526 17.2152 45.8808 17.3045C45.909 17.3938 45.9305 17.4858 45.9453 17.5805L42.3365 19.0316C42.4369 19.2235 42.5672 19.384 42.7275 19.5131C42.8878 19.6422 43.0714 19.7233 43.2782 19.7562C43.489 19.7798 43.721 19.7407 43.9743 19.6389C44.1409 19.5719 44.2875 19.4936 44.414 19.404C44.5379 19.3077 44.6337 19.1995 44.7015 19.0793C44.7693 18.9592 44.8018 18.8377 44.7989 18.715L46.1785 18.1603C46.2499 18.5883 46.2166 18.9772 46.0786 19.3269C45.9471 19.674 45.7389 19.9745 45.4539 20.2285C45.1663 20.4757 44.8392 20.6731 44.4726 20.8205ZM41.9725 18.0399L44.2618 17.1193C44.1828 16.9421 44.0691 16.7942 43.9208 16.6758C43.7765 16.548 43.6023 16.4709 43.3982 16.4446C43.1981 16.409 42.9714 16.4421 42.7181 16.5439C42.4649 16.6458 42.2717 16.7815 42.1386 16.9511C42.0122 17.1181 41.9378 17.299 41.9155 17.4938C41.8972 17.6792 41.9162 17.8613 41.9725 18.0399Z" fill="white"/>
<path d="M51.5416 14.2735L50.4004 13.7129L50.9818 12.8088L49.9043 12.7842L50.0718 11.5277L51.1171 11.799L50.8005 10.7722L52.0623 10.5446L52.1244 11.6173L52.9984 10.9997L53.605 12.1166L52.6041 12.5161L53.4542 13.162L52.5808 14.086L51.9054 13.2553L51.5416 14.2735Z" fill="white"/>
<rect x="35" y="35" width="50" height="50" rx="25" fill="white"/>
<path d="M58.7139 70.215L60.4996 72.0011L62.2857 70.215L60.4996 68.4297L58.7139 70.215Z" fill="#734BDF"/>
<path d="M55.1436 66.6455L58.713 70.2162L60.4992 68.4308L56.9288 64.8594L55.1436 66.6455Z" fill="#734BDF"/>
<path d="M62.2857 48.7861L60.4996 47L58.7139 48.7861L60.4996 50.5714L62.2857 48.7861Z" fill="#734BDF"/>
<path d="M60.5 68.4308L62.2858 70.2162L65.8572 66.644L64.0711 64.8594L60.5 68.4308Z" fill="#734BDF"/>
<path d="M62.2867 63.0705L60.5005 61.2852L58.7148 63.0705L60.5005 64.8566L62.2867 63.0705Z" fill="#734BDF"/>
<path d="M64.0707 50.5703L62.285 52.3564L69.4278 59.4986L67.6421 61.2839L60.4996 54.141L53.3571 61.2839L51.5707 59.4993L58.7135 52.3556L56.9286 50.5703L48 59.4993L53.3594 64.8561L55.1448 63.07L55.144 63.0692L60.4993 57.7132L66.8462 64.0601L66.8469 64.0593L67.6421 64.8545L72.9992 59.4993L64.0707 50.5703Z" fill="#734BDF"/>
</svg>
