<svg width="169" height="148" viewBox="0 0 169 148" fill="none" xmlns="http://www.w3.org/2000/svg">
<path d="M132.021 3.71255C135.794 7.16542 136.473 12.585 136.473 12.585C136.473 12.585 131.033 12.4053 127.26 8.9506C123.488 5.49772 122.808 0.078125 122.808 0.078125C122.808 0.078125 128.248 0.257888 132.021 3.71255Z" fill="#734BDF"/>
<path d="M105.49 130.962C102.243 135.143 102.046 140.082 102.09 140.098C102.078 140.16 108.906 138.245 111.97 133.632C115.034 129.077 113.541 124.357 113.587 124.371C113.569 124.416 108.734 126.818 105.49 130.962Z" fill="#734BDF"/>
<path d="M110.272 145.446C104.279 144.425 102.044 139.877 102.044 139.918C102.115 139.94 108.537 138.08 114.07 138.733C119.658 139.415 122.942 142.898 122.942 142.935C123.021 142.953 116.329 146.491 110.27 145.445L110.272 145.446Z" fill="#734BDF"/>
<path d="M117.338 125.738C115.105 130.323 115.907 135.118 115.95 135.127C115.944 135.191 121.947 132.201 123.967 127.222C125.994 122.301 123.687 117.987 123.729 117.992C123.718 118.038 119.572 121.191 117.338 125.738Z" fill="#734BDF"/>
<path d="M124.657 138.913C118.83 138.931 115.866 134.914 115.87 134.955C115.935 134.965 121.565 132.096 126.936 131.79C132.36 131.503 136.161 134.312 136.166 134.349C136.241 134.355 130.545 138.909 124.657 138.915V138.913Z" fill="#734BDF"/>
<path d="M127.566 118.668C126.299 123.489 127.986 127.985 128.025 127.987C128.027 128.049 133.167 124.139 134.196 118.965C135.235 113.848 132.232 110.059 132.271 110.059C132.268 110.107 128.839 113.883 127.566 118.666V118.668Z" fill="#734BDF"/>
<path d="M137.042 130.167C131.482 131.178 127.91 127.796 127.918 127.833C127.979 127.833 132.784 124.101 137.897 122.88C143.059 121.67 147.248 123.734 147.257 123.768C147.326 123.761 142.663 129.159 137.042 130.167Z" fill="#734BDF"/>
<path d="M136.104 110.05C135.749 114.95 138.208 119.015 138.243 119.012C138.252 119.074 142.496 114.393 142.583 109.185C142.688 104.029 139.109 100.866 139.144 100.859C139.148 100.907 136.468 105.188 136.102 110.05H136.104Z" fill="#734BDF"/>
<path d="M147.347 119.573C142.152 121.517 138.099 118.853 138.114 118.89C138.169 118.881 142.12 114.431 146.874 112.349C151.673 110.27 156.12 111.543 156.132 111.575C156.196 111.557 152.601 117.623 147.349 119.572L147.347 119.573Z" fill="#734BDF"/>
<path d="M142.88 100.182C143.383 105.016 146.493 108.536 146.526 108.528C146.544 108.586 149.855 103.289 149.056 98.1938C148.279 93.1444 144.247 90.6882 144.281 90.6758C144.293 90.7221 142.392 95.3817 142.88 100.182Z" fill="#734BDF"/>
<path d="M155.489 107.468C150.762 110.275 146.358 108.39 146.376 108.424C146.425 108.406 149.492 103.385 153.783 100.513C158.117 97.6366 162.686 98.0869 162.702 98.1172C162.761 98.0905 160.267 104.649 155.487 107.468H155.489Z" fill="#734BDF"/>
<path d="M147.821 89.3422C149.125 93.9804 152.766 96.862 152.794 96.8477C152.819 96.9029 155.164 91.1452 153.534 86.2933C151.932 81.486 147.578 79.7951 147.608 79.7773C147.628 79.8218 146.537 84.736 147.819 89.3422H147.821Z" fill="#734BDF"/>
<path d="M161.386 94.2207C157.232 97.8035 152.612 96.7427 152.633 96.773C152.677 96.748 154.827 91.3017 158.554 87.7189C162.321 84.1255 166.87 83.7464 166.893 83.7748C166.947 83.7392 165.592 90.6147 161.386 94.2207Z" fill="#734BDF"/>
<path d="M150.856 77.8307C152.903 82.1522 156.947 84.3235 156.973 84.304C157.007 84.3556 158.348 78.2881 155.946 73.803C153.58 69.3587 149.031 68.4706 149.059 68.4492C149.086 68.4902 148.837 73.536 150.856 77.8289V77.8307Z" fill="#734BDF"/>
<path d="M164.953 80.1922C161.477 84.4549 156.775 84.2395 156.801 84.2662C156.839 84.2342 158.043 78.5084 161.099 74.3098C164.192 70.0952 168.582 68.8973 168.609 68.9223C168.657 68.8795 168.476 75.8992 164.953 80.1904V80.1922Z" fill="#734BDF"/>
<path d="M151.911 65.9398C154.639 69.8394 158.96 71.2455 158.983 71.2224C159.024 71.2686 159.329 65.0463 156.214 61.0381C153.142 57.0656 148.534 57.0015 148.559 56.9766C148.594 57.0122 149.215 62.0651 151.909 65.9398H151.911Z" fill="#734BDF"/>
<path d="M166.109 65.7313C163.422 70.5653 158.779 71.1972 158.809 71.2203C158.841 71.183 159.068 65.322 161.344 60.6143C163.653 55.8853 167.74 53.9025 167.77 53.9221C167.81 53.8741 168.839 60.8617 166.108 65.7313H166.109Z" fill="#734BDF"/>
<path d="M150.918 53.979C154.265 57.3607 158.729 57.9694 158.749 57.9445C158.798 57.9836 158.029 51.7613 154.267 48.3298C150.551 44.925 146.023 45.6832 146.044 45.6547C146.086 45.685 147.612 50.6169 150.918 53.9808V53.979Z" fill="#734BDF"/>
<path d="M164.772 51.2039C162.983 56.4865 158.543 57.9459 158.579 57.9637C158.603 57.9228 157.823 52.0725 159.21 46.975C160.625 41.8509 164.258 39.1366 164.293 39.1527C164.329 39.0993 166.603 45.8804 164.774 51.2039H164.772Z" fill="#734BDF"/>
<path d="M147.801 42.2353C151.702 45.0154 156.175 44.8179 156.191 44.7894C156.25 44.8214 154.369 38.754 150.024 35.981C145.73 33.2294 141.422 34.785 141.439 34.7547C141.491 34.7796 143.947 39.4659 147.801 42.2336V42.2353Z" fill="#734BDF"/>
<path d="M160.856 36.9798C160.077 42.5756 155.985 44.8253 156.026 44.8377C156.045 44.7932 154.226 39.0996 154.611 33.7423C155.022 28.3547 158.046 24.9837 158.085 24.9926C158.115 24.9339 161.668 31.3359 160.854 36.9798H160.856Z" fill="#734BDF"/>
<path d="M142.489 30.9983C146.876 33.1092 151.219 32.1125 151.232 32.0823C151.299 32.1054 148.273 26.3476 143.41 24.3097C138.605 22.2825 134.662 24.5963 134.675 24.5642C134.735 24.582 138.154 28.8964 142.489 31.0001V30.9983Z" fill="#734BDF"/>
<path d="M154.279 23.42C154.628 29.1831 151.035 32.1608 151.081 32.1679C151.093 32.1216 148.204 26.7287 147.473 21.2575C146.764 15.7507 149.025 11.8172 149.07 11.8208C149.093 11.7585 153.963 17.607 154.279 23.4218V23.42Z" fill="#734BDF"/>
<path d="M134.909 20.5803C139.712 21.9633 143.782 20.1959 143.793 20.1639C143.869 20.1763 139.662 14.8867 134.35 13.6408C129.102 12.3985 125.671 15.4064 125.682 15.3726C125.751 15.3815 130.166 19.1974 134.91 20.5803H134.909Z" fill="#734BDF"/>
<path d="M144.957 10.8807C146.549 16.6509 143.609 20.2782 143.658 20.2782C143.664 20.2302 139.675 15.2858 137.711 9.85376C135.765 4.38611 137.104 0.00237478 137.154 0.000594951C137.17 -0.0634791 143.392 5.0571 144.955 10.8807H144.957Z" fill="#734BDF"/>
<path d="M82.8792 141.613L82.975 140.556C91.7069 141.349 100.414 140.372 108.85 137.654C117.069 135.006 124.68 130.823 131.469 125.226C145.56 113.607 154.646 97.028 157.055 78.5426C159.027 63.4051 158.016 49.9158 154.047 38.4483C149.784 26.1354 142.195 16.4994 131.487 9.81075L132.046 8.91016C142.965 15.7305 150.703 25.5534 155.047 38.1012C159.071 49.7253 160.1 63.3784 158.105 78.6814C155.661 97.4356 146.439 114.259 132.142 126.048C125.249 131.731 117.521 135.978 109.172 138.667C100.6 141.43 91.753 142.421 82.8792 141.615V141.613Z" fill="#734BDF"/>
<path d="M36.5932 3.71255C32.8206 7.16542 32.1413 12.585 32.1413 12.585C32.1413 12.585 37.5812 12.4053 41.3538 8.9506C45.1264 5.49772 45.8058 0.078125 45.8058 0.078125C45.8058 0.078125 40.3659 0.257888 36.5932 3.71255Z" fill="#734BDF"/>
<path d="M63.124 130.962C66.3716 135.143 66.5685 140.082 66.5242 140.098C66.5366 140.16 59.7079 138.245 56.6447 133.632C53.5798 129.077 55.0732 124.357 55.0271 124.371C55.0449 124.416 59.8799 126.818 63.124 130.962Z" fill="#734BDF"/>
<path d="M58.3421 145.446C64.3354 144.425 66.5703 139.877 66.5703 139.918C66.4993 139.94 60.0768 138.08 54.5447 138.733C48.9558 139.415 45.6727 142.898 45.6727 142.935C45.5929 142.953 52.285 146.491 58.3439 145.445L58.3421 145.446Z" fill="#734BDF"/>
<path d="M51.2759 125.738C53.5089 130.323 52.7072 135.118 52.6647 135.127C52.67 135.191 46.6678 132.201 44.6476 127.222C42.6203 122.301 44.9278 117.987 44.8853 117.992C44.8959 118.038 49.0428 121.191 51.2759 125.738Z" fill="#734BDF"/>
<path d="M43.9576 138.913C49.7841 138.931 52.7479 134.914 52.7444 134.955C52.6788 134.965 47.0491 132.096 41.6784 131.79C36.2544 131.503 32.4534 134.312 32.4481 134.349C32.3736 134.355 38.0689 138.909 43.9576 138.915V138.913Z" fill="#734BDF"/>
<path d="M41.0488 118.668C42.3152 123.489 40.6284 127.985 40.5894 127.987C40.5876 128.049 35.4475 124.139 34.4188 118.965C33.3794 113.848 36.3822 110.059 36.3432 110.059C36.3468 110.107 39.7753 113.883 41.0488 118.666V118.668Z" fill="#734BDF"/>
<path d="M31.5719 130.167C37.1325 131.178 40.7047 127.796 40.6958 127.833C40.6355 127.833 35.8306 124.101 30.717 122.88C25.5556 121.67 21.3661 123.734 21.3573 123.768C21.2881 123.761 25.9511 129.159 31.5719 130.167Z" fill="#734BDF"/>
<path d="M32.5102 110.05C32.8649 114.95 30.4066 119.015 30.3711 119.012C30.3623 119.074 26.1178 114.393 26.0309 109.185C25.9263 104.029 29.5056 100.866 29.4701 100.859C29.4666 100.907 32.1466 105.188 32.512 110.05H32.5102Z" fill="#734BDF"/>
<path d="M21.2668 119.573C26.4619 121.517 30.5148 118.853 30.5006 118.89C30.4456 118.881 26.4938 114.431 21.7404 112.349C16.9408 110.27 12.4941 111.543 12.4817 111.575C12.4179 111.557 16.0131 117.623 21.265 119.572L21.2668 119.573Z" fill="#734BDF"/>
<path d="M25.7347 100.182C25.231 105.016 22.1217 108.536 22.088 108.528C22.0703 108.586 18.7588 103.289 19.5587 98.1938C20.3356 93.1444 24.3672 90.6882 24.3335 90.6758C24.3211 90.7221 26.2224 95.3817 25.7347 100.182Z" fill="#734BDF"/>
<path d="M13.1256 107.468C17.8524 110.275 22.2565 108.39 22.2388 108.424C22.1891 108.406 19.1224 103.385 14.8318 100.513C10.497 97.6366 5.92794 98.0869 5.91197 98.1172C5.85344 98.0905 8.34725 104.649 13.1273 107.468H13.1256Z" fill="#734BDF"/>
<path d="M20.7932 89.3422C19.4895 93.9804 15.8482 96.862 15.8198 96.8477C15.795 96.9029 13.4501 91.1452 15.0802 86.2933C16.6818 81.486 21.0362 79.7951 21.0061 79.7773C20.9865 79.8218 22.0774 84.736 20.795 89.3422H20.7932Z" fill="#734BDF"/>
<path d="M7.22809 94.2207C11.3821 97.8035 16.0025 96.7427 15.9812 96.773C15.9369 96.748 13.7872 91.3017 10.0607 87.7189C6.29336 84.1255 1.74386 83.7464 1.7208 83.7748C1.66759 83.7392 3.02268 90.6147 7.22809 94.2207Z" fill="#734BDF"/>
<path d="M17.7585 77.8307C15.7116 82.1522 11.6676 84.3235 11.641 84.304C11.6073 84.3556 10.2664 78.2881 12.668 73.803C15.0341 69.3587 19.5836 68.4706 19.5552 68.4492C19.5286 68.4902 19.7769 73.536 17.7585 77.8289V77.8307Z" fill="#734BDF"/>
<path d="M3.6612 80.1922C7.13585 84.4549 11.8397 84.2395 11.8131 84.2662C11.7758 84.2342 10.5715 78.5084 7.51542 74.3098C4.42211 70.0952 0.0322316 68.8973 0.00562626 68.9223C-0.0422633 68.8795 0.138654 75.8992 3.6612 80.1904V80.1922Z" fill="#734BDF"/>
<path d="M16.7032 65.9398C13.9753 69.8394 9.65456 71.2455 9.6315 71.2224C9.59071 71.2686 9.28563 65.0463 12.4002 61.0381C15.4723 57.0656 20.0803 57.0015 20.0555 56.9766C20.02 57.0122 19.3992 62.0651 16.705 65.9398H16.7032Z" fill="#734BDF"/>
<path d="M2.50473 65.7313C5.19187 70.5653 9.83538 71.1972 9.80523 71.2203C9.7733 71.183 9.54627 65.322 7.27063 60.6143C4.96129 55.8853 0.874711 53.9025 0.844559 53.9221C0.803764 53.8741 -0.224975 60.8617 2.5065 65.7313H2.50473Z" fill="#734BDF"/>
<path d="M17.6963 53.979C14.3494 57.3607 9.88501 57.9694 9.8655 57.9445C9.81583 57.9836 10.5856 51.7613 14.3476 48.3298C18.0635 44.925 22.5917 45.6832 22.5704 45.6547C22.5278 45.685 21.0025 50.6169 17.6963 53.9808V53.979Z" fill="#734BDF"/>
<path d="M3.84214 51.2039C5.63179 56.4865 10.0713 57.9459 10.0359 57.9637C10.011 57.9228 10.7914 52.0725 9.40443 46.975C7.98902 41.8509 4.35651 39.1366 4.32104 39.1527C4.28556 39.0993 2.0117 45.8804 3.84037 51.2039H3.84214Z" fill="#734BDF"/>
<path d="M20.8128 42.2353C16.9124 45.0154 12.4392 44.8179 12.4232 44.7894C12.3647 44.8214 14.2448 38.754 18.5904 35.981C22.8844 33.2294 27.1927 34.785 27.175 34.7547C27.1236 34.7796 24.667 39.4659 20.8128 42.2336V42.2353Z" fill="#734BDF"/>
<path d="M7.75842 36.9798C8.53707 42.5756 12.629 44.8253 12.5882 44.8377C12.5687 44.7932 14.3885 39.0996 14.0036 33.7423C13.5921 28.3547 10.5679 24.9837 10.5289 24.9926C10.4988 24.9339 6.94607 31.3359 7.76019 36.9798H7.75842Z" fill="#734BDF"/>
<path d="M26.1249 30.9983C21.7385 33.1092 17.3948 32.1125 17.3823 32.0823C17.3149 32.1054 20.3409 26.3476 25.2043 24.3097C30.0092 22.2825 33.9521 24.5963 33.9397 24.5642C33.8794 24.582 30.4597 28.8964 26.1249 31.0001V30.9983Z" fill="#734BDF"/>
<path d="M14.3352 23.42C13.9858 29.1831 17.5793 32.1608 17.5332 32.1679C17.5208 32.1216 20.4101 26.7287 21.1409 21.2575C21.8503 15.7507 19.5889 11.8172 19.5445 11.8208C19.5215 11.7585 14.6509 17.607 14.3352 23.4218V23.42Z" fill="#734BDF"/>
<path d="M33.7057 20.5803C28.9025 21.9633 24.8319 20.1959 24.8213 20.1639C24.745 20.1763 28.9522 14.8867 34.2644 13.6408C39.5127 12.3985 42.943 15.4064 42.9324 15.3726C42.8632 15.3815 38.4485 19.1974 33.7039 20.5803H33.7057Z" fill="#734BDF"/>
<path d="M23.6577 10.8807C22.065 16.6509 25.0057 20.2782 24.9561 20.2782C24.9507 20.2302 28.9398 15.2858 30.9032 9.85376C32.849 4.38611 31.5098 0.00237478 31.4602 0.000594951C31.4442 -0.0634791 25.2221 5.0571 23.6595 10.8807H23.6577Z" fill="#734BDF"/>
<path d="M85.735 141.613L85.6392 140.556C76.9074 141.349 68.2003 140.372 59.7647 137.654C51.5454 135.006 43.9345 130.823 37.1449 125.226C23.0547 113.607 13.9681 97.028 11.5594 78.5426C9.58708 63.4051 10.5981 49.9158 14.5676 38.4483C18.8298 26.1354 26.4194 16.4994 37.1271 9.81075L36.5684 8.91016C25.6496 15.7305 17.911 25.5534 13.5672 38.1012C9.54274 49.7253 8.514 63.3784 10.5094 78.6814C12.9535 97.4356 22.1749 114.259 36.4726 126.048C43.3652 131.731 51.0931 135.978 59.4419 138.667C68.0141 141.43 76.8613 142.421 85.735 141.615V141.613Z" fill="#734BDF"/>
<path d="M83.9933 136.195L75.9957 142.097L83.9933 147.999L91.9908 142.097L83.9933 136.195Z" fill="#734BDF"/>
<path d="M46.658 97.2573H42.2148L42.1775 97.2386L42.2316 96.9103L42.323 96.8376C42.4685 96.8376 42.6401 96.8283 42.8341 96.8096C43.0281 96.791 43.1811 96.7462 43.2911 96.6716C43.3881 96.5988 43.4795 96.4832 43.5653 96.3247C43.6511 96.1661 43.7108 95.9292 43.7481 95.6121C43.7481 95.5263 43.7518 95.4256 43.7574 95.3099C43.763 95.1943 43.7686 95.0506 43.7761 94.879C43.7817 94.7074 43.7854 94.5004 43.7854 94.2579V87.7536C43.7854 87.4421 43.7724 87.1343 43.7481 86.8302C43.7239 86.5131 43.666 86.2818 43.5746 86.1345C43.4832 85.989 43.3881 85.8733 43.2911 85.7875C43.1811 85.726 43.0691 85.6812 42.9535 85.6495C42.8378 85.6196 42.6271 85.6029 42.323 85.6029L42.2316 85.5301L42.1775 85.2L42.2148 85.1328C42.3006 85.1328 42.4126 85.1384 42.5525 85.1477C42.6924 85.1589 42.8379 85.1683 42.9908 85.1776C43.1438 85.1888 43.2986 85.1981 43.4571 85.2074C43.6157 85.2167 43.7612 85.2223 43.8955 85.2223H46.3819C47.1989 85.2223 47.8909 85.3026 48.458 85.4592C49.025 85.6178 49.4857 85.8435 49.8383 86.1363C50.1908 86.4292 50.4501 86.7799 50.6161 87.1884C50.7802 87.5969 50.8623 88.0446 50.8623 88.5333C50.8623 89.2402 50.7168 89.8222 50.424 90.2792C50.1311 90.7362 49.7562 91.0962 49.2992 91.3573C48.8422 91.6203 48.3293 91.7994 47.7622 91.8964C47.1952 91.9934 46.643 92.0419 46.1077 92.0419H45.0837V93.0846C45.0837 93.4502 45.0874 93.7972 45.093 94.1273C45.0986 94.4556 45.1042 94.7559 45.1116 95.0227C45.1172 95.2913 45.1266 95.4853 45.1396 95.6084C45.1639 95.9628 45.2254 96.209 45.3224 96.3489C45.4194 96.4888 45.5052 96.5895 45.578 96.6511C45.688 96.7126 45.7999 96.7574 45.9156 96.7891C46.0312 96.819 46.2476 96.8339 46.5647 96.8339L46.6374 96.9066L46.6915 97.2349L46.6542 97.2536L46.658 97.2573ZM46.7494 91.2417C47.7734 91.2417 48.5046 91.0104 48.9429 90.5459C49.3813 90.0833 49.6014 89.4435 49.6014 88.6265C49.6014 87.8095 49.3477 87.1585 48.8422 86.7426C48.3367 86.3285 47.6447 86.1214 46.7661 86.1214H45.1751C45.1508 86.4758 45.1359 86.7743 45.1284 87.0168C45.1228 87.2611 45.1135 87.4738 45.1004 87.6566C45.0874 87.8394 45.0818 88.0035 45.0818 88.1509V90.5646C45.0818 90.7231 45.0874 90.8481 45.1004 90.9395C45.1116 91.0309 45.1433 91.0981 45.1918 91.141C45.2403 91.1839 45.3112 91.2118 45.4026 91.223C45.494 91.2361 45.619 91.2417 45.7775 91.2417H46.7475H46.7494Z" fill="#734BDF"/>
<path d="M58.5249 97.2573H54.0818L54.0444 97.2386L54.0985 96.9103L54.1899 96.8376C54.3354 96.8376 54.507 96.8283 54.701 96.8096C54.895 96.791 55.048 96.7462 55.158 96.6716C55.255 96.5988 55.3464 96.4832 55.4322 96.3246C55.518 96.1661 55.5777 95.9292 55.615 95.6121C55.615 95.5263 55.6188 95.4256 55.6243 95.3099C55.6299 95.1943 55.6355 95.0506 55.643 94.879C55.6486 94.7074 55.6523 94.5004 55.6523 94.2579V88.5855C55.6523 88.3411 55.6486 88.0651 55.643 87.7536C55.6374 87.4421 55.6225 87.1343 55.5964 86.8302C55.5721 86.5504 55.5162 86.3266 55.4322 86.1625C55.3464 85.9983 55.255 85.8733 55.158 85.7875C55.048 85.726 54.9361 85.6812 54.8204 85.6495C54.7048 85.6196 54.494 85.6029 54.1899 85.6029L54.0985 85.5301L54.0444 85.2L54.0818 85.1328C54.1676 85.1328 54.2795 85.1384 54.4194 85.1477C54.5593 85.1589 54.7048 85.1683 54.8577 85.1776C55.0107 85.1888 55.1655 85.1981 55.324 85.2074C55.4826 85.2167 55.6281 85.2223 55.7624 85.2223H58.2488C59.0658 85.2223 59.7578 85.3026 60.3249 85.4592C60.8919 85.6178 61.3526 85.8342 61.7052 86.1084C62.0577 86.3826 62.317 86.7127 62.483 87.0951C62.6472 87.4794 62.7292 87.8897 62.7292 88.3299C62.7292 88.8541 62.6341 89.3092 62.4457 89.6916C62.2573 90.0759 62.0167 90.4042 61.7238 90.6784C61.431 90.9526 61.1027 91.1727 60.7371 91.3368C60.3715 91.501 60.0115 91.6259 59.659 91.7117C60.0488 92.2601 60.4517 92.803 60.8658 93.3402C61.2799 93.8774 61.7071 94.4015 62.1454 94.9126C62.3897 95.1924 62.6154 95.4424 62.8225 95.6625C63.0295 95.8826 63.2515 96.071 63.4903 96.2295C63.7272 96.3881 63.9939 96.5168 64.2849 96.6138C64.5777 96.7108 64.9303 96.7854 65.3462 96.8339L65.4563 96.9066L65.4936 97.2349L65.4563 97.345H63.7365C63.4194 97.345 63.1452 97.3077 62.9139 97.2368C62.6826 97.164 62.4569 97.0484 62.2368 96.8917C62.0167 96.735 61.7947 96.528 61.569 96.2743C61.3433 96.0206 61.084 95.7166 60.7912 95.3659C60.7539 95.3304 60.6476 95.1868 60.4704 94.9387C60.2932 94.6906 60.0805 94.3941 59.8306 94.049C59.5806 93.7039 59.3195 93.3346 59.0434 92.941C58.7692 92.5474 58.5155 92.1818 58.2842 91.8423H56.9487V92.9205C56.9487 93.3103 56.9524 93.6834 56.958 94.0359C56.9636 94.3903 56.9692 94.7093 56.9767 94.9966C56.9823 95.2838 56.9916 95.4871 57.0047 95.6084C57.0289 95.9628 57.0905 96.209 57.1875 96.3489C57.2845 96.4888 57.3703 96.5895 57.443 96.6511C57.5531 96.7126 57.665 96.7574 57.7806 96.7891C57.8963 96.819 58.1126 96.8339 58.4297 96.8339L58.5025 96.9066L58.5566 97.2349L58.5193 97.2536L58.5249 97.2573ZM58.6163 91.0402C59.6273 91.0402 60.3566 90.8052 60.8024 90.337C61.2482 89.867 61.4702 89.2365 61.4702 88.4437C61.4702 87.6995 61.2165 87.1268 60.711 86.7239C60.2055 86.321 59.5135 86.1196 58.6349 86.1196H57.0438C57.0196 86.474 57.0047 86.7724 56.9972 87.0149C56.9916 87.2593 56.9823 87.4719 56.9692 87.6547C56.9562 87.8375 56.9506 88.0017 56.9506 88.149V90.3613C56.9506 90.5198 56.9562 90.6448 56.9692 90.7362C56.9804 90.8276 57.0121 90.8947 57.0606 90.9376C57.1091 90.9805 57.18 91.0085 57.2714 91.0197C57.3628 91.0328 57.4878 91.0384 57.6463 91.0384H58.6163V91.0402Z" fill="#734BDF"/>
<path d="M72.8073 85.1875H75.8795L75.9709 85.3516L75.8981 87.3419H75.4411L75.3684 87.2673C75.3441 86.9838 75.3106 86.7618 75.2677 86.5995C75.2248 86.4391 75.1035 86.3216 74.9021 86.247C74.7006 86.1724 74.3984 86.1351 73.9974 86.1351H70.541L70.5037 86.8402C70.4907 87.0323 70.4832 87.1946 70.4757 87.327C70.4701 87.4594 70.4627 87.6217 70.4571 87.8157C70.4515 88.0078 70.4478 88.2391 70.4478 88.5115V90.47H72.5425C72.8409 90.47 73.0946 90.4495 73.3016 90.4048C73.5087 90.3619 73.6486 90.2966 73.7213 90.2108C73.8183 90.1119 73.9041 90.013 73.9769 89.9142C74.0496 89.8153 74.0869 89.6736 74.0869 89.4889L74.1783 89.3994L74.4898 89.3639L74.5626 89.3994C74.5383 89.6792 74.5178 89.9216 74.4992 90.1287C74.4805 90.3357 74.4712 90.5726 74.4712 90.8394C74.4712 91.1322 74.4805 91.4027 74.4992 91.6508C74.5178 91.9007 74.5383 92.1712 74.5626 92.4622L74.4898 92.4995L74.1615 92.4622L74.0888 92.4081C74.0888 92.2104 74.0515 92.0276 73.9787 91.8597C73.906 91.6918 73.8202 91.5538 73.7232 91.4419C73.6505 91.3673 73.5106 91.3113 73.3035 91.274C73.0965 91.2367 72.8465 91.218 72.5537 91.218H70.4515V94.0514C70.4515 94.3238 70.4552 94.5681 70.4608 94.7808C70.4664 94.9934 70.4757 95.1874 70.4888 95.3646C70.5 95.5399 70.5186 95.7433 70.5429 95.9746C70.5429 96.2059 70.6641 96.3215 70.9085 96.3215H72.4623C73.1935 96.3215 73.7698 96.3066 74.1895 96.2749C74.6092 96.245 74.93 96.1797 75.1501 96.0827C75.3702 95.9858 75.5251 95.8365 75.6165 95.6351C75.7079 95.4336 75.7955 95.1688 75.8813 94.8405L75.9541 94.7677H76.4297L76.1014 97.0732L75.9559 97.2542H67.5808L67.5435 97.2355L67.5976 96.9072L67.689 96.8345C67.883 96.8345 68.0658 96.8251 68.2374 96.8065C68.4071 96.7878 68.5489 96.7375 68.6571 96.6517C68.7541 96.5659 68.8492 96.4577 68.9406 96.3234C69.032 96.1891 69.0898 95.9522 69.1141 95.6108C69.1141 95.525 69.1178 95.4243 69.1234 95.3087C69.129 95.193 69.1346 95.0494 69.142 94.8796C69.1476 94.7099 69.1514 94.5028 69.1514 94.2585V87.8027C69.1514 87.5956 69.1476 87.4184 69.142 87.2729C69.1365 87.1274 69.1271 86.9801 69.1141 86.8346C69.0898 86.5063 69.032 86.2712 68.9406 86.1313C68.8492 85.9914 68.7541 85.8777 68.6571 85.7937C68.547 85.7079 68.4071 85.6557 68.2374 85.6389C68.0658 85.6202 67.883 85.6109 67.689 85.6109L67.5976 85.5382L67.5435 85.2099L67.5808 85.1912H72.8111L72.8073 85.1875Z" fill="#734BDF"/>
<path d="M95.0061 97.2555H90.563L90.5089 97.2368L90.563 96.9086L90.6357 96.8358C90.8297 96.8358 91.0162 96.8265 91.1934 96.8078C91.3706 96.7892 91.5068 96.7388 91.6057 96.653C91.6915 96.5672 91.7735 96.459 91.8519 96.3247C91.9302 96.1904 91.9713 95.9535 91.9713 95.6122V95.31C91.9713 95.1943 91.9675 95.0507 91.9619 94.881C91.9563 94.7112 91.947 94.5042 91.934 94.2598C91.9209 94.0155 91.9041 93.7114 91.8799 93.3458C91.7829 92.0662 91.7064 91.044 91.6504 90.283C91.5963 89.5219 91.5497 88.9269 91.5124 88.4998C91.4751 88.0726 91.449 87.7686 91.4303 87.5858C91.4117 87.403 91.3968 87.25 91.3837 87.1288C91.2979 87.3489 91.1636 87.6865 90.9808 88.1435C90.798 88.6005 90.5872 89.1246 90.3503 89.7159C90.1134 90.3072 89.8598 90.9377 89.5912 91.6092C89.3226 92.2789 89.0577 92.9448 88.7965 93.6032C88.5335 94.2617 88.2854 94.8828 88.0467 95.4685C87.8098 96.0542 87.6046 96.5541 87.4349 96.9682H86.575L82.9172 87.1661C82.9041 87.2873 82.8929 87.416 82.8798 87.5503C82.8668 87.6846 82.8556 87.8469 82.8425 88.0353C82.8295 88.2237 82.8146 88.4438 82.7959 88.6937C82.7773 88.9437 82.7567 89.2515 82.7325 89.6171L82.4769 92.9821C82.4396 93.3962 82.4154 93.7375 82.4042 94.0061C82.3911 94.2747 82.3799 94.506 82.3669 94.7019C82.3538 94.8978 82.3482 95.0619 82.3482 95.1962V95.6159C82.3482 95.9572 82.3874 96.1941 82.4676 96.3284C82.546 96.4627 82.6355 96.5728 82.7325 96.6567C82.8295 96.7425 82.9433 96.7948 83.0701 96.8116C83.1988 96.8302 83.3592 96.8395 83.5551 96.8395L83.6278 96.9123L83.6819 97.2406L83.6446 97.3133C83.5588 97.3133 83.4338 97.3096 83.2697 97.304C83.1056 97.2984 82.9377 97.2909 82.7661 97.2853C82.5945 97.2797 82.4284 97.2723 82.2624 97.2667C82.0983 97.2611 81.9733 97.2574 81.8875 97.2574H79.5111L79.4738 97.2387L79.5279 96.9104L79.638 96.8377C79.8208 96.8377 79.998 96.8283 80.1677 96.8097C80.3375 96.791 80.4848 96.7407 80.6061 96.6549C80.7031 96.5691 80.8038 96.4609 80.9082 96.3266C81.0108 96.1923 81.0873 95.9554 81.1377 95.614C81.1489 95.5282 81.1619 95.4275 81.175 95.3118C81.1862 95.1962 81.203 95.0526 81.2216 94.8828C81.2403 94.7131 81.2608 94.506 81.285 94.2617C81.3093 94.0173 81.3335 93.7133 81.3578 93.3477L81.6133 89.6357C81.6506 89.2086 81.6767 88.8486 81.6954 88.5576C81.714 88.2647 81.7252 88.0148 81.7327 87.8077C81.7383 87.6007 81.7439 87.4235 81.7514 87.278C81.7569 87.1325 81.7607 86.9851 81.7607 86.8396C81.7607 86.4983 81.7085 86.2577 81.6059 86.1178C81.5014 85.9779 81.4007 85.8715 81.3037 85.7969C81.1936 85.7111 81.0537 85.6589 80.884 85.6421C80.7124 85.6235 80.5296 85.6141 80.3356 85.6141L80.2442 85.5414L80.1901 85.2131L80.2274 85.1944H83.3275C83.5047 85.1944 83.6483 85.1888 83.7565 85.1758L83.8479 85.2299C83.8591 85.3884 83.9058 85.5992 83.986 85.8603C84.0643 86.1234 84.1632 86.4181 84.2788 86.7464C84.3945 87.0747 84.5194 87.4253 84.6537 87.7984C84.788 88.1696 84.9223 88.5389 85.0566 88.9045L86.3008 92.2882C86.5078 92.8739 86.6962 93.3701 86.8678 93.7786C87.0376 94.1871 87.1905 94.5489 87.3248 94.866C87.3621 94.8045 87.4647 94.5713 87.6363 94.1628C87.8061 93.7543 88.0168 93.2488 88.2668 92.6445C88.5167 92.0401 88.7816 91.3798 89.0614 90.6598C89.3412 89.9398 89.6098 89.2366 89.8653 88.5483C90.1209 87.86 90.341 87.222 90.5238 86.6382C90.7066 86.0543 90.8222 85.5899 90.8707 85.2485L90.9621 85.1758C91.0591 85.1814 91.1636 85.187 91.2736 85.1888C91.3837 85.1926 91.4863 85.1926 91.5851 85.1926H94.2917L94.329 85.2112L94.2749 85.5395L94.1835 85.6123C93.9876 85.6123 93.803 85.6216 93.6258 85.6402C93.4486 85.6589 93.3124 85.7111 93.2135 85.7951C93.1165 85.8678 93.0158 85.9779 92.9114 86.1234C92.8069 86.2689 92.7565 86.5076 92.7565 86.8359C92.7565 87.0075 92.7603 87.1642 92.7659 87.3116C92.7715 87.4571 92.7771 87.6287 92.7845 87.8245C92.7901 88.0204 92.8032 88.2573 92.8218 88.5371C92.8405 88.8169 92.8685 89.1769 92.9039 89.6152L93.124 92.9802C93.1613 93.4186 93.1874 93.7748 93.2061 94.0509C93.2247 94.3251 93.2434 94.5545 93.2602 94.7373C93.2788 94.9201 93.2975 95.075 93.3143 95.2037C93.3329 95.3324 93.3534 95.4685 93.3777 95.6159C93.4262 95.9572 93.4989 96.1941 93.5978 96.3284C93.6948 96.4627 93.7918 96.5728 93.8906 96.6567C94.0007 96.7425 94.1443 96.7948 94.3197 96.8116C94.4969 96.8302 94.6815 96.8395 94.8774 96.8395L94.9688 96.9123L95.0229 97.2406L95.0042 97.2592L95.0061 97.2555Z" fill="#734BDF"/>
<path d="M102.631 85.2043L102.577 85.5326L102.504 85.6053C102.309 85.6053 102.124 85.6147 101.947 85.6333C101.769 85.652 101.626 85.7042 101.518 85.7881C101.421 85.8739 101.329 85.984 101.243 86.1164C101.158 86.2507 101.104 86.4876 101.079 86.829C101.066 87.0006 101.059 87.1573 101.051 87.3046C101.046 87.4501 101.038 87.6217 101.033 87.8176C101.027 88.0134 101.023 88.2503 101.023 88.5301V94.044C101.023 94.3182 101.027 94.5476 101.033 94.7304C101.038 94.9132 101.044 95.068 101.051 95.1967C101.057 95.3254 101.066 95.4616 101.079 95.609C101.104 95.9503 101.158 96.1872 101.243 96.3215C101.329 96.4558 101.421 96.5659 101.518 96.6498C101.628 96.7356 101.771 96.7878 101.947 96.8046C102.124 96.8233 102.309 96.8326 102.504 96.8326L102.577 96.9054L102.631 97.2336L102.594 97.2523H98.1508L98.1135 97.2336L98.1676 96.9054L98.259 96.8326C98.453 96.8326 98.6358 96.8233 98.8074 96.8046C98.9771 96.786 99.1189 96.7356 99.2271 96.6498C99.324 96.564 99.4192 96.4558 99.5106 96.3215C99.602 96.1872 99.6598 95.9503 99.684 95.609C99.684 95.5232 99.6878 95.4224 99.6934 95.3068C99.699 95.1911 99.7046 95.0475 99.712 94.8778C99.7176 94.708 99.7214 94.501 99.7214 94.2566V88.5506C99.7214 88.2578 99.7176 88.0078 99.712 87.8008C99.7064 87.5937 99.699 87.4165 99.6934 87.271C99.6878 87.1255 99.6784 86.9782 99.6654 86.8327C99.6411 86.5156 99.5852 86.2843 99.5013 86.1369C99.4155 85.9914 99.324 85.8739 99.2271 85.79C99.117 85.7042 98.9771 85.652 98.8074 85.6352C98.6358 85.6165 98.453 85.6072 98.259 85.6072L98.1676 85.5344L98.1135 85.2061L98.1508 85.1875H102.594L102.631 85.2061V85.2043Z" fill="#734BDF"/>
<path d="M117.992 85.2095L117.938 85.5378L117.865 85.6105C117.669 85.6105 117.485 85.6198 117.307 85.6385C117.13 85.6571 116.987 85.7094 116.878 85.7933C116.781 85.8791 116.69 85.9892 116.604 86.1216C116.518 86.2559 116.464 86.4928 116.44 86.8341C116.427 86.9796 116.42 87.127 116.412 87.2725C116.407 87.418 116.399 87.5952 116.394 87.8022C116.388 88.0093 116.384 88.2592 116.384 88.5521V93.1426C116.384 93.7395 116.297 94.2972 116.119 94.8158C115.942 95.3343 115.672 95.7857 115.306 96.1681C114.94 96.5524 114.48 96.8546 113.926 97.0728C113.372 97.2929 112.721 97.4011 111.978 97.4011C111.124 97.4011 110.402 97.2911 109.811 97.0728C109.22 96.8527 108.74 96.5524 108.375 96.1681C108.009 95.7839 107.744 95.3325 107.58 94.8158C107.416 94.2972 107.334 93.7395 107.334 93.1426V87.8022C107.334 87.5952 107.33 87.418 107.324 87.2725C107.319 87.127 107.31 86.9796 107.297 86.8341C107.272 86.5058 107.214 86.2708 107.123 86.1309C107.032 85.991 106.937 85.8772 106.84 85.7933C106.729 85.7075 106.59 85.6553 106.42 85.6385C106.248 85.6198 106.065 85.6105 105.871 85.6105L105.78 85.5378L105.726 85.2095L105.763 85.1908H110.206L110.244 85.2095L110.19 85.5378L110.117 85.6105C109.921 85.6105 109.736 85.6198 109.559 85.6385C109.382 85.6571 109.238 85.7094 109.13 85.7933C109.033 85.8791 108.942 85.9892 108.856 86.1216C108.77 86.2559 108.716 86.4928 108.692 86.8341C108.679 87.0058 108.671 87.1624 108.664 87.3098C108.658 87.4553 108.651 87.6269 108.645 87.8228C108.64 88.0186 108.636 88.2555 108.636 88.5353V92.6315C108.636 93.9484 108.93 94.8923 109.522 95.4668C110.113 96.0394 110.932 96.3267 111.982 96.3267C113.032 96.3267 113.853 96.0413 114.45 95.4668C115.047 94.8941 115.345 93.9484 115.345 92.6315V88.5353C115.345 88.2555 115.341 88.0167 115.336 87.8228C115.33 87.6288 115.323 87.4572 115.317 87.3098C115.312 87.1643 115.302 87.0058 115.289 86.8341C115.265 86.4928 115.207 86.2559 115.116 86.1216C115.024 85.9873 114.929 85.8772 114.832 85.7933C114.735 85.7075 114.597 85.6553 114.42 85.6385C114.243 85.6198 114.056 85.6105 113.862 85.6105L113.771 85.5378L113.717 85.2095L113.754 85.1367C113.84 85.1367 113.967 85.146 114.138 85.1647C114.308 85.1833 114.489 85.1927 114.677 85.1927H117.96L117.998 85.2113L117.992 85.2095Z" fill="#734BDF"/>
<path d="M136.279 97.2555H131.836L131.782 97.2368L131.836 96.9086L131.909 96.8358C132.103 96.8358 132.289 96.8265 132.467 96.8078C132.644 96.7892 132.78 96.7388 132.879 96.653C132.965 96.5672 133.047 96.459 133.125 96.3247C133.203 96.1904 133.244 95.9535 133.244 95.6122V95.31C133.244 95.1943 133.241 95.0507 133.235 94.881C133.23 94.7112 133.22 94.5042 133.207 94.2598C133.194 94.0155 133.177 93.7114 133.153 93.3458C133.056 92.0662 132.98 91.044 132.924 90.283C132.87 89.5219 132.823 88.9269 132.786 88.4998C132.748 88.0726 132.722 87.7686 132.704 87.5858C132.685 87.403 132.67 87.25 132.657 87.1288C132.571 87.3489 132.437 87.6865 132.254 88.1435C132.071 88.6005 131.86 89.1246 131.624 89.7159C131.387 90.3072 131.133 90.9377 130.864 91.6092C130.596 92.2789 130.331 92.9448 130.07 93.6032C129.807 94.2617 129.557 94.8828 129.32 95.4685C129.083 96.0542 128.878 96.5541 128.708 96.9682H127.848L124.19 87.1661C124.177 87.2873 124.166 87.416 124.153 87.5503C124.14 87.6846 124.129 87.8469 124.116 88.0353C124.103 88.2237 124.088 88.4438 124.069 88.6937C124.05 88.9437 124.03 89.2515 124.006 89.6171L123.75 92.9821C123.713 93.3962 123.689 93.7375 123.677 94.0061C123.664 94.2747 123.653 94.506 123.64 94.7019C123.627 94.8978 123.621 95.0619 123.621 95.1962V95.6159C123.621 95.9572 123.661 96.1941 123.741 96.3284C123.819 96.4627 123.909 96.5728 124.006 96.6567C124.103 96.7425 124.216 96.7948 124.343 96.8116C124.472 96.8302 124.632 96.8395 124.828 96.8395L124.901 96.9123L124.955 97.2406L124.918 97.3133C124.832 97.3133 124.707 97.3096 124.543 97.304C124.379 97.2984 124.211 97.2909 124.039 97.2853C123.868 97.2797 123.702 97.2723 123.536 97.2667C123.372 97.2611 123.247 97.2574 123.161 97.2574H120.784L120.747 97.2387L120.801 96.9104L120.911 96.8377C121.094 96.8377 121.271 96.8283 121.441 96.8097C121.611 96.791 121.758 96.7407 121.879 96.6549C121.976 96.5691 122.077 96.4609 122.181 96.3266C122.284 96.1923 122.361 95.9554 122.411 95.614C122.422 95.5282 122.435 95.4275 122.448 95.3118C122.459 95.1962 122.476 95.0526 122.495 94.8828C122.513 94.7131 122.534 94.506 122.558 94.2617C122.583 94.0173 122.607 93.7133 122.631 93.3477L122.887 89.6357C122.924 89.2086 122.95 88.8486 122.969 88.5576C122.987 88.2647 122.998 88.0148 123.006 87.8077C123.012 87.6007 123.017 87.4235 123.025 87.278C123.03 87.1325 123.034 86.9851 123.034 86.8396C123.034 86.4983 122.982 86.2577 122.879 86.1178C122.775 85.9779 122.674 85.8715 122.577 85.7969C122.467 85.7111 122.327 85.6589 122.157 85.6421C121.986 85.6235 121.803 85.6141 121.609 85.6141L121.517 85.5414L121.463 85.2131L121.501 85.1944H124.601C124.778 85.1944 124.922 85.1888 125.03 85.1758L125.121 85.2299C125.132 85.3884 125.179 85.5992 125.259 85.8603C125.338 86.1234 125.436 86.4181 125.552 86.7464C125.668 87.0747 125.793 87.4253 125.927 87.7984C126.061 88.1696 126.196 88.5389 126.33 88.9045L127.574 92.2882C127.781 92.8739 127.969 93.3701 128.141 93.7786C128.311 94.1871 128.464 94.5489 128.598 94.866C128.635 94.8045 128.738 94.5713 128.91 94.1628C129.079 93.7543 129.29 93.2488 129.54 92.6445C129.79 92.0401 130.055 91.3798 130.335 90.6598C130.614 89.9398 130.883 89.2366 131.139 88.5483C131.394 87.86 131.614 87.222 131.797 86.6382C131.98 86.0525 132.095 85.5899 132.144 85.2485L132.235 85.1758C132.332 85.1814 132.437 85.187 132.547 85.1888C132.657 85.1926 132.76 85.1926 132.858 85.1926H135.565L135.602 85.2112L135.548 85.5395L135.457 85.6123C135.261 85.6123 135.076 85.6216 134.899 85.6402C134.722 85.6589 134.586 85.7111 134.487 85.7951C134.39 85.8678 134.289 85.9779 134.185 86.1234C134.08 86.2689 134.03 86.5076 134.03 86.8359C134.03 87.0075 134.033 87.1642 134.039 87.3116C134.045 87.4571 134.05 87.6287 134.058 87.8245C134.063 88.0204 134.076 88.2573 134.095 88.5371C134.114 88.8169 134.142 89.1769 134.177 89.6152L134.397 92.9802C134.435 93.4186 134.461 93.7748 134.479 94.0509C134.498 94.3251 134.517 94.5545 134.533 94.7373C134.552 94.9201 134.571 95.075 134.587 95.2037C134.606 95.3324 134.627 95.4685 134.651 95.6159C134.699 95.9572 134.772 96.1941 134.871 96.3284C134.968 96.4627 135.065 96.5728 135.164 96.6567C135.274 96.7425 135.418 96.7948 135.593 96.8116C135.77 96.8302 135.955 96.8395 136.151 96.8395L136.242 96.9123L136.296 97.2406L136.277 97.2592L136.279 97.2555Z" fill="#734BDF"/>
<path d="M45.1134 104.129C45.1022 104.043 45.0649 103.97 45.0033 103.912C44.9418 103.855 44.8634 103.808 44.772 103.772C44.6806 103.737 44.5799 103.713 44.468 103.7C44.358 103.687 44.2479 103.679 44.1379 103.679C43.7517 103.679 43.4496 103.767 43.2276 103.942C43.0448 104.09 42.9068 104.287 42.8154 104.532C42.724 104.778 42.6773 105.046 42.6773 105.337C42.6773 105.614 42.7165 105.856 42.7967 106.065C42.8769 106.274 42.987 106.447 43.1269 106.587C43.2668 106.727 43.4328 106.833 43.6268 106.906C43.8189 106.979 44.0297 107.014 44.2554 107.014C44.4158 107.014 44.5986 106.992 44.8075 106.947C45.0164 106.902 45.2141 106.817 45.4006 106.688L45.4585 106.751L45.3298 107.014C45.1358 107.119 44.9418 107.197 44.7478 107.246C44.5557 107.294 44.3561 107.318 44.149 107.318C43.8562 107.318 43.5913 107.272 43.3544 107.179C43.1175 107.085 42.9142 106.953 42.7445 106.779C42.5747 106.606 42.4442 106.401 42.3509 106.162C42.2576 105.923 42.211 105.658 42.211 105.365C42.211 105.093 42.252 104.836 42.336 104.593C42.4199 104.351 42.5449 104.14 42.709 103.961C42.8751 103.782 43.0784 103.64 43.3227 103.536C43.5652 103.431 43.8487 103.379 44.1733 103.379H44.4214C44.5165 103.379 44.6172 103.386 44.7217 103.403C44.8261 103.42 44.9343 103.44 45.0425 103.468C45.1507 103.495 45.257 103.528 45.3578 103.569L45.3745 103.625L45.2981 104.157H45.1283L45.1115 104.132L45.1134 104.129Z" fill="#734BDF"/>
<path d="M53.8877 103.375C54.1917 103.375 54.4622 103.427 54.6991 103.534C54.936 103.638 55.1356 103.782 55.2978 103.963C55.4601 104.143 55.5832 104.352 55.669 104.591C55.7548 104.828 55.7977 105.078 55.7977 105.339C55.7977 105.6 55.7567 105.845 55.6728 106.083C55.5888 106.322 55.4657 106.535 55.3016 106.718C55.1374 106.9 54.9341 107.048 54.6916 107.158C54.4491 107.268 54.1675 107.324 53.8485 107.324C53.5296 107.324 53.2647 107.272 53.0334 107.165C52.8021 107.061 52.6062 106.919 52.4496 106.742C52.291 106.565 52.1735 106.358 52.097 106.123C52.0187 105.888 51.9795 105.639 51.9795 105.378C51.9795 105.102 52.0224 104.841 52.1082 104.599C52.194 104.356 52.319 104.143 52.4813 103.963C52.6454 103.782 52.845 103.638 53.0819 103.534C53.3188 103.429 53.5874 103.375 53.8877 103.375ZM53.8821 107.012C54.1153 107.012 54.3223 106.969 54.5032 106.882C54.6842 106.794 54.8371 106.675 54.9621 106.522C55.0871 106.371 55.1822 106.193 55.2475 105.99C55.3128 105.787 55.3463 105.572 55.3463 105.341C55.3463 105.11 55.3128 104.89 55.2438 104.686C55.1747 104.483 55.0777 104.308 54.949 104.158C54.8203 104.009 54.6637 103.892 54.479 103.808C54.2943 103.724 54.0854 103.683 53.8504 103.683C53.6154 103.683 53.4176 103.724 53.2404 103.808C53.0632 103.892 52.914 104.007 52.7928 104.155C52.6715 104.302 52.582 104.477 52.5204 104.677C52.4608 104.878 52.429 105.097 52.429 105.334C52.429 105.595 52.4645 105.828 52.5335 106.035C52.6044 106.242 52.7032 106.417 52.8319 106.561C52.9606 106.705 53.1136 106.816 53.2908 106.893C53.468 106.971 53.6639 107.01 53.8784 107.01L53.8821 107.012Z" fill="#734BDF"/>
<path d="M63.0985 103.948C63.0911 103.84 63.0724 103.763 63.0463 103.72C63.0183 103.677 62.9903 103.642 62.9586 103.616C62.9232 103.588 62.8784 103.573 62.8243 103.565C62.7702 103.56 62.7105 103.556 62.649 103.556L62.6191 103.532L62.6024 103.427L62.6135 103.422H64.033L64.0442 103.427L64.0274 103.532L64.0032 103.556C63.9416 103.556 63.8819 103.56 63.8241 103.565C63.7682 103.571 63.7215 103.588 63.6861 103.616C63.6544 103.644 63.6245 103.679 63.5947 103.724C63.5648 103.769 63.5462 103.843 63.5387 103.95C63.535 104.004 63.5313 104.054 63.5294 104.101C63.5275 104.147 63.5257 104.202 63.5257 104.265V106.252C63.5257 106.341 63.5257 106.419 63.5294 106.485C63.5313 106.552 63.535 106.613 63.5387 106.671C63.5425 106.729 63.5462 106.796 63.5499 106.869C63.5537 106.944 63.5947 106.979 63.673 106.979H64.1692C64.4024 106.979 64.5796 106.973 64.6971 106.964C64.8164 106.955 64.9023 106.934 64.9545 106.903C65.0067 106.871 65.0384 106.824 65.0515 106.759C65.0627 106.695 65.0832 106.61 65.1093 106.505L65.1261 106.481H65.2772L65.1727 107.218L65.1261 107.276H62.6079L62.5968 107.27L62.6135 107.166L62.6434 107.141C62.7049 107.141 62.7646 107.138 62.8187 107.132C62.8728 107.126 62.9176 107.11 62.953 107.082C62.9847 107.054 63.0127 107.016 63.0407 106.964C63.0687 106.914 63.0873 106.841 63.0985 106.748C63.1022 106.72 63.106 106.688 63.1078 106.651C63.1097 106.613 63.1116 106.569 63.1116 106.513V104.493C63.1116 104.399 63.1116 104.319 63.1078 104.254C63.106 104.189 63.1041 104.131 63.1023 104.084C63.1004 104.037 63.0967 103.991 63.0929 103.944L63.0985 103.948Z" fill="#734BDF"/>
<path d="M73.1524 103.948C73.1449 103.84 73.1263 103.763 73.1001 103.72C73.0722 103.677 73.0442 103.642 73.0125 103.616C72.977 103.588 72.9323 103.573 72.8782 103.565C72.8241 103.56 72.7644 103.556 72.7028 103.556L72.673 103.532L72.6562 103.427L72.6674 103.422H74.0869L74.0981 103.427L74.0813 103.532L74.057 103.556C73.9955 103.556 73.9358 103.56 73.8798 103.565C73.8239 103.571 73.7772 103.588 73.7418 103.616C73.7101 103.644 73.6802 103.679 73.6504 103.724C73.6206 103.769 73.6019 103.843 73.5944 103.95C73.5907 104.004 73.587 104.054 73.5851 104.101C73.5833 104.147 73.5814 104.202 73.5814 104.265V106.252C73.5814 106.341 73.5814 106.419 73.5851 106.485C73.587 106.552 73.5907 106.613 73.5944 106.671C73.5982 106.729 73.6019 106.796 73.6056 106.869C73.6094 106.944 73.6504 106.979 73.7287 106.979H74.2249C74.4581 106.979 74.6353 106.973 74.7528 106.964C74.8722 106.955 74.958 106.934 75.0102 106.903C75.0624 106.871 75.0941 106.824 75.1072 106.759C75.1184 106.695 75.1389 106.61 75.165 106.505L75.1818 106.481H75.3329L75.2284 107.218L75.1818 107.276H72.6655L72.6543 107.27L72.6711 107.166L72.701 107.141C72.7625 107.141 72.8222 107.138 72.8763 107.132C72.9304 107.126 72.9752 107.11 73.0106 107.082C73.0423 107.054 73.0703 107.016 73.0983 106.964C73.1263 106.914 73.1449 106.841 73.1561 106.748C73.1598 106.72 73.1636 106.688 73.1654 106.651C73.1673 106.613 73.1692 106.569 73.1692 106.513V104.493C73.1692 104.399 73.1692 104.319 73.1654 104.254C73.1636 104.189 73.1617 104.131 73.1598 104.084C73.158 104.037 73.1542 103.991 73.1505 103.944L73.1524 103.948Z" fill="#734BDF"/>
<path d="M84.3143 103.424H85.2954L85.3253 103.476L85.301 104.112H85.1555L85.1313 104.088C85.1238 103.996 85.1126 103.925 85.0996 103.875C85.0865 103.825 85.0473 103.785 84.9821 103.763C84.9186 103.739 84.8216 103.728 84.6929 103.728H83.5887L83.5775 103.953C83.5738 104.015 83.57 104.067 83.5682 104.108C83.5663 104.151 83.5644 104.203 83.5626 104.265C83.5607 104.326 83.5588 104.401 83.5588 104.487V105.112H84.2285C84.3236 105.112 84.4038 105.104 84.471 105.091C84.5363 105.078 84.581 105.058 84.6053 105.03C84.637 104.998 84.6631 104.966 84.6873 104.934C84.7116 104.903 84.7228 104.858 84.7228 104.798L84.7526 104.77L84.8515 104.759L84.8757 104.77C84.8683 104.86 84.8608 104.938 84.8552 105.003C84.8496 105.069 84.8459 105.145 84.8459 105.231C84.8459 105.324 84.8496 105.41 84.8552 105.49C84.8608 105.571 84.8683 105.656 84.8757 105.75L84.8515 105.761L84.747 105.75L84.7228 105.733C84.7228 105.669 84.7116 105.612 84.6873 105.557C84.6631 105.503 84.637 105.46 84.6053 105.423C84.581 105.399 84.5363 105.382 84.471 105.369C84.4038 105.358 84.3255 105.35 84.2322 105.35H83.5607V106.255C83.5607 106.343 83.5607 106.419 83.5644 106.488C83.5663 106.555 83.57 106.619 83.5738 106.675C83.5775 106.731 83.5831 106.796 83.5905 106.869C83.5905 106.943 83.6297 106.979 83.7081 106.979H84.2042C84.4374 106.979 84.622 106.973 84.7563 106.964C84.8906 106.955 84.9932 106.934 85.0623 106.902C85.1331 106.871 85.1816 106.824 85.2115 106.759C85.2413 106.695 85.2693 106.61 85.2954 106.505L85.3197 106.481H85.4708L85.3663 107.218L85.3197 107.275H82.6448L82.6337 107.27L82.6504 107.165L82.6803 107.141C82.7418 107.141 82.8015 107.137 82.8556 107.132C82.9097 107.126 82.9545 107.109 82.9899 107.081C83.0216 107.053 83.0515 107.02 83.0813 106.977C83.1112 106.934 83.1298 106.858 83.1373 106.749C83.1373 106.721 83.1373 106.69 83.141 106.652C83.1429 106.615 83.1447 106.57 83.1466 106.514C83.1485 106.46 83.1503 106.393 83.1503 106.317V104.255C83.1503 104.19 83.1503 104.132 83.1466 104.086C83.1447 104.039 83.141 103.992 83.1373 103.946C83.1298 103.841 83.1112 103.765 83.0813 103.72C83.0515 103.675 83.0216 103.64 82.9899 103.612C82.9545 103.584 82.9097 103.569 82.8556 103.562C82.8015 103.556 82.7418 103.552 82.6803 103.552L82.6504 103.528L82.6337 103.424L82.6448 103.418H84.3143V103.424Z" fill="#734BDF"/>
<path d="M95.3828 104.129C95.3717 104.043 95.3343 103.97 95.2709 103.912C95.2094 103.855 95.131 103.808 95.0396 103.772C94.9482 103.737 94.8475 103.713 94.7356 103.7C94.6237 103.687 94.5136 103.679 94.4054 103.679C94.0193 103.679 93.7171 103.767 93.4952 103.942C93.3124 104.09 93.1743 104.287 93.0829 104.532C92.9915 104.778 92.9449 105.046 92.9449 105.337C92.9449 105.614 92.9841 105.856 93.0643 106.065C93.1445 106.274 93.2545 106.447 93.3944 106.587C93.5343 106.727 93.7003 106.833 93.8943 106.906C94.0865 106.979 94.2973 107.014 94.523 107.014C94.6834 107.014 94.8662 106.992 95.0751 106.947C95.284 106.902 95.4817 106.817 95.6682 106.688L95.7261 106.751L95.5973 107.014C95.4034 107.119 95.2094 107.197 95.0154 107.246C94.8214 107.294 94.6237 107.318 94.4166 107.318C94.1238 107.318 93.8589 107.272 93.622 107.179C93.3851 107.085 93.1818 106.953 93.0121 106.779C92.8423 106.606 92.7118 106.401 92.6185 106.162C92.5252 105.923 92.4786 105.658 92.4786 105.365C92.4786 105.093 92.5196 104.836 92.6036 104.593C92.6875 104.351 92.8125 104.14 92.9766 103.961C93.1426 103.782 93.346 103.64 93.5903 103.536C93.8328 103.431 94.1163 103.379 94.4409 103.379H94.689C94.7841 103.379 94.8848 103.386 94.9893 103.403C95.0937 103.42 95.2019 103.44 95.3101 103.468C95.4183 103.495 95.5246 103.528 95.6253 103.569L95.6421 103.625L95.5656 104.157H95.3959L95.3791 104.132L95.3828 104.129Z" fill="#734BDF"/>
<path d="M104.955 107.303H103.366L103.355 107.297L103.372 107.192L103.402 107.168C103.463 107.168 103.534 107.164 103.612 107.159C103.691 107.153 103.745 107.137 103.777 107.109C103.808 107.081 103.84 107.047 103.875 107.004C103.911 106.961 103.931 106.885 103.939 106.777C103.943 106.749 103.946 106.717 103.948 106.68C103.95 106.642 103.952 106.597 103.954 106.541C103.956 106.487 103.958 106.42 103.958 106.344V104.866C103.958 104.613 103.956 104.389 103.952 104.191C103.948 103.995 103.944 103.846 103.941 103.744H103.398C103.273 103.744 103.172 103.747 103.098 103.753C103.021 103.758 102.965 103.766 102.928 103.773C102.891 103.781 102.864 103.792 102.85 103.803C102.764 103.85 102.712 103.952 102.691 104.109L102.667 104.133H102.532L102.573 103.467L102.598 103.415L102.633 103.398C102.665 103.411 102.732 103.425 102.838 103.436C102.943 103.447 103.058 103.453 103.183 103.453H105.135C105.259 103.453 105.373 103.447 105.48 103.436C105.584 103.425 105.653 103.411 105.685 103.398L105.72 103.415L105.744 103.467L105.791 104.133H105.651L105.627 104.109C105.608 103.952 105.554 103.85 105.468 103.803C105.453 103.792 105.427 103.781 105.39 103.773C105.353 103.766 105.297 103.758 105.22 103.753C105.144 103.747 105.045 103.744 104.92 103.744H104.383C104.379 103.857 104.375 104.005 104.373 104.187C104.372 104.37 104.37 104.594 104.37 104.859V106.275C104.37 106.362 104.37 106.435 104.373 106.493C104.375 106.551 104.377 106.601 104.379 106.642C104.381 106.683 104.385 106.726 104.388 106.773C104.396 106.881 104.418 106.957 104.452 107C104.487 107.043 104.521 107.079 104.551 107.105C104.582 107.133 104.636 107.148 104.715 107.155C104.793 107.161 104.862 107.164 104.926 107.164L104.955 107.189L104.972 107.293L104.961 107.299L104.955 107.303Z" fill="#734BDF"/>
<path d="M114.935 103.429L114.918 103.534L114.894 103.558C114.832 103.558 114.773 103.562 114.717 103.567C114.661 103.573 114.614 103.59 114.579 103.618C114.547 103.646 114.519 103.679 114.491 103.722C114.463 103.765 114.446 103.842 114.439 103.95C114.435 104.004 114.431 104.054 114.429 104.101C114.427 104.147 114.426 104.202 114.424 104.265C114.422 104.327 114.42 104.403 114.42 104.493V106.253C114.42 106.341 114.42 106.414 114.424 106.472C114.426 106.529 114.427 106.58 114.429 106.621C114.431 106.662 114.435 106.705 114.439 106.751C114.446 106.86 114.465 106.936 114.491 106.979C114.519 107.022 114.547 107.057 114.579 107.083C114.614 107.111 114.659 107.126 114.717 107.134C114.773 107.139 114.832 107.143 114.894 107.143L114.918 107.167L114.935 107.272L114.924 107.277H113.504L113.493 107.272L113.51 107.167L113.54 107.143C113.601 107.143 113.661 107.139 113.715 107.134C113.769 107.128 113.814 107.111 113.849 107.083C113.881 107.055 113.911 107.022 113.941 106.979C113.97 106.936 113.989 106.86 113.997 106.751C113.997 106.723 113.997 106.692 114 106.654C114.002 106.617 114.004 106.572 114.006 106.516C114.008 106.462 114.01 106.395 114.01 106.319V104.496C114.01 104.403 114.01 104.323 114.006 104.258C114.004 104.192 114.002 104.134 114 104.088C113.998 104.041 113.995 103.995 113.991 103.948C113.984 103.847 113.965 103.773 113.939 103.726C113.911 103.679 113.883 103.642 113.851 103.616C113.816 103.588 113.771 103.573 113.717 103.565C113.663 103.56 113.603 103.556 113.541 103.556L113.512 103.532L113.495 103.427L113.506 103.422H114.926L114.937 103.427L114.935 103.429Z" fill="#734BDF"/>
<path d="M124.267 103.375C124.571 103.375 124.841 103.427 125.078 103.534C125.315 103.638 125.515 103.782 125.677 103.963C125.839 104.143 125.962 104.352 126.048 104.591C126.134 104.828 126.177 105.078 126.177 105.339C126.177 105.6 126.136 105.845 126.052 106.083C125.968 106.322 125.845 106.535 125.681 106.718C125.517 106.9 125.313 107.048 125.071 107.158C124.828 107.268 124.547 107.324 124.228 107.324C123.909 107.324 123.644 107.272 123.413 107.165C123.181 107.061 122.985 106.919 122.829 106.742C122.67 106.565 122.553 106.358 122.476 106.123C122.398 105.888 122.359 105.639 122.359 105.378C122.359 105.102 122.402 104.841 122.487 104.599C122.573 104.356 122.698 104.143 122.86 103.963C123.025 103.782 123.224 103.638 123.461 103.534C123.698 103.429 123.967 103.375 124.267 103.375ZM124.261 107.012C124.494 107.012 124.701 106.969 124.882 106.882C125.063 106.794 125.216 106.675 125.341 106.522C125.466 106.371 125.561 106.193 125.627 105.99C125.692 105.787 125.725 105.572 125.725 105.341C125.725 105.11 125.692 104.89 125.623 104.686C125.554 104.483 125.457 104.308 125.328 104.158C125.199 104.009 125.043 103.892 124.858 103.808C124.673 103.724 124.465 103.683 124.23 103.683C123.994 103.683 123.797 103.724 123.62 103.808C123.442 103.892 123.293 104.007 123.172 104.155C123.051 104.302 122.961 104.477 122.9 104.677C122.84 104.878 122.808 105.097 122.808 105.334C122.808 105.595 122.844 105.828 122.913 106.035C122.983 106.242 123.082 106.417 123.211 106.561C123.34 106.705 123.493 106.816 123.67 106.893C123.847 106.971 124.043 107.01 124.257 107.01L124.261 107.012Z" fill="#734BDF"/>
<path d="M136.262 103.425L136.251 103.527L136.221 103.55C136.16 103.55 136.1 103.553 136.042 103.559C135.986 103.564 135.942 103.581 135.912 103.609C135.88 103.637 135.852 103.671 135.828 103.714C135.802 103.757 135.787 103.833 135.778 103.941C135.774 103.995 135.77 104.046 135.768 104.094C135.766 104.141 135.764 104.195 135.763 104.258C135.761 104.32 135.759 104.396 135.759 104.486V105.859C135.759 106.077 135.759 106.256 135.763 106.396C135.764 106.536 135.766 106.655 135.768 106.756C135.77 106.855 135.774 106.944 135.779 107.023C135.785 107.101 135.792 107.187 135.8 107.28L135.753 107.297H135.391L135.334 107.226L133.254 104.102C133.254 104.141 133.254 104.18 133.25 104.219C133.248 104.258 133.246 104.305 133.246 104.363V106.092C133.246 106.168 133.246 106.247 133.25 106.329C133.252 106.411 133.254 106.489 133.256 106.566C133.258 106.642 133.261 106.704 133.265 106.75C133.272 106.847 133.289 106.92 133.315 106.969C133.341 107.017 133.373 107.054 133.412 107.082C133.444 107.107 133.485 107.122 133.535 107.129C133.586 107.137 133.651 107.14 133.728 107.14L133.757 107.164L133.774 107.269L133.763 107.275H132.39L132.379 107.269L132.396 107.164L132.426 107.14C132.496 107.14 132.554 107.137 132.603 107.131C132.651 107.125 132.696 107.109 132.733 107.081C132.761 107.062 132.789 107.028 132.817 106.984C132.847 106.939 132.868 106.86 132.879 106.747C132.883 106.719 132.886 106.687 132.888 106.65C132.89 106.612 132.892 106.568 132.892 106.512V104.249C132.892 104.182 132.892 104.126 132.888 104.079C132.886 104.033 132.883 103.986 132.879 103.939C132.871 103.857 132.853 103.788 132.827 103.732C132.799 103.676 132.769 103.633 132.733 103.607C132.698 103.579 132.655 103.564 132.603 103.557C132.551 103.551 132.491 103.548 132.426 103.548L132.396 103.525L132.379 103.423L132.39 103.398C132.418 103.398 132.457 103.398 132.51 103.404C132.562 103.408 132.616 103.41 132.67 103.413C132.724 103.417 132.778 103.419 132.83 103.423C132.883 103.426 132.924 103.428 132.95 103.428H133.285C133.341 103.428 133.388 103.423 133.424 103.411L133.453 103.428C133.468 103.482 133.502 103.557 133.55 103.654C133.599 103.749 133.657 103.855 133.726 103.973C133.795 104.09 133.867 104.214 133.948 104.346C134.028 104.478 134.108 104.609 134.19 104.738C134.487 105.213 134.744 105.599 134.964 105.9C135.184 106.2 135.326 106.394 135.388 106.484C135.388 106.456 135.388 106.431 135.391 106.407C135.393 106.383 135.395 106.357 135.395 106.325V104.49C135.395 104.396 135.395 104.316 135.391 104.249C135.39 104.182 135.388 104.126 135.386 104.079C135.384 104.033 135.38 103.986 135.376 103.939C135.369 103.831 135.35 103.755 135.324 103.712C135.296 103.669 135.268 103.633 135.237 103.607C135.201 103.579 135.156 103.563 135.099 103.557C135.043 103.551 134.983 103.548 134.921 103.548L134.897 103.525L134.88 103.423L134.891 103.398C134.919 103.398 134.957 103.398 135.009 103.404C135.059 103.408 135.112 103.41 135.164 103.413C135.216 103.417 135.268 103.419 135.319 103.423C135.369 103.426 135.408 103.428 135.436 103.428H135.828C135.878 103.428 135.93 103.426 135.986 103.423C136.041 103.419 136.093 103.415 136.145 103.411C136.195 103.408 136.235 103.404 136.262 103.4L136.268 103.425H136.262Z" fill="#734BDF"/>
<path d="M115.931 44.7158L96.2484 43.7383L89.2367 25.3203L82.2251 43.7383L62.5426 44.7158L77.8921 57.0753L72.7383 76.0977L89.2367 65.3181L105.735 76.0977L100.581 57.0753L115.931 44.7158ZM104.892 74.9375L104.873 74.9263L89.2367 53.8763V64.71L73.6 74.9263L89.2367 53.8763L78.4684 56.9018L78.4722 56.8888L63.936 45.184L89.2367 53.8763L82.5758 44.2345H82.5851L89.2386 26.7585V53.8763L95.9014 44.2345L114.569 45.1616L114.541 45.184L89.2405 53.8763L100.009 56.9018L104.894 74.9375H104.892Z" fill="#734BDF"/>
<path d="M106.157 76.6772L89.2368 65.6234L72.3168 76.6772L77.6011 57.1679L61.86 44.4913L82.0461 43.4896L89.2368 24.6016L96.4275 43.4896L116.614 44.4913L100.872 57.1679L106.157 76.6772ZM73.1599 75.5151L89.2368 65.0116L104.76 75.1532L104.694 75.1103L89.4923 54.6442V64.8437L73.1599 75.5132V75.5151ZM68.5414 49.2161L78.1831 56.9795L78.1402 57.14L73.3445 74.8399L88.5877 54.3196L78.1085 57.2649L78.185 56.9795L68.5433 49.2161H68.5414ZM88.9812 54.6461L74.6596 73.9259L88.9812 64.5695V54.6461ZM89.8878 54.3215L104.297 73.7207L99.7962 57.1064L89.8878 54.3215ZM90.093 53.8496L100.214 56.6942L100.292 56.9814L100.423 56.877L114.664 45.409L114.621 45.424L90.093 53.8514V53.8496ZM65.2305 45.8959L78.5412 56.6139L88.3806 53.8496L65.2305 45.8959ZM63.9118 44.9017L64.0181 44.939L88.5858 53.3795L82.1058 43.9989L63.9118 44.9017ZM96.0283 44.4932L89.8878 53.3795L113.262 45.3494L96.0283 44.4932ZM89.4923 26.7075V53.0549L95.769 43.969L96.0693 43.984L96.0096 43.8291L89.4923 26.7094V26.7075ZM82.8668 44.2041L88.9812 53.0549V28.1438L82.8668 44.2041ZM115.246 44.9353L114.702 45.3755L115.248 44.9353H115.246Z" fill="#734BDF"/>
</svg>
