<svg width="120" height="120" viewBox="0 0 120 120" fill="none" xmlns="http://www.w3.org/2000/svg">
<circle cx="60" cy="60" r="60" fill="#734BDF"/>
<path d="M64.7002 16.9538C63.785 16.8463 63.0193 16.5581 62.4032 16.0893C61.7967 15.6128 61.3564 15.0017 61.0823 14.2559C60.8179 13.5024 60.7407 12.6608 60.8506 11.7311C60.9605 10.8014 61.2319 10.0008 61.6648 9.32925C62.1063 8.65875 62.6776 8.16205 63.3785 7.83917C64.0882 7.51731 64.9006 7.41014 65.8158 7.51767C66.9227 7.64772 67.7968 8.02793 68.438 8.65828C69.0793 9.28863 69.428 10.1137 69.4842 11.1334L67.5624 10.9076C67.5066 10.4077 67.3116 10.0015 66.9774 9.68917C66.6529 9.36914 66.1987 9.17482 65.6147 9.1062C65.0743 9.04271 64.5926 9.11826 64.1696 9.33284C63.7563 9.53976 63.4173 9.86553 63.1527 10.3102C62.8891 10.7461 62.7187 11.2899 62.6417 11.9416C62.5657 12.5845 62.6045 13.1529 62.7582 13.6467C62.9119 14.1405 63.1656 14.5359 63.5193 14.8329C63.8818 15.131 64.3332 15.3118 64.8736 15.3753C65.4575 15.4439 65.9431 15.3732 66.3302 15.1632C66.7184 14.9445 66.9963 14.6116 67.1641 14.1644L69.099 14.3917C68.8127 15.3183 68.2847 16.0095 67.5151 16.4653C66.7454 16.921 65.8071 17.0839 64.7002 16.9538Z" fill="white"/>
<path d="M73.7408 19.0083C73.1439 18.8017 72.6524 18.4789 72.2665 18.0398C71.8918 17.5953 71.6483 17.0804 71.5362 16.4952C71.4352 15.9046 71.4955 15.2911 71.7171 14.6547C71.9444 14.0017 72.2797 13.4787 72.7231 13.0857C73.1776 12.6873 73.6928 12.4349 74.2687 12.3285C74.8474 12.2139 75.4352 12.2598 76.0322 12.4663C76.6374 12.6757 77.1274 13.0027 77.5022 13.4472C77.8881 13.8864 78.1316 14.4012 78.2325 14.9918C78.3446 15.577 78.2885 16.192 78.0641 16.8367C77.8396 17.4814 77.5001 18.0029 77.0456 18.4013C76.6022 18.7943 76.0912 19.0481 75.5125 19.1628C74.9366 19.2692 74.3461 19.2177 73.7408 19.0083ZM74.2458 17.5577C74.5277 17.6552 74.7995 17.6752 75.0611 17.6175C75.331 17.5627 75.5756 17.4204 75.7949 17.1907C76.0225 16.9638 76.2068 16.6479 76.3478 16.2429C76.4888 15.8379 76.539 15.4802 76.4984 15.1698C76.469 14.854 76.3654 14.5913 76.1876 14.3816C76.0209 14.1665 75.8008 14.0116 75.5272 13.9169C75.2619 13.8251 74.9928 13.8108 74.7201 13.8738C74.4502 13.9286 74.2014 14.0695 73.9738 14.2963C73.7574 14.5178 73.5786 14.831 73.4376 15.236C73.2967 15.641 73.2409 16.0014 73.2703 16.3172C73.308 16.6359 73.4116 16.8986 73.5811 17.1055C73.7589 17.3152 73.9805 17.4659 74.2458 17.5577Z" fill="white"/>
<path d="M78.983 20.8847L82.3289 15.1731L83.6817 15.9607L83.251 16.9561C83.6111 16.7403 84.0079 16.6268 84.4413 16.6157C84.8822 16.609 85.3263 16.7358 85.7734 16.9961C86.2508 17.2741 86.595 17.6061 86.8058 17.9923C87.0166 18.3785 87.0947 18.8089 87.0401 19.2838C86.9931 19.763 86.8081 20.2784 86.485 20.8299L84.5531 24.1277L83.0299 23.2408L84.8754 20.0904C85.141 19.6371 85.2461 19.2322 85.1906 18.8757C85.1428 18.5236 84.9181 18.2307 84.5164 17.9968C84.2587 17.8468 83.9922 17.7727 83.7168 17.7744C83.4489 17.7806 83.1917 17.8639 82.9453 18.0244C82.7033 18.1773 82.4893 18.4124 82.3034 18.7297L80.5176 21.7782L78.983 20.8847Z" fill="white"/>
<path d="M88.3981 27.2274C88.0396 26.932 87.7698 26.6189 87.5886 26.288C87.4199 25.956 87.3673 25.6005 87.4309 25.2217C87.5001 24.836 87.7221 24.4173 88.0967 23.9655L89.8914 21.8007L89.0187 21.0817L89.9664 19.9386L90.8391 20.6576L92.1402 19.3972L93.3579 20.4004L92.2089 21.7863L93.5585 22.8983L92.6108 24.0413L91.2612 22.9294L89.4497 25.1144C89.2596 25.3437 89.179 25.5439 89.2078 25.7152C89.2366 25.8865 89.3727 26.0725 89.6163 26.2731L90.286 26.8249L89.3215 27.9882L88.3981 27.2274Z" fill="white"/>
<path d="M92.0264 30.9743C91.6605 30.5611 91.4242 30.1621 91.3177 29.7774C91.2177 29.3869 91.2215 29.0276 91.329 28.6995C91.4489 28.3723 91.647 28.087 91.9234 27.8438C92.226 27.5775 92.5593 27.4184 92.9231 27.3666C93.2928 27.3213 93.6799 27.395 94.0845 27.5874C94.4949 27.7864 94.9091 28.1221 95.3273 28.5943L96.4164 29.8241C96.6598 29.6099 96.8314 29.4005 96.9312 29.1959C97.0376 28.9856 97.0693 28.7768 97.0263 28.5696C96.9833 28.3623 96.8601 28.144 96.6568 27.9144C96.4361 27.6652 96.1914 27.5012 95.9228 27.4226C95.6665 27.3447 95.4091 27.3845 95.1505 27.542L94.0092 26.2532C94.3935 25.9733 94.8011 25.8188 95.232 25.7898C95.6752 25.7615 96.1144 25.8476 96.5495 26.0482C96.9905 26.2553 97.391 26.5622 97.7511 26.9688C98.1635 27.4345 98.4418 27.9074 98.5859 28.3874C98.73 28.8674 98.7354 29.3295 98.6019 29.7738C98.4685 30.218 98.1847 30.6312 97.7504 31.0133L94.6714 33.7232L93.6782 32.6016L94.3074 31.7852C94.1119 31.8289 93.918 31.8478 93.7256 31.8421C93.5332 31.8364 93.3394 31.8027 93.1443 31.741C92.9492 31.6793 92.7593 31.5838 92.5746 31.4546C92.3834 31.3311 92.2006 31.171 92.0264 30.9743ZM93.3315 30.3858C93.4825 30.5563 93.6457 30.6811 93.8211 30.7602C94.0089 30.84 94.1989 30.8828 94.3913 30.8886C94.5903 30.8885 94.7821 30.8539 94.9667 30.7848C95.1637 30.7164 95.3532 30.6197 95.5351 30.4946L95.545 30.486L94.6476 29.4726C94.4676 29.2693 94.2931 29.1252 94.1243 29.0403C93.9679 28.9563 93.8175 28.9252 93.6731 28.9473C93.5288 28.9693 93.3974 29.0324 93.2789 29.1366C93.1474 29.2525 93.0649 29.3775 93.0317 29.5118C92.9984 29.6461 93.0081 29.7893 93.0608 29.9413C93.1135 30.0933 93.2037 30.2415 93.3315 30.3858Z" fill="white"/>
<path d="M97.3654 38.1522C97.0224 37.582 96.8456 36.999 96.8352 36.4034C96.8248 35.8077 96.9671 35.2533 97.2622 34.7402C97.5573 34.2271 97.9909 33.7996 98.5629 33.4576C99.1499 33.1066 99.74 32.9221 100.333 32.9042C100.934 32.8819 101.495 33.0155 102.017 33.3052C102.547 33.5904 102.983 34.0181 103.326 34.5883C103.764 35.3161 103.94 36.0424 103.854 36.7671C103.768 37.4918 103.431 38.1219 102.842 38.6575L101.874 37.048C102.097 36.823 102.218 36.5567 102.238 36.2491C102.262 35.949 102.186 35.6527 102.01 35.3601C101.852 35.0974 101.642 34.9016 101.38 34.7725C101.13 34.6464 100.841 34.5999 100.513 34.6328C100.197 34.6687 99.866 34.7902 99.5198 34.9972C99.2564 35.1547 99.0396 35.3302 98.8695 35.5237C98.7069 35.7128 98.5865 35.9123 98.5082 36.1224C98.4374 36.3279 98.414 36.5357 98.4381 36.7458C98.4666 36.9633 98.5396 37.1697 98.6569 37.3648C98.7743 37.5598 98.9142 37.7159 99.0768 37.833C99.2438 37.9575 99.4214 38.0401 99.6095 38.0807C99.8052 38.1167 100.007 38.1032 100.215 38.0403L101.183 39.6497C100.447 39.9061 99.7318 39.9 99.038 39.6313C98.3563 39.3655 97.7987 38.8725 97.3654 38.1522Z" fill="white"/>
<path d="M100.949 45.2196C100.777 44.7889 100.691 44.3851 100.692 44.0081C100.703 43.6361 100.828 43.2991 101.067 42.9972C101.313 42.692 101.709 42.4309 102.256 42.2138L104.872 41.1736L104.453 40.1253L105.835 39.576L106.254 40.6244L108.003 40.1414L108.588 41.6042L106.912 42.2701L107.561 43.8914L106.179 44.4407L105.531 42.8193L102.889 43.8692C102.612 43.9794 102.445 44.1165 102.388 44.2805C102.331 44.4445 102.36 44.6728 102.477 44.9654L102.799 45.77L101.393 46.3289L100.949 45.2196Z" fill="white"/>
<path d="M103.281 55.727C103.209 55.0573 103.278 54.4338 103.488 53.8566C103.699 53.2794 104.058 52.8006 104.564 52.4203C105.07 52.04 105.741 51.8045 106.579 51.7139L112.207 51.1055L112.398 52.8668L106.757 53.4767C106.304 53.5258 105.928 53.6412 105.63 53.823C105.341 54.0039 105.137 54.2416 105.019 54.5359C104.902 54.839 104.865 55.1863 104.907 55.5777C104.951 55.9778 105.062 56.309 105.24 56.5713C105.42 56.8423 105.67 57.0352 105.992 57.1501C106.322 57.264 106.714 57.2964 107.168 57.2473L112.808 56.6374L113 58.3988L107.372 59.0073C106.535 59.0978 105.828 59.0071 105.251 58.7351C104.674 58.463 104.219 58.0589 103.887 57.5228C103.556 56.9954 103.354 56.3968 103.281 55.727Z" fill="white"/>
<path d="M103.395 64.3668C103.446 63.7652 103.586 63.2502 103.816 62.8217C104.046 62.3932 104.342 62.0668 104.704 61.8426C105.067 61.6184 105.464 61.5068 105.895 61.5078L105.747 63.2602C105.578 63.2898 105.418 63.3511 105.27 63.444C105.13 63.5376 105.013 63.6683 104.919 63.8361C104.826 64.0039 104.769 64.2098 104.748 64.4539C104.729 64.6893 104.743 64.8837 104.792 65.037C104.849 65.1911 104.932 65.3078 105.04 65.3871C105.147 65.475 105.261 65.5242 105.384 65.5344C105.568 65.5498 105.712 65.5093 105.817 65.4127C105.931 65.3169 106.027 65.1713 106.105 64.9759C106.183 64.7805 106.265 64.5415 106.35 64.2589C106.438 63.9502 106.538 63.6469 106.651 63.3491C106.773 63.0608 106.913 62.8048 107.073 62.5811C107.233 62.3574 107.428 62.185 107.658 62.0639C107.889 61.9427 108.166 61.8957 108.489 61.9228C108.883 61.9558 109.224 62.0897 109.512 62.3246C109.809 62.5603 110.033 62.8863 110.183 63.3027C110.332 63.7192 110.383 64.2107 110.336 64.7774C110.269 65.5708 110.037 66.1835 109.639 66.6155C109.241 67.0475 108.724 67.2807 108.087 67.3151L108.227 65.6543C108.433 65.6188 108.6 65.5143 108.729 65.3408C108.866 65.1767 108.948 64.9464 108.973 64.65C108.999 64.3361 108.962 64.0916 108.863 63.9164C108.763 63.7413 108.621 63.646 108.438 63.6306C108.315 63.6203 108.201 63.6635 108.096 63.76C107.991 63.8653 107.894 64.0152 107.807 64.2099C107.729 64.4053 107.648 64.6443 107.562 64.9268C107.414 65.4237 107.255 65.8581 107.082 66.2299C106.919 66.6026 106.701 66.8872 106.429 67.0839C106.166 67.2813 105.798 67.3603 105.326 67.3207C104.906 67.2855 104.539 67.1406 104.226 66.8861C103.922 66.6323 103.695 66.2884 103.547 65.8546C103.398 65.4294 103.347 64.9335 103.395 64.3668Z" fill="white"/>
<path d="M105.792 76.5503L107.442 77.4064L106.824 75.6651L108.154 75.4304L108.199 77.2455L109.376 75.8822L110.207 76.8355L108.626 77.8449L110.467 78.2114L110.03 79.4217L108.382 78.5241L108.956 80.3059L107.723 80.5055L107.666 78.686L106.467 80.0695L105.608 79.0782L107.192 78.098L105.364 77.7359L105.792 76.5503Z" fill="white"/>
<path d="M94.8313 86.8869C95.381 86.1496 96.0133 85.6316 96.7282 85.3328C97.4448 85.0463 98.1958 84.9705 98.9809 85.1054C99.7679 85.2525 100.538 85.6053 101.292 86.1638C102.045 86.7223 102.606 87.356 102.975 88.0649C103.337 88.7807 103.484 89.522 103.416 90.2888C103.342 91.0625 103.03 91.818 102.48 92.5553C101.815 93.447 101.049 94.0128 100.181 94.2528C99.3134 94.4927 98.4221 94.3827 97.5074 93.9229L98.6619 92.3747C99.1244 92.5757 99.5747 92.6096 100.013 92.4765C100.453 92.3557 100.848 92.06 101.199 91.5896C101.524 91.1542 101.698 90.7003 101.723 90.2277C101.749 89.7674 101.634 89.3121 101.38 88.8617C101.132 88.4165 100.744 87.9982 100.216 87.6068C99.6947 87.2205 99.1811 86.9707 98.6751 86.8574C98.1691 86.7441 97.6988 86.7662 97.2642 86.9238C96.8243 87.0884 96.4421 87.3883 96.1175 87.8237C95.7667 88.2941 95.5861 88.749 95.5757 89.1882C95.5723 89.6327 95.7232 90.0389 96.0285 90.4068L94.8662 91.9656C94.2031 91.2562 93.8653 90.4554 93.8527 89.563C93.8402 88.6707 94.1663 87.7786 94.8313 86.8869Z" fill="white"/>
<path d="M88.5372 93.6875C89.0135 93.2736 89.5387 93.0088 90.1127 92.893C90.6858 92.7895 91.255 92.8346 91.8202 93.0283C92.3845 93.2343 92.8886 93.5912 93.3327 94.0991C93.7882 94.6201 94.077 95.17 94.1989 95.7489C94.3199 96.34 94.2838 96.9112 94.0903 97.4622C93.9027 98.0199 93.5707 98.5057 93.0944 98.9196C92.6114 99.3393 92.0834 99.6008 91.5102 99.7043C90.9362 99.82 90.367 99.7749 89.8027 99.5689C89.2376 99.3753 88.7301 99.0212 88.2803 98.5068C87.8305 97.9923 87.5451 97.4395 87.424 96.8484C87.3021 96.2695 87.335 95.7013 87.5226 95.1436C87.716 94.5925 88.0542 94.1072 88.5372 93.6875ZM89.5492 94.845C89.3243 95.0404 89.1719 95.2657 89.0922 95.5207C89.0058 95.7814 89.0082 96.0637 89.0992 96.3676C89.1837 96.6772 89.3672 96.9936 89.6497 97.3168C89.9323 97.64 90.2188 97.8611 90.5092 97.9801C90.7987 98.1116 91.0789 98.1524 91.3498 98.1027C91.6198 98.0654 91.864 97.9518 92.0823 97.7621C92.294 97.5782 92.4402 97.3525 92.5208 97.0852C92.6071 96.8244 92.6081 96.5393 92.5236 96.2296C92.4384 95.9324 92.2544 95.6221 91.9719 95.299C91.6893 94.9758 91.4033 94.7485 91.1137 94.6171C90.8176 94.4914 90.5374 94.4506 90.2731 94.4945C90.0022 94.5442 89.7609 94.661 89.5492 94.845Z" fill="white"/>
<path d="M84.3019 97.2925L87.6206 103.02L86.2641 103.801L85.6101 102.935C85.6197 103.354 85.522 103.753 85.317 104.134C85.1043 104.519 84.7738 104.841 84.3254 105.099C83.8467 105.375 83.3868 105.508 82.9459 105.5C82.505 105.491 82.0912 105.345 81.7046 105.063C81.3103 104.784 80.9529 104.369 80.6325 103.816L78.7164 100.509L80.2438 99.6293L82.0744 102.788C82.3377 103.243 82.6385 103.535 82.9765 103.663C83.307 103.796 83.6736 103.747 84.0764 103.515C84.3347 103.366 84.5314 103.172 84.6664 102.933C84.7937 102.698 84.8485 102.434 84.8308 102.141C84.8175 101.855 84.7187 101.554 84.5343 101.236L82.7631 98.1786L84.3019 97.2925Z" fill="white"/>
<path d="M74.105 102.3C74.5402 102.137 74.9469 102.059 75.3249 102.066C75.6978 102.085 76.0334 102.216 76.3317 102.459C76.6331 102.711 76.8875 103.111 77.0949 103.659L78.0886 106.287L79.148 105.889L79.6727 107.277L78.6133 107.675L79.0647 109.427L77.5865 109.982L76.9504 108.3L75.3121 108.915L74.7874 107.528L76.4257 106.912L75.4227 104.26C75.3174 103.981 75.1831 103.812 75.0196 103.752C74.8562 103.692 74.6267 103.717 74.3311 103.828L73.5181 104.134L72.9841 102.722L74.105 102.3Z" fill="white"/>
<path d="M69.0137 103.579C69.5555 103.469 70.0202 103.464 70.4078 103.564C70.7972 103.672 71.1076 103.855 71.3392 104.111C71.5639 104.378 71.7131 104.692 71.7867 105.052C71.8673 105.446 71.8394 105.813 71.7029 106.153C71.5579 106.495 71.3008 106.793 70.9316 107.047C70.5539 107.302 70.0555 107.493 69.4363 107.618L67.8239 107.946C67.8888 108.263 67.9852 108.516 68.1133 108.704C68.2431 108.901 68.4088 109.033 68.6104 109.099C68.812 109.165 69.0633 109.167 69.3643 109.106C69.6911 109.04 69.9557 108.91 70.158 108.717C70.3536 108.535 70.4474 108.293 70.4394 107.991L72.1292 107.647C72.1808 108.119 72.1118 108.548 71.9222 108.935C71.7257 109.332 71.4317 109.669 71.0403 109.944C70.6403 110.222 70.1737 110.415 69.6405 110.523C69.03 110.648 68.4801 110.652 67.9909 110.537C67.5016 110.422 67.0972 110.196 66.7776 109.86C66.4579 109.523 66.2403 109.071 66.1246 108.506L65.3045 104.493L66.775 104.195L67.1709 105.146C67.2304 104.955 67.3107 104.778 67.4116 104.614C67.5126 104.451 67.6385 104.301 67.7895 104.163C67.9405 104.025 68.1182 103.908 68.3226 103.813C68.5254 103.71 68.7557 103.632 69.0137 103.579ZM68.8743 105C68.6507 105.046 68.4608 105.125 68.3046 105.237C68.1415 105.359 68.0095 105.502 67.9086 105.665C67.8094 105.837 67.7438 106.02 67.7118 106.214C67.6729 106.419 67.6625 106.631 67.6805 106.85L67.6832 106.863L69.0118 106.593C69.2783 106.539 69.4906 106.46 69.6486 106.357C69.7997 106.263 69.9017 106.149 69.9546 106.013C70.0074 105.877 70.0181 105.732 69.9865 105.578C69.9515 105.407 69.8839 105.273 69.7837 105.177C69.6835 105.082 69.5542 105.019 69.3958 104.988C69.2373 104.958 69.0635 104.962 68.8743 105Z" fill="white"/>
<path d="M60.1158 104.609C60.7826 104.597 61.3777 104.735 61.9008 105.023C62.424 105.311 62.8351 105.71 63.1341 106.221C63.4331 106.732 63.5887 107.32 63.6009 107.984C63.6134 108.667 63.4796 109.268 63.1995 109.79C62.9196 110.32 62.5235 110.738 62.0112 111.045C61.4991 111.361 60.9097 111.525 60.2428 111.537C59.3916 111.552 58.6724 111.342 58.0851 110.907C57.4978 110.471 57.118 109.866 56.9458 109.09L58.828 109.056C58.9126 109.36 59.0837 109.598 59.3414 109.768C59.5903 109.939 59.8858 110.021 60.228 110.015C60.5352 110.009 60.8101 109.925 61.0529 109.763C61.2871 109.61 61.4717 109.384 61.6066 109.084C61.7329 108.793 61.7924 108.446 61.785 108.044C61.7794 107.737 61.7349 107.463 61.6514 107.219C61.5681 106.984 61.4547 106.781 61.3111 106.608C61.1676 106.445 60.9986 106.321 60.8039 106.237C60.6005 106.153 60.3847 106.113 60.1566 106.118C59.9284 106.122 59.723 106.165 59.5401 106.247C59.3485 106.329 59.1882 106.442 59.0592 106.584C58.9303 106.735 58.8414 106.916 58.7926 107.127L56.9104 107.161C57.0544 106.397 57.4162 105.782 57.9958 105.317C58.5667 104.86 59.2734 104.624 60.1158 104.609Z" fill="white"/>
<path d="M52.1383 104.187C52.5988 104.252 52.9929 104.379 53.3206 104.567C53.6384 104.762 53.8694 105.038 54.0136 105.394C54.1564 105.759 54.1865 106.232 54.1036 106.812L53.7064 109.593L54.8272 109.752L54.6175 111.22L53.4967 111.061L53.047 112.813L51.483 112.591L51.7373 110.811L50.0039 110.565L50.2136 109.097L51.947 109.343L52.3478 106.537C52.3899 106.242 52.3538 106.029 52.2396 105.898C52.1253 105.767 51.9118 105.679 51.599 105.635L50.7389 105.513L50.9523 104.019L52.1383 104.187Z" fill="white"/>
<path d="M41.8318 100.975C42.4507 101.245 42.9588 101.615 43.356 102.085C43.7531 102.555 43.9912 103.103 44.0702 103.73C44.1491 104.356 44.0195 105.054 43.6813 105.824L41.4088 110.992L39.7811 110.281L42.0589 105.1C42.2421 104.684 42.3288 104.301 42.319 103.953C42.3056 103.613 42.2003 103.319 42.003 103.07C41.7976 102.818 41.5141 102.613 41.1524 102.455C40.7827 102.293 40.4392 102.224 40.1221 102.248C39.797 102.268 39.5044 102.389 39.2445 102.61C38.981 102.838 38.7576 103.161 38.5744 103.578L36.2967 108.758L34.669 108.047L36.9415 102.879C37.2797 102.109 37.7108 101.543 38.2346 101.18C38.7585 100.816 39.3363 100.625 39.968 100.605C40.5916 100.581 41.2129 100.704 41.8318 100.975Z" fill="white"/>
<path d="M34.3348 96.8106C34.8326 97.1543 35.2105 97.5323 35.4686 97.9446C35.7266 98.3569 35.8628 98.7755 35.8771 99.2005C35.8915 99.6254 35.7907 100.024 35.5747 100.396L34.1245 99.3952C34.1834 99.2336 34.2095 99.0654 34.2029 98.8906C34.1912 98.7229 34.1358 98.5569 34.0364 98.3925C33.9371 98.2282 33.7864 98.0763 33.5844 97.9368C33.3896 97.8023 33.2134 97.7179 33.0558 97.6835C32.8932 97.6564 32.7505 97.6696 32.6278 97.7233C32.4979 97.772 32.398 97.8467 32.3281 97.9474C32.2231 98.0984 32.1865 98.2434 32.2181 98.3823C32.2447 98.5283 32.3235 98.6838 32.4545 98.8488C32.5854 99.0137 32.7525 99.2035 32.9556 99.4182C33.1803 99.6479 33.394 99.8859 33.5965 100.132C33.7869 100.381 33.9395 100.63 34.0543 100.879C34.1692 101.129 34.2218 101.383 34.2124 101.643C34.2029 101.902 34.1057 102.165 33.9208 102.431C33.696 102.755 33.4095 102.983 33.0615 103.115C32.7084 103.254 32.3135 103.285 31.8767 103.207C31.4399 103.129 30.987 102.928 30.518 102.604C29.8615 102.151 29.4445 101.645 29.2669 101.086C29.0894 100.527 29.1445 99.9637 29.4321 99.396L30.8065 100.345C30.7349 100.54 30.7423 100.737 30.8289 100.935C30.9032 101.135 31.0631 101.32 31.3084 101.49C31.5681 101.669 31.799 101.759 32.001 101.76C32.2031 101.761 32.3565 101.687 32.4615 101.536C32.5314 101.435 32.5506 101.315 32.519 101.176C32.4802 101.032 32.3978 100.874 32.2718 100.702C32.1408 100.537 31.9738 100.347 31.7707 100.133C31.4122 99.7574 31.1142 99.4027 30.8767 99.0684C30.6342 98.7414 30.4952 98.4113 30.4597 98.0782C30.4193 97.7522 30.534 97.3951 30.8038 97.0067C31.0436 96.6614 31.3523 96.4169 31.7297 96.2731C32.1022 96.1365 32.5141 96.1122 32.9653 96.2003C33.4093 96.2834 33.8658 96.4868 34.3348 96.8106Z" fill="white"/>
<path d="M22.5383 92.8135L20.9736 93.8158L22.7961 94.1465L22.3402 95.4137L20.7375 94.5511L21.3399 96.2466L20.097 96.4925L20.0034 94.6233L18.7703 96.0335L17.9333 95.0549L19.5336 94.074L17.697 93.6863L18.1355 92.5202L19.7482 93.3742L19.1388 91.6502L20.4288 91.3988L20.4953 93.2566L21.7184 91.8548L22.5383 92.8135Z" fill="white"/>
<path d="M18.9653 78.1897C19.3345 79.0314 19.4718 79.8358 19.3772 80.6027C19.2711 81.3652 18.9644 82.0527 18.4573 82.6653C17.9386 83.2734 17.249 83.765 16.3887 84.1401C15.5283 84.5152 14.6981 84.6861 13.8981 84.6529C13.0945 84.6117 12.376 84.3711 11.7424 83.9312C11.1053 83.4832 10.6021 82.8384 10.2329 81.9967C9.78629 80.9787 9.67388 80.0346 9.89564 79.1644C10.1174 78.2943 10.6555 77.5775 11.5098 77.014L12.2852 78.7816C11.8806 79.0821 11.6275 79.455 11.5259 79.9003C11.4128 80.3412 11.474 80.8301 11.7096 81.3672C11.9276 81.8642 12.2364 82.2405 12.6358 82.4961C13.0237 82.7471 13.477 82.8742 13.9956 82.8773C14.5062 82.8839 15.063 82.7557 15.666 82.4928C16.2611 82.2334 16.7335 81.9128 17.0833 81.5312C17.4331 81.1495 17.6473 80.7315 17.7257 80.2771C17.8007 79.8147 17.7292 79.335 17.5112 78.838C17.2756 78.3009 16.9691 77.9189 16.5917 77.6919C16.2063 77.4684 15.7777 77.3974 15.3058 77.479L14.5252 75.6995C15.472 75.4777 16.337 75.5828 17.1204 76.0147C17.9038 76.4467 18.5187 77.1717 18.9653 78.1897Z" fill="white"/>
<path d="M16.1768 69.3535C16.299 69.9715 16.2674 70.5574 16.0817 71.1111C15.8858 71.658 15.5627 72.1273 15.1124 72.519C14.6519 72.9039 14.0901 73.1615 13.4271 73.2918C12.7469 73.4256 12.1248 73.4008 11.5607 73.2174C10.9863 73.0272 10.5078 72.711 10.1252 72.2691C9.73394 71.8288 9.47718 71.2996 9.35489 70.6816C9.23091 70.055 9.26689 69.4683 9.46284 68.9214C9.64847 68.3677 9.97157 67.8984 10.4321 67.5136C10.8824 67.1218 11.4433 66.8599 12.1149 66.7279C12.7865 66.5958 13.4095 66.6249 13.9839 66.8152C14.5479 66.9985 15.0256 67.3103 15.4168 67.7506C15.7995 68.1926 16.0528 68.7269 16.1768 69.3535ZM14.6657 69.6507C14.6079 69.3588 14.4881 69.1148 14.3062 68.9188C14.1225 68.7141 13.8759 68.5753 13.5663 68.5024C13.255 68.421 12.8884 68.4217 12.4665 68.5047C12.0446 68.5876 11.7095 68.7249 11.4611 68.9164C11.2024 69.101 11.0272 69.3228 10.9353 69.5816C10.833 69.8336 10.8099 70.1012 10.866 70.3844C10.9203 70.6591 11.0436 70.898 11.2359 71.1009C11.4195 71.3056 11.6669 71.4487 11.9783 71.5301C12.2793 71.6047 12.6407 71.6005 13.0626 71.5175C13.4845 71.4346 13.8248 71.3008 14.0835 71.1162C14.3404 70.923 14.5157 70.7012 14.6093 70.4509C14.7012 70.1921 14.72 69.9253 14.6657 69.6507Z" fill="white"/>
<path d="M15.1567 63.8839L8.52198 63.8962L8.51908 62.3345L9.5983 62.2013C9.22933 62.0007 8.93041 61.7169 8.70154 61.3499C8.47266 60.9741 8.35774 60.5281 8.35678 60.0119C8.35575 59.4607 8.46898 58.9968 8.69646 58.6202C8.92394 58.2435 9.2569 57.9586 9.69535 57.7653C10.1338 57.5633 10.6733 57.4616 11.314 57.4605L15.1448 57.4534L15.1481 59.2119L11.4884 59.2187C10.9618 59.2197 10.5583 59.3342 10.2779 59.5622C9.9975 59.7814 9.85771 60.1229 9.85858 60.5866C9.85913 60.884 9.92984 61.1508 10.0707 61.3867C10.2115 61.6139 10.4137 61.7929 10.6773 61.9237C10.932 62.0544 11.2437 62.1195 11.6123 62.1188L15.1535 62.1122L15.1567 63.8839Z" fill="white"/>
<path d="M15.8804 52.5433C15.8062 53.0011 15.6718 53.3916 15.4772 53.7147C15.2753 54.0278 14.9944 54.2529 14.6343 54.3899C14.2656 54.5254 13.7911 54.5465 13.2106 54.453L10.4295 54.0049L10.2489 55.1191L8.7804 54.8825L8.96101 53.7684L7.21211 53.2872L7.46412 51.7325L9.24452 52.0194L9.52383 50.2963L10.9923 50.5328L10.713 52.2559L13.5201 52.7081C13.8147 52.7556 14.0288 52.7236 14.1624 52.6122C14.296 52.5008 14.388 52.2896 14.4384 51.9787L14.577 51.1236L16.0715 51.3644L15.8804 52.5433Z" fill="white"/>
<path d="M17.2945 47.5218C17.1211 48.0452 16.8945 48.4497 16.615 48.7354C16.3271 49.0184 16.014 49.1963 15.6756 49.2691C15.3316 49.3309 14.9846 49.3041 14.6346 49.1888C14.2513 49.0625 13.9455 48.8558 13.7172 48.5687C13.4916 48.2732 13.3602 47.9028 13.3229 47.4575C13.2885 47.0038 13.3703 46.478 13.5686 45.8798L14.0849 44.3222C13.7765 44.2207 13.5086 44.1785 13.2811 44.1957C13.0452 44.2101 12.8484 44.2881 12.6906 44.4296C12.5327 44.5711 12.4057 44.7872 12.3093 45.078C12.2046 45.3937 12.186 45.687 12.2533 45.958C12.315 46.2179 12.4793 46.4194 12.7461 46.5626L12.2051 48.195C11.7688 48.0052 11.4295 47.7322 11.1872 47.3759C10.9392 47.0086 10.7924 46.587 10.7467 46.1113C10.7038 45.6272 10.7677 45.1277 10.9385 44.6126C11.134 44.0228 11.4033 43.5448 11.7465 43.1787C12.0896 42.8126 12.4873 42.5751 12.9394 42.466C13.3914 42.3569 13.8925 42.3929 14.4425 42.5741L18.3423 43.8588L17.8715 45.2793L16.847 45.1492C16.9834 45.2955 17.0976 45.4529 17.1896 45.6214C17.2817 45.7899 17.3501 45.9737 17.3951 46.1728C17.44 46.3719 17.453 46.5835 17.4342 46.8077C17.4237 47.0346 17.3771 47.2726 17.2945 47.5218ZM16.1267 46.6949C16.1983 46.4789 16.2242 46.2755 16.2042 46.0846C16.1787 45.8827 16.12 45.6975 16.0279 45.529C15.9276 45.3577 15.8009 45.21 15.648 45.0859C15.4894 44.9507 15.3101 44.8364 15.11 44.7429L15.0975 44.7387L14.6721 46.0222C14.5868 46.2797 14.5499 46.5026 14.5615 46.6907C14.5675 46.8677 14.6164 47.0128 14.7083 47.126C14.8002 47.2392 14.9211 47.3205 15.0711 47.3699C15.2378 47.4248 15.3877 47.4327 15.5208 47.3937C15.6539 47.3546 15.773 47.274 15.8782 47.152C15.9833 47.03 16.0662 46.8776 16.1267 46.6949Z" fill="white"/>
<path d="M20.8281 39.3109C20.5062 39.8933 20.0896 40.3387 19.5784 40.6472C19.0672 40.9558 18.5149 41.1119 17.9216 41.1156C17.3284 41.1194 16.7397 40.9608 16.1555 40.6399C15.5559 40.3105 15.0993 39.8948 14.7856 39.3928C14.4642 38.8866 14.2978 38.3357 14.2863 37.74C14.2672 37.1401 14.4186 36.549 14.7405 35.9666C15.1514 35.2234 15.6926 34.7065 16.3641 34.4162C17.0357 34.1258 17.7516 34.0995 18.512 34.3374L17.6034 35.981C17.2963 35.9022 17.0044 35.9317 16.7279 36.0694C16.4555 36.1996 16.2368 36.414 16.0716 36.7129C15.9233 36.9811 15.8591 37.2604 15.8789 37.551C15.8952 37.8297 16.0001 38.1021 16.1937 38.3683C16.3838 38.6225 16.6556 38.8468 17.0092 39.041C17.2782 39.1888 17.5394 39.2874 17.7927 39.3366C18.0384 39.3817 18.272 39.3851 18.4935 39.347C18.7073 39.3046 18.8992 39.2202 19.0693 39.0939C19.2435 38.9599 19.3858 38.7932 19.4959 38.594C19.606 38.3948 19.671 38.1957 19.6907 37.9968C19.7147 37.7902 19.697 37.5957 19.6376 37.4132C19.5704 37.2264 19.4573 37.0594 19.2983 36.9121L20.2068 35.2685C20.7993 35.7738 21.1535 36.3929 21.2694 37.1259C21.3818 37.8469 21.2348 38.5753 20.8281 39.3109Z" fill="white"/>
<path d="M25.1434 32.6764C24.8569 33.0418 24.5503 33.3192 24.2235 33.5087C23.8952 33.686 23.5402 33.748 23.1585 33.695C22.7699 33.6365 22.344 33.4268 21.8807 33.0658L19.6611 31.3363L18.964 32.2255L17.7919 31.3123L18.4891 30.423L17.1898 29.1607L18.1626 27.92L19.5835 29.0272L20.6617 27.6519L21.8338 28.5652L20.7556 29.9404L22.9959 31.686C23.231 31.8692 23.434 31.9441 23.605 31.9108C23.7759 31.8774 23.9587 31.7367 24.1533 31.4885L24.6883 30.8061L25.8811 31.7355L25.1434 32.6764Z" fill="white"/>
<path d="M33.0774 25.3472C32.5348 25.7487 31.9604 26.0047 31.3542 26.1154C30.7481 26.226 30.1525 26.16 29.5675 25.9173C28.9825 25.6746 28.439 25.216 27.9369 24.5415L24.5637 20.0098L25.9909 18.954L29.3719 23.4963C29.6439 23.8616 29.9339 24.1265 30.242 24.2908C30.5448 24.4481 30.8535 24.503 31.1679 24.4556C31.4894 24.403 31.8087 24.2594 32.1259 24.0248C32.45 23.7849 32.6805 23.5219 32.8171 23.2356C32.9607 22.9441 33.001 22.6311 32.9377 22.2966C32.8693 21.955 32.6991 21.6015 32.4271 21.2362L29.0461 16.6939L30.4732 15.6381L33.8464 20.1699C34.3485 20.8444 34.6277 21.4985 34.6842 22.1322C34.7406 22.766 34.6208 23.3612 34.3249 23.9179C34.0359 24.4693 33.6201 24.9458 33.0774 25.3472Z" fill="white"/>
<path d="M40.4192 20.9238C39.873 21.1843 39.3563 21.324 38.8692 21.3429C38.3821 21.3618 37.9499 21.272 37.5726 21.0737C37.1954 20.8754 36.8981 20.5904 36.6809 20.2187L38.2722 19.4599C38.3838 19.591 38.5173 19.6971 38.6729 19.7781C38.8247 19.8511 38.9968 19.8855 39.1893 19.881C39.3817 19.8765 39.5887 19.8214 39.8104 19.7157C40.0242 19.6138 40.1851 19.5031 40.2932 19.3837C40.3975 19.2564 40.4567 19.1263 40.4708 18.9935C40.4928 18.8569 40.4773 18.7334 40.4243 18.6229C40.3448 18.4572 40.2367 18.3535 40.1001 18.312C39.9596 18.2626 39.7851 18.2537 39.5765 18.2852C39.3679 18.3168 39.1197 18.3673 38.8319 18.4366C38.5204 18.5173 38.2071 18.5842 37.8922 18.6374C37.5813 18.6789 37.2887 18.6875 37.0144 18.6632C36.74 18.6388 36.4922 18.5582 36.2709 18.4212C36.0495 18.2843 35.8688 18.0699 35.7287 17.7778C35.5583 17.4226 35.5018 17.0616 35.5593 16.6948C35.613 16.3201 35.7821 15.963 36.0668 15.6236C36.3515 15.2842 36.7511 14.9918 37.2657 14.7464C37.9862 14.4029 38.6339 14.2929 39.2087 14.4164C39.7836 14.5399 40.2469 14.867 40.5988 15.3975L39.0905 16.1166C38.9559 15.9577 38.7809 15.8666 38.5654 15.8433C38.3541 15.8083 38.1138 15.855 37.8446 15.9833C37.5596 16.1192 37.3665 16.2744 37.2653 16.4487C37.1641 16.623 37.1532 16.7931 37.2328 16.9588C37.2858 17.0693 37.3806 17.1453 37.5173 17.1868C37.6618 17.2246 37.8403 17.2316 38.0527 17.2079C38.2613 17.1763 38.5095 17.1259 38.7973 17.0566C39.3019 16.9323 39.7587 16.8503 40.1677 16.8105C40.5728 16.7628 40.9293 16.8062 41.237 16.9407C41.541 17.0673 41.7952 17.3437 41.9997 17.7699C42.1814 18.1488 42.2413 18.5372 42.1794 18.9353C42.1137 19.3255 41.9305 19.6941 41.63 20.041C41.3375 20.3842 40.9339 20.6785 40.4192 20.9238Z" fill="white"/>
<path d="M49.778 12.7036L49.6869 10.8516L48.4904 12.2615L47.6161 11.2356L49.1653 10.2809L47.3908 9.95586L47.7969 8.75927L49.4688 9.61061L48.8576 7.84178L50.1259 7.60661L50.1806 9.47863L51.4337 8.08496L52.2288 9.04547L50.682 10.013L52.4849 10.3462L52.0601 11.5863L50.4117 10.7173L51.0205 12.4732L49.778 12.7036Z" fill="white"/>
<circle cx="60" cy="60" r="35" fill="white"/>
<path d="M57.571 74.5725L59.9995 77.0015L62.4284 74.5725L59.9995 72.1445L57.571 74.5725Z" fill="#734BDF"/>
<path d="M52.7161 69.7181L57.5703 74.574L59.9993 72.1461L55.1439 67.2891L52.7161 69.7181Z" fill="#734BDF"/>
<path d="M62.4284 45.429L59.9995 43L57.571 45.429L59.9995 47.8569L62.4284 45.429Z" fill="#734BDF"/>
<path d="M60.0001 72.1461L62.4286 74.574L67.2855 69.716L64.8565 67.2891L60.0001 72.1461Z" fill="#734BDF"/>
<path d="M62.4305 64.8577L60.0015 62.4297L57.5731 64.8577L60.0015 67.2867L62.4305 64.8577Z" fill="#734BDF"/>
<path d="M64.8568 47.8574L62.4283 50.2866L72.1427 60.0003L69.7141 62.4284L60.0001 52.7137L50.2862 62.4284L47.8566 60.0013L57.571 50.2856L55.1435 47.8574L43.0005 60.0013L50.2894 67.2868L52.7175 64.8576L52.7165 64.8565L59.9997 57.5721L68.6316 66.2042L68.6326 66.2032L69.7141 67.2847L76.9999 60.0013L64.8568 47.8574Z" fill="#734BDF"/>
</svg>
