<svg width="6" height="16" viewBox="0 0 6 16" fill="none" xmlns="http://www.w3.org/2000/svg">
<g clip-path="url(#clip0_54_4)">
<path d="M2.85 15.72C2.05 15.72 1.37 15.46 0.81 14.94C0.27 14.4 0 13.71 0 12.87C0 12.03 0.27 11.35 0.81 10.83C1.37 10.29 2.05 10.02 2.85 10.02C3.67 10.02 4.35 10.29 4.89 10.83C5.43 11.35 5.7 12.03 5.7 12.87C5.7 13.71 5.43 14.4 4.89 14.94C4.35 15.46 3.67 15.72 2.85 15.72ZM2.85 5.7C2.05 5.7 1.37 5.44 0.81 4.92C0.27 4.38 0 3.69 0 2.85C0 2.01 0.27 1.33 0.81 0.810001C1.37 0.270001 2.05 0 2.85 0C3.67 0 4.35 0.270001 4.89 0.810001C5.43 1.33 5.7 2.01 5.7 2.85C5.7 3.69 5.43 4.38 4.89 4.92C4.35 5.44 3.67 5.7 2.85 5.7Z" fill="#734BDF"/>
</g>
<defs>
<clipPath id="clip0_54_4">
<rect width="6" height="16" fill="white"/>
</clipPath>
</defs>
</svg>
