<svg width="24" height="24" viewBox="0 0 24 24" fill="none" xmlns="http://www.w3.org/2000/svg">
<path d="M15.2917 2.14453C16.2128 2.83534 16.8931 3.79846 17.2364 4.89744C17.5797 5.99642 17.5685 7.17557 17.2044 8.26784C16.8404 9.36011 16.1418 10.3101 15.2078 10.9833C14.2738 11.6566 13.1516 12.0188 12.0002 12.0188C10.8489 12.0188 9.72672 11.6566 8.79269 10.9833C7.85866 10.3101 7.16013 9.36011 6.79604 8.26784C6.43194 7.17557 6.42076 5.99642 6.76405 4.89744C7.10735 3.79846 7.78773 2.83534 8.70881 2.14453" stroke="white" stroke-width="1.5" stroke-linecap="round" stroke-linejoin="round"/>
<path d="M0.857422 15.7214C0.993298 14.5776 1.48573 13.5057 2.26492 12.6574C3.04411 11.8092 4.07052 11.2278 5.19866 10.9955C6.32679 10.7632 7.49941 10.892 8.55029 11.3634C9.60118 11.8349 10.477 12.6252 11.0536 13.6222C11.6302 14.6193 11.8784 15.7726 11.7629 16.9186C11.6474 18.0646 11.1741 19.1451 10.4102 20.0071C9.64622 20.8691 8.63033 21.4687 7.50651 21.721C6.38269 21.9733 5.20796 21.8655 4.14885 21.4128" stroke="white" stroke-width="1.5" stroke-linecap="round" stroke-linejoin="round"/>
<path d="M19.8517 21.4123C18.7959 21.8606 17.6258 21.9656 16.507 21.7124C15.3882 21.4591 14.3774 20.8605 13.6175 20.0011C12.8577 19.1418 12.3873 18.0652 12.273 16.9239C12.1586 15.7825 12.4061 14.634 12.9804 13.641C13.5546 12.648 14.4266 11.8607 15.4729 11.3906C16.5193 10.9204 17.6869 10.7912 18.8107 11.0212C19.9345 11.2512 20.9576 11.8287 21.7351 12.6721C22.5126 13.5156 23.0052 14.5821 23.1432 15.7209" stroke="white" stroke-width="1.5" stroke-linecap="round" stroke-linejoin="round"/>
</svg>
