<svg width="25" height="25" viewBox="0 0 25 25" fill="none" xmlns="http://www.w3.org/2000/svg">
<g clip-path="url(#clip0_325_3956)">
<path d="M13.3393 12.3228C13.0744 12.4378 12.7888 12.4972 12.5 12.4972C12.2112 12.4972 11.9256 12.4378 11.6607 12.3228L1.48214 7.60851C1.31686 7.52515 1.17796 7.39754 1.08091 7.2399C0.983864 7.08226 0.93248 6.90077 0.93248 6.71565C0.93248 6.53054 0.983864 6.34905 1.08091 6.19141C1.17796 6.03377 1.31686 5.90616 1.48214 5.8228L11.6607 1.0728C11.9256 0.957785 12.2112 0.898437 12.5 0.898438C12.7888 0.898438 13.0744 0.957785 13.3393 1.0728L23.5179 5.78708C23.6831 5.87045 23.822 5.99806 23.9191 6.1557C24.0161 6.31334 24.0675 6.49482 24.0675 6.67994C24.0675 6.86506 24.0161 7.04654 23.9191 7.20418C23.822 7.36182 23.6831 7.48943 23.5179 7.5728L13.3393 12.3228Z" stroke="white" stroke-width="1.5" stroke-linecap="round" stroke-linejoin="round"/>
<path d="M24.1071 13.125L13.2143 18.1429C12.9816 18.249 12.7289 18.3039 12.4732 18.3039C12.2175 18.3039 11.9648 18.249 11.7321 18.1429L0.892853 13.125" stroke="white" stroke-width="1.5" stroke-linecap="round" stroke-linejoin="round"/>
<path d="M24.1071 18.9297L13.2143 23.9475C12.9816 24.0537 12.7289 24.1086 12.4732 24.1086C12.2175 24.1086 11.9648 24.0537 11.7321 23.9475L0.892853 18.9297" stroke="white" stroke-width="1.5" stroke-linecap="round" stroke-linejoin="round"/>
</g>
<defs>
<clipPath id="clip0_325_3956">
<rect width="25" height="25" fill="white"/>
</clipPath>
</defs>
</svg>
