<svg width="20" height="20" viewBox="0 0 20 20" fill="none" xmlns="http://www.w3.org/2000/svg">
<g clip-path="url(#clip0_524_1618)">
<path d="M6.42913 18.5714C9.58504 18.5714 12.1434 16.013 12.1434 12.8571C12.1434 9.7012 9.58504 7.14282 6.42913 7.14282C3.27322 7.14282 0.714844 9.7012 0.714844 12.8571C0.714844 16.013 3.27322 18.5714 6.42913 18.5714Z" stroke="white" stroke-width="1.5" stroke-linecap="round" stroke-linejoin="round"/>
<path d="M13.5717 18.5714C16.7276 18.5714 19.286 16.013 19.286 12.8571C19.286 9.7012 16.7276 7.14282 13.5717 7.14282C10.4158 7.14282 7.85742 9.7012 7.85742 12.8571C7.85742 16.013 10.4158 18.5714 13.5717 18.5714Z" stroke="white" stroke-width="1.5" stroke-linecap="round" stroke-linejoin="round"/>
<path d="M10.0014 12.8572C13.1573 12.8572 15.7157 10.2988 15.7157 7.14287C15.7157 3.98696 13.1573 1.42859 10.0014 1.42859C6.84548 1.42859 4.28711 3.98696 4.28711 7.14287C4.28711 10.2988 6.84548 12.8572 10.0014 12.8572Z" stroke="white" stroke-width="1.5" stroke-linecap="round" stroke-linejoin="round"/>
</g>
<defs>
<clipPath id="clip0_524_1618">
<rect width="20" height="20" fill="white"/>
</clipPath>
</defs>
</svg>
