<svg width="25" height="25" viewBox="0 0 25 25" fill="none" xmlns="http://www.w3.org/2000/svg">
<g clip-path="url(#clip0_317_7161)">
<path d="M13.3393 12.3213C13.0744 12.4363 12.7887 12.4957 12.5 12.4957C12.2112 12.4957 11.9256 12.4363 11.6607 12.3213L1.48212 7.60705C1.31684 7.52368 1.17794 7.39607 1.0809 7.23843C0.983849 7.08079 0.932465 6.89931 0.932465 6.71419C0.932465 6.52907 0.983849 6.34759 1.0809 6.18995C1.17794 6.03231 1.31684 5.9047 1.48212 5.82133L11.6607 1.07133C11.9256 0.95632 12.2112 0.896973 12.5 0.896973C12.7887 0.896973 13.0744 0.95632 13.3393 1.07133L23.5178 5.78562C23.6831 5.86898 23.822 5.99659 23.9191 6.15423C24.0161 6.31187 24.0675 6.49336 24.0675 6.67847C24.0675 6.86359 24.0161 7.04508 23.9191 7.20272C23.822 7.36036 23.6831 7.48797 23.5178 7.57133L13.3393 12.3213Z" stroke="white" stroke-width="1.5" stroke-linecap="round" stroke-linejoin="round"/>
<path d="M24.1071 13.125L13.2143 18.1429C12.9816 18.249 12.7289 18.3039 12.4732 18.3039C12.2175 18.3039 11.9648 18.249 11.7321 18.1429L0.892853 13.125" stroke="white" stroke-width="1.5" stroke-linecap="round" stroke-linejoin="round"/>
<path d="M24.1071 18.9287L13.2143 23.9466C12.9816 24.0527 12.7289 24.1076 12.4732 24.1076C12.2175 24.1076 11.9648 24.0527 11.7321 23.9466L0.892853 18.9287" stroke="white" stroke-width="1.5" stroke-linecap="round" stroke-linejoin="round"/>
</g>
<defs>
<clipPath id="clip0_317_7161">
<rect width="25" height="25" fill="white"/>
</clipPath>
</defs>
</svg>
