<svg width="25" height="25" viewBox="0 0 25 25" fill="none" xmlns="http://www.w3.org/2000/svg">
<g clip-path="url(#clip0_426_2)">
<path d="M22.3216 0.892853H2.67878C1.69256 0.892853 0.893066 1.69234 0.893066 2.67857V22.3214C0.893066 23.3076 1.69256 24.1071 2.67878 24.1071H22.3216C23.3079 24.1071 24.1074 23.3076 24.1074 22.3214V2.67857C24.1074 1.69234 23.3079 0.892853 22.3216 0.892853Z" stroke="white" stroke-width="1.5" stroke-linecap="round" stroke-linejoin="round"/>
<path d="M9.80371 18.8571V12.0179C9.8087 11.9127 9.83942 11.8105 9.89316 11.72C9.9469 11.6296 10.022 11.5537 10.1119 11.499C10.2018 11.4444 10.3038 11.4126 10.4089 11.4066C10.5139 11.4005 10.6188 11.4203 10.7144 11.4643L16.643 14.875C16.739 14.9342 16.8183 15.0169 16.8733 15.1154C16.9282 15.2138 16.9571 15.3247 16.9571 15.4375C16.9571 15.5503 16.9282 15.6612 16.8733 15.7596C16.8183 15.8581 16.739 15.9408 16.643 16L10.7144 19.4286C10.6172 19.4685 10.5118 19.4847 10.407 19.4758C10.3023 19.4668 10.2011 19.433 10.1121 19.3771C10.023 19.3212 9.94856 19.2449 9.89493 19.1545C9.8413 19.064 9.81002 18.9621 9.80371 18.8571V18.8571Z" stroke="white" stroke-width="1.5" stroke-linecap="round" stroke-linejoin="round"/>
<path d="M0.893066 7.14285H24.1074" stroke="white" stroke-width="1.5" stroke-linecap="round" stroke-linejoin="round"/>
<path d="M7.14307 7.14285L9.82164 0.892853" stroke="white" stroke-width="1.5" stroke-linecap="round" stroke-linejoin="round"/>
<path d="M15.1787 7.14285L17.8573 0.892853" stroke="white" stroke-width="1.5" stroke-linecap="round" stroke-linejoin="round"/>
</g>
<defs>
<clipPath id="clip0_426_2">
<rect width="25" height="25" fill="white"/>
</clipPath>
</defs>
</svg>
