<svg width="25" height="25" viewBox="0 0 25 25" fill="none" xmlns="http://www.w3.org/2000/svg">
<g clip-path="url(#clip0_426_10)">
<path d="M22.3217 2.67856L16.2324 8.76784" stroke="white" stroke-width="1.5" stroke-linecap="round" stroke-linejoin="round"/>
<path d="M2.67871 2.67856L8.768 8.76784" stroke="white" stroke-width="1.5" stroke-linecap="round" stroke-linejoin="round"/>
<path d="M2.67871 22.3214L8.768 16.2321" stroke="white" stroke-width="1.5" stroke-linecap="round" stroke-linejoin="round"/>
<path d="M22.3217 22.3214L16.2324 16.2321" stroke="white" stroke-width="1.5" stroke-linecap="round" stroke-linejoin="round"/>
<path d="M12.5002 24.1071C18.9107 24.1071 24.1074 18.9104 24.1074 12.5C24.1074 6.08955 18.9107 0.892853 12.5002 0.892853C6.08976 0.892853 0.893066 6.08955 0.893066 12.5C0.893066 18.9104 6.08976 24.1071 12.5002 24.1071Z" stroke="white" stroke-width="1.5" stroke-linecap="round" stroke-linejoin="round"/>
<path d="M12.5003 17.7679C15.4096 17.7679 17.7681 15.4094 17.7681 12.5C17.7681 9.59065 15.4096 7.23215 12.5003 7.23215C9.59092 7.23215 7.23242 9.59065 7.23242 12.5C7.23242 15.4094 9.59092 17.7679 12.5003 17.7679Z" stroke="white" stroke-width="1.5" stroke-linecap="round" stroke-linejoin="round"/>
</g>
<defs>
<clipPath id="clip0_426_10">
<rect width="25" height="25" fill="white"/>
</clipPath>
</defs>
</svg>
