<svg width="30" height="30" viewBox="0 0 30 30" fill="none" xmlns="http://www.w3.org/2000/svg">
<g clip-path="url(#clip0_385_753)">
<path d="M18.2143 10.7154C19.3977 10.7154 20.3571 9.75601 20.3571 8.57254C20.3571 7.38908 19.3977 6.42969 18.2143 6.42969C17.0308 6.42969 16.0714 7.38908 16.0714 8.57254C16.0714 9.75601 17.0308 10.7154 18.2143 10.7154Z" stroke="white" stroke-width="1.5" stroke-linecap="round" stroke-linejoin="round"/>
<path d="M9.64284 21.43C10.2346 21.43 10.7143 20.9503 10.7143 20.3585C10.7143 19.7668 10.2346 19.2871 9.64284 19.2871C9.05111 19.2871 8.57141 19.7668 8.57141 20.3585C8.57141 20.9503 9.05111 21.43 9.64284 21.43Z" stroke="white" stroke-width="1.5" stroke-linecap="round" stroke-linejoin="round"/>
<path d="M9.64286 13.9302C10.8263 13.9302 11.7857 12.9709 11.7857 11.7874C11.7857 10.6039 10.8263 9.64453 9.64286 9.64453C8.45939 9.64453 7.5 10.6039 7.5 11.7874C7.5 12.9709 8.45939 13.9302 9.64286 13.9302Z" stroke="white" stroke-width="1.5" stroke-linecap="round" stroke-linejoin="round"/>
<path d="M20.4 26.3151C20.3761 25.8995 20.2316 25.4998 19.9843 25.1649C19.7369 24.83 19.3973 24.5744 19.0071 24.4294C18.0379 24.1109 17.2141 23.457 16.6839 22.5854C16.1536 21.7138 15.9517 20.6817 16.1144 19.6745C16.2771 18.6674 16.7937 17.7513 17.5714 17.091C18.3491 16.4307 19.3369 16.0695 20.3571 16.0723H24.3642C25.0515 16.0742 25.7292 15.9108 26.34 15.5958C26.9509 15.2809 27.4771 14.8237 27.8742 14.2627C28.2713 13.7017 28.5276 13.0535 28.6216 12.3727C28.7156 11.6919 28.6445 10.9984 28.4142 10.3508C27.5619 7.94434 26.0646 5.81838 24.0859 4.20523C22.1072 2.59207 19.7231 1.55377 17.1943 1.20378C14.6654 0.853789 12.089 1.20556 9.74653 2.22067C7.40405 3.23577 5.38562 4.87516 3.91177 6.95972C2.43791 9.04428 1.56532 11.4938 1.38934 14.0407C1.21335 16.5876 1.74075 19.1339 2.91389 21.4013C4.08704 23.6688 5.86081 25.5702 8.04141 26.8978C10.222 28.2255 12.7256 28.9283 15.2785 28.9294C16.5393 28.9329 17.7943 28.7598 19.0071 28.4151C19.4525 28.2903 19.8382 28.0096 20.0939 27.6241C20.3496 27.2386 20.4582 26.774 20.4 26.3151V26.3151Z" stroke="white" stroke-width="1.5" stroke-linecap="round" stroke-linejoin="round"/>
</g>
<defs>
<clipPath id="clip0_385_753">
<rect width="30" height="30" fill="white"/>
</clipPath>
</defs>
</svg>
