<svg width="24" height="24" viewBox="0 0 24 24" fill="none" xmlns="http://www.w3.org/2000/svg">
<g clip-path="url(#clip0_156_2713)">
<path d="M9.42853 11.1426H14.5714L12 18.8569" stroke="#734BDF" stroke-width="1.5" stroke-linecap="round" stroke-linejoin="round"/>
<path d="M2.5714 4.28516C2.11675 4.28516 1.68071 4.46577 1.35922 4.78726C1.03773 5.10875 0.857117 5.54479 0.857117 5.99944V21.428C0.857117 21.8827 1.03773 22.3187 1.35922 22.6402C1.68071 22.9617 2.11675 23.1423 2.5714 23.1423H21.4285C21.8832 23.1423 22.3192 22.9617 22.6407 22.6402C22.9622 22.3187 23.1428 21.8827 23.1428 21.428V5.99944C23.1428 5.54479 22.9622 5.10875 22.6407 4.78726C22.3192 4.46577 21.8832 4.28516 21.4285 4.28516H18" stroke="#734BDF" stroke-width="1.5" stroke-linecap="round" stroke-linejoin="round"/>
<path d="M6 0.857422V7.71456" stroke="#734BDF" stroke-width="1.5" stroke-linecap="round" stroke-linejoin="round"/>
<path d="M18 0.857422V7.71456" stroke="#734BDF" stroke-width="1.5" stroke-linecap="round" stroke-linejoin="round"/>
<path d="M6 4.28516H14.5714" stroke="#734BDF" stroke-width="1.5" stroke-linecap="round" stroke-linejoin="round"/>
</g>
<defs>
<clipPath id="clip0_156_2713">
<rect width="24" height="24" fill="white"/>
</clipPath>
</defs>
</svg>
