<svg width="25" height="25" viewBox="0 0 25 25" fill="none" xmlns="http://www.w3.org/2000/svg">
<g clip-path="url(#clip0_317_7922)">
<path d="M15.1786 16.9643C15.6522 16.9643 16.1064 16.7762 16.4412 16.4413C16.7761 16.1064 16.9643 15.6522 16.9643 15.1786" stroke="white" stroke-width="1.5" stroke-linecap="round" stroke-linejoin="round"/>
<path d="M8.03571 16.9642H10.7143" stroke="white" stroke-width="1.5" stroke-linecap="round" stroke-linejoin="round"/>
<path d="M16.9643 8.03564V10.7142" stroke="white" stroke-width="1.5" stroke-linecap="round" stroke-linejoin="round"/>
<path d="M9.82142 8.03564C9.34782 8.03564 8.89362 8.22378 8.55873 8.55867C8.22384 8.89355 8.03571 9.34776 8.03571 9.82136" stroke="white" stroke-width="1.5" stroke-linecap="round" stroke-linejoin="round"/>
<path d="M0.892853 2.67854C0.892853 2.20494 1.08099 1.75073 1.41588 1.41585C1.75076 1.08096 2.20497 0.892822 2.67857 0.892822H15.1786C15.6522 0.892822 16.1064 1.08096 16.4413 1.41585C16.7761 1.75073 16.9643 2.20494 16.9643 2.67854V8.03568H22.3214C22.795 8.03568 23.2492 8.22382 23.5841 8.5587C23.919 8.89359 24.1071 9.34779 24.1071 9.82139V22.3214C24.1071 22.795 23.919 23.2492 23.5841 23.5841C23.2492 23.919 22.795 24.1071 22.3214 24.1071H9.82142C9.34782 24.1071 8.89362 23.919 8.55873 23.5841C8.22385 23.2492 8.03571 22.795 8.03571 22.3214V16.9643H2.67857C2.20497 16.9643 1.75076 16.7761 1.41588 16.4412C1.08099 16.1063 0.892853 15.6521 0.892853 15.1785V2.67854Z" stroke="white" stroke-width="1.5" stroke-linecap="round" stroke-linejoin="round"/>
<path d="M14.2857 8.03564H16.9643" stroke="white" stroke-width="1.5" stroke-linecap="round" stroke-linejoin="round"/>
<path d="M8.03571 14.2856V16.9642" stroke="white" stroke-width="1.5" stroke-linecap="round" stroke-linejoin="round"/>
</g>
<defs>
<clipPath id="clip0_317_7922">
<rect width="25" height="25" fill="white"/>
</clipPath>
</defs>
</svg>
