<svg width="25" height="25" viewBox="0 0 25 25" fill="none" xmlns="http://www.w3.org/2000/svg">
<g clip-path="url(#clip0_317_7985)">
<path d="M8.30356 4L7.60713 4.16071C7.6702 4.4352 7.67809 4.71948 7.63032 4.99703C7.58255 5.27459 7.48009 5.53988 7.32889 5.77748C7.17768 6.01509 6.98076 6.22026 6.74956 6.38109C6.51835 6.54191 6.25749 6.65517 5.98213 6.71429C5.42376 6.83174 4.84159 6.72545 4.36075 6.41825C3.87991 6.11104 3.53879 5.62746 3.4107 5.07143L2.01784 5.35714C1.82683 5.39882 1.64625 5.47879 1.48701 5.59222C1.32777 5.70564 1.19318 5.85018 1.09137 6.01708C0.989556 6.18399 0.922637 6.3698 0.894654 6.56329C0.866671 6.75679 0.878204 6.95395 0.928558 7.14286C0.928558 7.14286 1.57141 10.125 2.32141 13.4821" stroke="white" stroke-width="1.5" stroke-linecap="round" stroke-linejoin="round"/>
<path d="M21.6965 3.98208C21.5897 4.28276 21.4231 4.55865 21.2066 4.79303C20.9902 5.02741 20.7284 5.2154 20.4371 5.34562C20.1458 5.47584 19.8311 5.54556 19.5121 5.55058C19.1931 5.5556 18.8764 5.4958 18.5812 5.37481C18.286 5.25381 18.0184 5.07415 17.7946 4.84669C17.5709 4.61923 17.3957 4.34872 17.2795 4.05155C17.1634 3.75437 17.1089 3.43672 17.1191 3.11783C17.1294 2.79894 17.2043 2.48546 17.3393 2.19637L15.8929 1.5178C15.5067 1.35684 15.0725 1.35469 14.6847 1.51182C14.2969 1.66895 13.9867 1.97268 13.8215 2.35708L7.82146 16.4821L7.03574 18.2678C6.87478 18.654 6.87264 19.0882 7.02976 19.476C7.18689 19.8638 7.49062 20.174 7.87503 20.3392L15.125 23.4285C15.5113 23.5895 15.9454 23.5916 16.3332 23.4345C16.721 23.2774 17.0312 22.9736 17.1965 22.5892L23.9822 6.62494C24.1318 6.25371 24.1358 5.83969 23.9935 5.46561C23.8511 5.09153 23.5729 4.78494 23.2143 4.60708L21.6965 3.98208Z" stroke="white" stroke-width="1.5" stroke-linecap="round" stroke-linejoin="round"/>
</g>
<defs>
<clipPath id="clip0_317_7985">
<rect width="25" height="25" fill="white"/>
</clipPath>
</defs>
</svg>
