<svg width="20" height="20" viewBox="0 0 20 20" fill="none" xmlns="http://www.w3.org/2000/svg">
<g clip-path="url(#clip0_490_110)">
<path d="M12.5848 17.2429C11.9395 17.8882 11.1733 18.4001 10.3301 18.7494C9.48695 19.0987 8.58322 19.2784 7.67055 19.2784C5.82734 19.2784 4.05962 18.5462 2.75627 17.2429C1.45292 15.9395 0.720703 14.1718 0.720703 12.3286C0.720703 10.4854 1.45292 8.71764 2.75627 7.41429L9.45627 0.714294L12.5848 3.84287L6.44198 10C6.04712 10.4855 5.84631 11.1002 5.87839 11.7251C5.91047 12.3501 6.17317 12.941 6.61567 13.3835C7.05817 13.826 7.64904 14.0887 8.27401 14.1207C8.89897 14.1528 9.51364 13.952 9.99912 13.5572L16.142 7.41429L19.2848 10.5429L12.5848 17.2429Z" stroke="white" stroke-width="1.5" stroke-linecap="round" stroke-linejoin="round"/>
<path d="M13.127 10.4429L16.2555 13.5714" stroke="white" stroke-width="1.5" stroke-linecap="round" stroke-linejoin="round"/>
<path d="M6.42773 3.74286L9.55631 6.87143" stroke="white" stroke-width="1.5" stroke-linecap="round" stroke-linejoin="round"/>
</g>
<defs>
<clipPath id="clip0_490_110">
<rect width="20" height="20" fill="white"/>
</clipPath>
</defs>
</svg>
