<svg width="25" height="25" viewBox="0 0 25 25" fill="none" xmlns="http://www.w3.org/2000/svg">
<g clip-path="url(#clip0_443_108)">
<path d="M8.30368 4L7.60725 4.16071C7.67033 4.4352 7.67821 4.71948 7.63044 4.99703C7.58267 5.27459 7.48021 5.53988 7.32901 5.77748C7.17781 6.01509 6.98088 6.22026 6.74968 6.38109C6.51848 6.54191 6.25761 6.65517 5.98225 6.71429C5.42388 6.83174 4.84171 6.72545 4.36087 6.41825C3.88003 6.11104 3.53891 5.62746 3.41082 5.07143L2.01797 5.35714C1.82695 5.39882 1.64637 5.47879 1.48713 5.59222C1.32789 5.70564 1.1933 5.85018 1.09149 6.01708C0.989678 6.18399 0.922759 6.3698 0.894776 6.56329C0.866793 6.75679 0.878326 6.95395 0.92868 7.14286C0.92868 7.14286 1.57154 10.125 2.32154 13.4821" stroke="white" stroke-width="1.5" stroke-linecap="round" stroke-linejoin="round"/>
<path d="M21.6966 3.98208C21.5899 4.28276 21.4232 4.55865 21.2068 4.79303C20.9903 5.02741 20.7285 5.2154 20.4372 5.34562C20.1459 5.47584 19.8313 5.54556 19.5122 5.55058C19.1932 5.5556 18.8765 5.4958 18.5813 5.37481C18.2861 5.25381 18.0185 5.07415 17.7948 4.84669C17.571 4.61923 17.3958 4.34872 17.2797 4.05155C17.1636 3.75437 17.109 3.43672 17.1193 3.11783C17.1295 2.79894 17.2044 2.48546 17.3394 2.19637L15.893 1.5178C15.5068 1.35684 15.0726 1.35469 14.6848 1.51182C14.297 1.66895 13.9868 1.97268 13.8216 2.35708L7.82158 16.4821L7.03587 18.2678C6.87491 18.654 6.87276 19.0882 7.02989 19.476C7.18702 19.8638 7.49074 20.174 7.87515 20.3392L15.1252 23.4285C15.5114 23.5895 15.9455 23.5916 16.3333 23.4345C16.7211 23.2774 17.0313 22.9736 17.1966 22.5892L23.9823 6.62494C24.1319 6.25371 24.1359 5.83969 23.9936 5.46561C23.8513 5.09153 23.573 4.78494 23.2144 4.60708L21.6966 3.98208Z" stroke="white" stroke-width="1.5" stroke-linecap="round" stroke-linejoin="round"/>
</g>
<defs>
<clipPath id="clip0_443_108">
<rect width="25" height="25" fill="white"/>
</clipPath>
</defs>
</svg>
