<svg width="25" height="25" viewBox="0 0 25 25" fill="none" xmlns="http://www.w3.org/2000/svg">
<g clip-path="url(#clip0_365_370)">
<path d="M15.1785 8.92861C16.1648 8.92861 16.9643 8.12912 16.9643 7.14289C16.9643 6.15667 16.1648 5.35718 15.1785 5.35718C14.1923 5.35718 13.3928 6.15667 13.3928 7.14289C13.3928 8.12912 14.1923 8.92861 15.1785 8.92861Z" stroke="white" stroke-width="1.5" stroke-linecap="round" stroke-linejoin="round"/>
<path d="M8.03568 17.857C8.52879 17.857 8.92854 17.4573 8.92854 16.9641C8.92854 16.471 8.52879 16.0713 8.03568 16.0713C7.54257 16.0713 7.14282 16.471 7.14282 16.9641C7.14282 17.4573 7.54257 17.857 8.03568 17.857Z" stroke="white" stroke-width="1.5" stroke-linecap="round" stroke-linejoin="round"/>
<path d="M8.03571 11.6071C9.02194 11.6071 9.82143 10.8076 9.82143 9.82136C9.82143 8.83514 9.02194 8.03564 8.03571 8.03564C7.04949 8.03564 6.25 8.83514 6.25 9.82136C6.25 10.8076 7.04949 11.6071 8.03571 11.6071Z" stroke="white" stroke-width="1.5" stroke-linecap="round" stroke-linejoin="round"/>
<path d="M16.9999 21.9285C16.98 21.5822 16.8596 21.2491 16.6535 20.97C16.4474 20.691 16.1644 20.478 15.8392 20.3571C15.0315 20.0917 14.3451 19.5468 13.9032 18.8205C13.4613 18.0941 13.293 17.234 13.4286 16.3947C13.5642 15.5554 13.9947 14.792 14.6428 14.2417C15.2909 13.6915 16.114 13.3905 16.9642 13.3928H20.3035C20.8762 13.3944 21.4409 13.2583 21.95 12.9958C22.4591 12.7334 22.8975 12.3523 23.2284 11.8849C23.5594 11.4174 23.773 10.8772 23.8513 10.3098C23.9296 9.74248 23.8704 9.16461 23.6785 8.62497C22.9682 6.61956 21.7205 4.84792 20.0715 3.50362C18.4226 2.15933 16.4359 1.29408 14.3285 1.00242C12.2211 0.710759 10.0741 1.0039 8.12207 1.84982C6.17 2.69574 4.48798 4.0619 3.25976 5.79903C2.03155 7.53616 1.30439 9.57745 1.15774 11.6999C1.01109 13.8223 1.45058 15.9442 2.4282 17.8337C3.40582 19.7233 4.88396 21.3078 6.70113 22.4141C8.5183 23.5205 10.6046 24.1062 12.7321 24.1071C13.7827 24.11 14.8286 23.9658 15.8392 23.6785C16.2104 23.5745 16.5318 23.3406 16.7449 23.0193C16.958 22.6981 17.0485 22.311 16.9999 21.9285V21.9285Z" stroke="white" stroke-width="1.5" stroke-linecap="round" stroke-linejoin="round"/>
</g>
<defs>
<clipPath id="clip0_365_370">
<rect width="25" height="25" fill="white"/>
</clipPath>
</defs>
</svg>
