<svg width="25" height="25" viewBox="0 0 25 25" fill="none" xmlns="http://www.w3.org/2000/svg">
<path d="M2.67854 4.46436C2.20494 4.46436 1.75073 4.65249 1.41585 4.98738C1.08096 5.32227 0.892822 5.77647 0.892822 6.25007V22.3215C0.892822 22.7951 1.08096 23.2493 1.41585 23.5842C1.75073 23.9191 2.20494 24.1072 2.67854 24.1072H22.3214C22.795 24.1072 23.2492 23.9191 23.5841 23.5842C23.919 23.2493 24.1071 22.7951 24.1071 22.3215V6.25007C24.1071 5.77647 23.919 5.32227 23.5841 4.98738C23.2492 4.65249 22.795 4.46436 22.3214 4.46436H18.75" stroke="white" stroke-width="1.5" stroke-linecap="round" stroke-linejoin="round"/>
<path d="M6.25 0.892822V8.03568" stroke="white" stroke-width="1.5" stroke-linecap="round" stroke-linejoin="round"/>
<path d="M18.75 0.892822V8.03568" stroke="white" stroke-width="1.5" stroke-linecap="round" stroke-linejoin="round"/>
<path d="M6.25 4.46436H15.1786" stroke="white" stroke-width="1.5" stroke-linecap="round" stroke-linejoin="round"/>
<path d="M12.5 13.3928C14.2857 9.82139 17.8571 11.6071 17.8571 14.2857C17.8571 17.8571 12.5 19.6428 12.5 19.6428C12.5 19.6428 7.14282 17.8571 7.14282 14.2857C7.14282 11.6071 10.7143 9.82139 12.5 13.3928Z" stroke="white" stroke-width="1.5" stroke-linecap="round" stroke-linejoin="round"/>
</svg>
