<svg width="25" height="25" viewBox="0 0 25 25" fill="none" xmlns="http://www.w3.org/2000/svg">
<g clip-path="url(#clip0_317_7207)">
<path d="M12.2679 16.9645C16.7059 16.9645 20.3036 13.3668 20.3036 8.92878C20.3036 4.49078 16.7059 0.893066 12.2679 0.893066C7.82989 0.893066 4.23218 4.49078 4.23218 8.92878C4.23218 13.3668 7.82989 16.9645 12.2679 16.9645Z" stroke="white" stroke-width="1.5" stroke-linecap="round" stroke-linejoin="round"/>
<path d="M12.2679 12.5003C14.2403 12.5003 15.8393 10.9013 15.8393 8.92885C15.8393 6.9564 14.2403 5.35742 12.2679 5.35742C10.2955 5.35742 8.69647 6.9564 8.69647 8.92885C8.69647 10.9013 10.2955 12.5003 12.2679 12.5003Z" stroke="white" stroke-width="1.5" stroke-linecap="round" stroke-linejoin="round"/>
<path d="M10.7143 16.8218L9.14288 23.429C9.11178 23.5546 9.05429 23.6721 8.97423 23.7737C8.89418 23.8753 8.7934 23.9587 8.67859 24.0183C8.55743 24.0709 8.42675 24.098 8.29467 24.098C8.16258 24.098 8.0319 24.0709 7.91074 24.0183L1.98217 21.429C1.85781 21.3702 1.74839 21.284 1.66211 21.1769C1.57583 21.0697 1.51495 20.9445 1.48402 20.8104C1.45309 20.6764 1.45292 20.5371 1.48353 20.403C1.51413 20.2689 1.57472 20.1435 1.66074 20.0361L6.25002 14.2861" stroke="white" stroke-width="1.5" stroke-linecap="round" stroke-linejoin="round"/>
<path d="M14.2858 16.7325L15.8929 23.4289C15.9249 23.5566 15.9847 23.6757 16.068 23.7775C16.1514 23.8794 16.2562 23.9616 16.3751 24.0182C16.4929 24.0715 16.6207 24.099 16.7501 24.099C16.8794 24.099 17.0072 24.0715 17.1251 24.0182L23.0179 21.4289C23.1441 21.3708 23.2551 21.2841 23.3419 21.1756C23.4287 21.0671 23.4889 20.9398 23.5179 20.8039C23.5518 20.671 23.5532 20.5319 23.5221 20.3982C23.4911 20.2646 23.4284 20.1404 23.3393 20.0361L18.5536 13.9468" stroke="white" stroke-width="1.5" stroke-linecap="round" stroke-linejoin="round"/>
</g>
<defs>
<clipPath id="clip0_317_7207">
<rect width="25" height="25" fill="white"/>
</clipPath>
</defs>
</svg>
