<svg width="16" height="16" viewBox="0 0 16 16" fill="none" xmlns="http://www.w3.org/2000/svg">
<g clip-path="url(#clip0_141_2325)">
<path d="M12.6451 9.91174C12.3175 9.57067 11.9224 9.38832 11.5037 9.38832C11.0883 9.38832 10.6898 9.56729 10.3488 9.90836L9.28166 10.9721C9.19386 10.9248 9.10606 10.8809 9.02164 10.837C8.90007 10.7762 8.78526 10.7188 8.68733 10.658C7.68776 10.0232 6.77937 9.19583 5.90813 8.12535C5.48602 7.5918 5.20236 7.14267 4.99636 6.68679C5.27327 6.43352 5.52992 6.17012 5.77981 5.91685C5.87436 5.8223 5.96891 5.72437 6.06347 5.62982C6.77262 4.92066 6.77262 4.00215 6.06347 3.29299L5.14157 2.3711C5.03689 2.26641 4.92883 2.15835 4.82752 2.05029C4.6249 1.84092 4.41216 1.6248 4.19266 1.42219C3.8651 1.098 3.47338 0.925781 3.06139 0.925781C2.64941 0.925781 2.25094 1.098 1.91325 1.42219C1.90987 1.42556 1.90987 1.42556 1.90649 1.42894L0.758343 2.58722C0.326098 3.01947 0.0795838 3.54626 0.0255532 4.15748C-0.0554926 5.14354 0.234922 6.06206 0.457798 6.66315C1.00486 8.13886 1.82207 9.50651 3.04113 10.9721C4.52022 12.7382 6.29985 14.1329 8.33275 15.1156C9.10944 15.4836 10.1462 15.9193 11.3044 15.9936C11.3753 15.9969 11.4496 16.0003 11.5172 16.0003C12.2972 16.0003 12.9524 15.72 13.4657 15.1628C13.469 15.1561 13.4758 15.1527 13.4792 15.1459C13.6548 14.9332 13.8574 14.7407 14.0701 14.5347C14.2153 14.3963 14.3639 14.2511 14.5091 14.0991C14.8434 13.7513 15.019 13.3461 15.019 12.9307C15.019 12.512 14.8401 12.1101 14.499 11.7724L12.6451 9.91174ZM13.854 13.4676C13.8506 13.4676 13.8506 13.471 13.854 13.4676C13.7223 13.6095 13.5872 13.7378 13.442 13.8796C13.2225 14.089 12.9996 14.3085 12.7903 14.555C12.4492 14.9197 12.0474 15.0919 11.5206 15.0919C11.4699 15.0919 11.4159 15.0919 11.3652 15.0885C10.3623 15.0244 9.43025 14.6327 8.73123 14.2983C6.8199 13.3731 5.14157 12.0595 3.74691 10.3946C2.59538 9.00673 1.82545 7.7235 1.31553 6.34572C1.00148 5.50487 0.886665 4.84975 0.937319 4.23178C0.971088 3.83668 1.12305 3.50912 1.40333 3.22883L2.55486 2.07731C2.72033 1.92197 2.89593 1.83755 3.06815 1.83755C3.28089 1.83755 3.45312 1.96587 3.56118 2.07393C3.56455 2.07731 3.56793 2.08068 3.57131 2.08406C3.7773 2.27655 3.97316 2.47578 4.17915 2.68853C4.28384 2.79659 4.3919 2.90465 4.49996 3.01609L5.42185 3.93798C5.77981 4.29594 5.77981 4.62687 5.42185 4.98483C5.32392 5.08276 5.22937 5.18069 5.13144 5.27524C4.84778 5.56565 4.57763 5.83581 4.28384 6.09921C4.27708 6.10596 4.27033 6.10934 4.26695 6.11609C3.97654 6.40651 4.03057 6.69017 4.09135 6.88265C4.09473 6.89278 4.09811 6.90291 4.10148 6.91304C4.34124 7.49387 4.67893 8.04093 5.19222 8.69267L5.1956 8.69605C6.12763 9.8442 7.11031 10.7391 8.1943 11.4246C8.33275 11.5124 8.47458 11.5833 8.60966 11.6508C8.73123 11.7116 8.84604 11.769 8.94397 11.8298C8.95748 11.8366 8.97099 11.8467 8.9845 11.8535C9.09931 11.9109 9.20737 11.9379 9.31881 11.9379C9.59909 11.9379 9.77469 11.7623 9.8321 11.7049L10.987 10.55C11.1018 10.4352 11.2842 10.2967 11.4969 10.2967C11.7063 10.2967 11.8785 10.4284 11.9832 10.5432C11.9866 10.5466 11.9866 10.5466 11.9899 10.55L13.8506 12.4107C14.1984 12.7551 14.1984 13.1097 13.854 13.4676Z" fill="white"/>
<path d="M8.64667 3.8067C9.53142 3.95529 10.3351 4.37403 10.9767 5.01564C11.6184 5.65725 12.0337 6.46096 12.1857 7.34571C12.2228 7.56858 12.4153 7.72392 12.6348 7.72392C12.6618 7.72392 12.6855 7.72054 12.7125 7.71717C12.9624 7.67664 13.1278 7.44026 13.0873 7.19037C12.905 6.11989 12.3984 5.14396 11.6251 4.37065C10.8518 3.59734 9.87587 3.0908 8.80539 2.90845C8.5555 2.86792 8.32249 3.03339 8.27859 3.27991C8.23469 3.52642 8.39678 3.76618 8.64667 3.8067Z" fill="white"/>
<path d="M15.9808 7.05794C15.6803 5.29519 14.8496 3.69116 13.5731 2.41469C12.2966 1.13821 10.6926 0.307495 8.92985 0.00695018C8.68334 -0.0369496 8.45033 0.131896 8.40643 0.37841C8.36591 0.628302 8.53138 0.861308 8.78127 0.905208C10.3549 1.17198 11.7901 1.91828 12.9315 3.0563C14.0729 4.19769 14.8158 5.63288 15.0826 7.20652C15.1197 7.4294 15.3122 7.58473 15.5317 7.58473C15.5587 7.58473 15.5824 7.58136 15.6094 7.57798C15.8559 7.54084 16.0247 7.30445 15.9808 7.05794Z" fill="white"/>
</g>
<defs>
<clipPath id="clip0_141_2325">
<rect width="16" height="16" fill="white"/>
</clipPath>
</defs>
</svg>
