<svg width="50" height="50" viewBox="0 0 50 50" fill="none" xmlns="http://www.w3.org/2000/svg">
<rect width="50" height="50" rx="25" fill="#734BDF"/>
<path d="M23.7134 35.2131L25.4991 36.9991L27.2852 35.2131L25.4991 33.4277L23.7134 35.2131Z" fill="white"/>
<path d="M20.1436 31.6435L23.713 35.2142L25.4992 33.4289L21.9288 29.8574L20.1436 31.6435Z" fill="white"/>
<path d="M27.2854 13.7861L25.4994 12L23.7136 13.7861L25.4994 15.5714L27.2854 13.7861Z" fill="white"/>
<path d="M25.4995 33.4289L27.2853 35.2142L30.8567 31.642L29.0706 29.8574L25.4995 33.4289Z" fill="white"/>
<path d="M27.2869 28.0705L25.5008 26.2852L23.7151 28.0705L25.5008 29.8566L27.2869 28.0705Z" fill="white"/>
<path d="M29.0707 15.5723L27.285 17.3584L34.4278 24.5005L32.6421 26.2858L25.4996 19.1429L18.3571 26.2858L16.5707 24.5012L23.7135 17.3576L21.9286 15.5723L13 24.5012L18.3594 29.858L20.1448 28.072L20.144 28.0711L25.4993 22.7152L31.8462 29.0621L31.8469 29.0613L32.6421 29.8565L37.9992 24.5012L29.0707 15.5723Z" fill="white"/>
</svg>
