<svg width="608" height="520" viewBox="0 0 608 520" fill="none" xmlns="http://www.w3.org/2000/svg">
<path d="M460 360C471.046 360 480 368.954 480 380V500C480 511.046 471.046 520 460 520H20C8.95431 520 0 511.046 0 500V380C0 368.954 8.95431 360 20 360H460ZM588 180C599.046 180 608 188.954 608 200V320C608 331.046 599.046 340 588 340H148C136.954 340 128 331.046 128 320V200C128 188.954 136.954 180 148 180H588ZM497 0C508.046 5.15406e-06 517 8.95431 517 20V140C517 151.046 508.046 160 497 160H57C45.9543 160 37 151.046 37 140V20C37 8.95431 45.9543 3.22129e-07 57 0H497Z" fill="white"/>
</svg>
