<svg width="240" height="240" viewBox="0 0 240 240" fill="none" xmlns="http://www.w3.org/2000/svg">
<rect width="240" height="240" rx="120" fill="#734BDF"/>
<path d="M126.308 35.6967L122.148 20L125.496 20.3035L128.604 33.2867L133.909 21.0662L137.236 21.3678L130.343 36.0625L126.308 35.6967Z" fill="white"/>
<path d="M136.754 37.1017L139.115 25.9931L142.066 26.6202L139.705 37.7288L136.754 37.1017ZM140.828 25.1895C140.28 25.073 139.871 24.8174 139.603 24.4225C139.337 24.0136 139.26 23.5491 139.37 23.0292C139.487 22.4811 139.756 22.0758 140.179 21.8132C140.602 21.5506 141.081 21.476 141.615 21.5895C142.107 21.694 142.492 21.9522 142.772 22.3641C143.069 22.765 143.159 23.2394 143.042 23.7875C142.929 24.3215 142.661 24.7198 142.238 24.9824C141.832 25.2339 141.362 25.303 140.828 25.1895Z" fill="white"/>
<path d="M146.675 39.8698C145.541 39.4996 144.652 38.9599 144.007 38.2505C143.362 37.5411 142.962 36.7076 142.806 35.75C142.655 34.7787 142.76 33.7399 143.121 32.6338C143.487 31.5139 144.024 30.6089 144.733 29.9186C145.447 29.2146 146.278 28.753 147.226 28.5337C148.188 28.3189 149.215 28.3899 150.307 28.7467C151.127 29.0143 151.799 29.385 152.324 29.8589C152.863 30.3372 153.264 30.8913 153.527 31.5212C153.804 32.1555 153.937 32.8339 153.928 33.5563C153.937 34.2696 153.812 34.9995 153.553 35.7461C153.49 35.9373 153.423 36.1195 153.352 36.2925C153.28 36.4656 153.195 36.6342 153.096 36.7984L145.701 34.3831C145.608 34.8062 145.601 35.2196 145.681 35.6235C145.761 36.0274 145.938 36.3875 146.212 36.7038C146.505 37.011 146.911 37.2493 147.43 37.4188C147.771 37.5303 148.096 37.5987 148.405 37.6241C148.719 37.6359 149.005 37.5932 149.263 37.4963C149.522 37.3993 149.728 37.2549 149.881 37.0632L152.708 37.9865C152.267 38.7342 151.716 39.2873 151.055 39.6456C150.408 40.0085 149.702 40.2013 148.939 40.2241C148.18 40.2332 147.426 40.1152 146.675 39.8698ZM146.418 32.3957L151.109 33.9278C151.216 33.5546 151.232 33.182 151.157 32.8099C151.1 32.4286 150.932 32.0866 150.653 31.7839C150.392 31.4721 150.002 31.2314 149.483 31.0619C148.964 30.8924 148.494 30.8521 148.072 30.9409C147.664 31.0343 147.317 31.2158 147.033 31.4856C146.766 31.7462 146.561 32.0495 146.418 32.3957Z" fill="white"/>
<path d="M156.271 43.3384L158.626 31.667L161.513 33.26L159.54 41.2047L165.324 35.3633L168.286 36.998L166.427 45.0051L172.059 39.0804L174.908 40.6526L166.289 48.8672L163.252 47.1909L164.977 39.3809L159.308 45.0147L156.271 43.3384Z" fill="white"/>
<path d="M179.445 59.9104C178.684 59.1679 178.09 58.3573 177.663 57.4786C177.246 56.61 177.068 55.7029 177.127 54.7574C177.197 53.8219 177.572 52.8928 178.251 51.9702L180.503 54.1676C180.254 54.6075 180.148 55.0558 180.184 55.5126C180.23 55.959 180.378 56.394 180.627 56.8177C180.886 57.2514 181.206 57.6539 181.586 58.0251C181.874 58.3061 182.192 58.546 182.54 58.745C182.888 58.9439 183.234 59.0413 183.58 59.0371C183.935 59.0429 184.259 58.8967 184.55 58.5986C184.77 58.3724 184.9 58.1371 184.937 57.8928C184.985 57.6586 184.957 57.41 184.852 57.1472C184.767 56.8841 184.632 56.5911 184.445 56.2683C184.289 55.9959 184.113 55.7237 183.917 55.4518C183.731 55.1899 183.555 54.9178 183.389 54.6353C183.233 54.3629 183.093 54.0853 182.967 53.8023C182.677 53.3182 182.422 52.8286 182.203 52.3335C181.993 51.8281 181.86 51.3268 181.803 50.8297C181.756 50.3223 181.821 49.8135 181.998 49.3034C182.185 48.8033 182.519 48.3065 183.001 47.813C183.523 47.2784 184.052 46.9113 184.588 46.7117C185.134 46.5222 185.671 46.4547 186.2 46.5092C186.75 46.5634 187.275 46.7044 187.775 46.9319C188.286 47.1695 188.757 47.4482 189.187 47.7681C189.618 48.0879 190.003 48.4134 190.342 48.7445C191.052 49.4369 191.569 50.1824 191.893 50.981C192.218 51.7796 192.319 52.6013 192.198 53.446C192.076 54.2907 191.674 55.1134 190.993 55.9141L188.85 53.8221C189.11 53.4735 189.242 53.1112 189.248 52.7352C189.253 52.3593 189.157 51.9846 188.96 51.6111C188.773 51.2476 188.504 50.8953 188.155 50.5542C187.928 50.3334 187.687 50.1382 187.431 49.9687C187.175 49.7991 186.915 49.6753 186.65 49.5972C186.405 49.5189 186.161 49.5016 185.917 49.5452C185.684 49.5988 185.468 49.7285 185.267 49.9341C185.066 50.1397 184.947 50.3748 184.91 50.6394C184.882 50.8938 184.921 51.1828 185.027 51.5066C185.153 51.8302 185.32 52.1837 185.528 52.5672C185.736 52.9711 185.979 53.3694 186.258 53.7622C186.537 54.155 186.781 54.5533 186.989 54.9572C187.28 55.4413 187.524 55.9209 187.723 56.3959C187.932 56.8607 188.059 57.3265 188.106 57.7933C188.162 58.2497 188.102 58.7127 187.925 59.1822C187.757 59.6414 187.443 60.1075 186.982 60.5804C186.369 61.2076 185.729 61.6269 185.061 61.8382C184.414 62.0493 183.759 62.0928 183.097 61.9688C182.446 61.8549 181.808 61.6137 181.184 61.2454C180.559 60.8772 179.98 60.4321 179.445 59.9104Z" fill="white"/>
<path d="M188.263 70.0465C187.569 69.1123 187.164 68.1694 187.048 67.2177C186.94 66.2777 187.104 65.3777 187.539 64.5177C187.986 63.6492 188.682 62.8638 189.628 62.1615C190.585 61.4505 191.548 61.0126 192.517 60.8477C193.498 60.6742 194.433 60.7763 195.322 61.154C196.219 61.5433 197.023 62.2166 197.734 63.1739C198.283 63.912 198.638 64.668 198.801 65.4416C198.964 66.2153 198.926 66.9593 198.687 67.6737C198.457 68.3995 198 69.0611 197.316 69.6584L195.556 67.2882C195.882 66.8846 196.026 66.4643 195.988 66.0274C195.959 65.602 195.794 65.1875 195.494 64.7838C195.109 64.2648 194.673 63.9438 194.188 63.8208C193.712 63.7094 193.226 63.7301 192.731 63.8829C192.245 64.0472 191.806 64.275 191.414 64.5662C190.987 64.8832 190.635 65.2521 190.357 65.6732C190.091 66.0857 189.948 66.5318 189.928 67.0116C189.929 67.4943 190.113 67.9836 190.481 68.4796C190.79 68.8948 191.152 69.1896 191.568 69.3639C191.995 69.5297 192.445 69.5089 192.917 69.3014L194.716 71.7235C193.923 72.2225 193.133 72.4602 192.346 72.4363C191.559 72.4125 190.812 72.1891 190.104 71.7663C189.416 71.3464 188.803 70.7731 188.263 70.0465Z" fill="white"/>
<path d="M192.604 75.9504L206.085 68.8052L207.498 71.4708L202.89 73.9131C203.388 74.0234 203.826 74.2058 204.205 74.4603C204.59 74.7275 204.918 75.0249 205.19 75.3527C205.48 75.6864 205.71 76.0119 205.878 76.3293C206.376 77.2686 206.557 78.1158 206.42 78.871C206.284 79.6261 205.921 80.3063 205.331 80.9116C204.742 81.5168 204.022 82.0448 203.171 82.4956L197.63 85.4324L196.217 82.7668L201.377 80.0318C201.682 79.8704 201.97 79.6772 202.241 79.4522C202.519 79.24 202.747 78.9967 202.927 78.7226C203.12 78.4416 203.225 78.1339 203.243 77.7993C203.273 77.4579 203.177 77.0778 202.955 76.6589C202.747 76.2654 202.486 75.9728 202.173 75.781C201.86 75.5892 201.517 75.4785 201.143 75.4488C200.789 75.4251 200.427 75.4626 200.057 75.5613C199.686 75.6601 199.336 75.797 199.006 75.9719L194.017 78.616L192.604 75.9504Z" fill="white"/>
<path d="M200.147 92.7208C199.758 91.5936 199.652 90.5589 199.828 89.6166C200.004 88.6742 200.427 87.8519 201.097 87.1497C201.78 86.4427 202.671 85.8994 203.771 85.5197C204.885 85.1353 205.931 85.0174 206.909 85.166C207.901 85.3099 208.771 85.6936 209.518 86.3172C210.27 86.9543 210.833 87.8161 211.208 88.9025C211.49 89.7173 211.6 90.4771 211.539 91.182C211.483 91.9004 211.284 92.5545 210.94 93.1442C210.601 93.7476 210.141 94.2636 209.559 94.6923C208.996 95.1299 208.339 95.4708 207.587 95.7151C207.397 95.7807 207.211 95.8372 207.03 95.8846C206.849 95.932 206.663 95.9657 206.472 95.9859L203.934 88.6324C203.541 88.8138 203.207 89.0581 202.933 89.3654C202.659 89.6727 202.479 90.0313 202.393 90.4411C202.324 90.8598 202.379 91.3272 202.557 91.8432C202.675 92.1827 202.816 92.4834 202.983 92.7451C203.163 93.0022 203.369 93.2044 203.603 93.3518C203.836 93.4993 204.075 93.5763 204.321 93.5827L205.291 96.3938C204.429 96.4938 203.655 96.3885 202.971 96.0777C202.29 95.7806 201.711 95.3347 201.232 94.7401C200.767 94.1408 200.405 93.4677 200.147 92.7208ZM205.951 88.0044L207.562 92.6691C207.924 92.5289 208.23 92.3167 208.482 92.0323C208.751 91.7569 208.923 91.4166 208.996 91.0114C209.087 90.6152 209.043 90.1591 208.865 89.643C208.687 89.127 208.435 88.7276 208.109 88.4448C207.789 88.1756 207.435 88.009 207.048 87.945C206.679 87.8899 206.314 87.9096 205.951 88.0044Z" fill="white"/>
<path d="M203.276 104.643C203.075 103.511 203.163 102.525 203.54 101.685C203.933 100.857 204.529 100.183 205.327 99.662C206.139 99.1389 207.075 98.7835 208.136 98.5957C209.254 98.3979 210.279 98.4207 211.212 98.6641C212.159 98.905 212.949 99.3706 213.582 100.061C214.215 100.751 214.634 101.677 214.839 102.837C214.909 103.233 214.929 103.631 214.897 104.03C214.882 104.441 214.812 104.826 214.686 105.184C214.576 105.553 214.401 105.883 214.161 106.174L219.041 105.31L219.567 108.281L204.543 110.94L204.033 108.054L205.277 107.79C204.907 107.593 204.583 107.329 204.305 106.999C204.045 106.68 203.829 106.325 203.657 105.932C203.485 105.539 203.358 105.109 203.276 104.643ZM206.054 104.764C206.167 105.4 206.407 105.89 206.774 106.234C207.144 106.591 207.58 106.828 208.082 106.943C208.583 107.059 209.103 107.069 209.641 106.974C210.192 106.876 210.677 106.688 211.095 106.41C211.529 106.144 211.844 105.781 212.04 105.324C212.253 104.877 212.302 104.329 212.187 103.678C212.072 103.027 211.831 102.53 211.463 102.187C211.096 101.843 210.657 101.629 210.146 101.545C209.652 101.472 209.136 101.483 208.598 101.578C208.202 101.648 207.828 101.758 207.475 101.908C207.139 102.07 206.848 102.281 206.603 102.544C206.357 102.806 206.18 103.122 206.07 103.491C205.975 103.859 205.969 104.283 206.054 104.764Z" fill="white"/>
<path d="M204.67 118.551C204.637 116.884 205.036 115.591 205.866 114.669C206.711 113.762 207.995 113.292 209.718 113.258L216.074 113.135L216.133 116.151L209.992 116.27C209.475 116.28 209.017 116.361 208.618 116.513C208.233 116.678 207.929 116.921 207.705 117.242C207.482 117.576 207.375 118.002 207.385 118.519C207.396 119.08 207.526 119.508 207.776 119.805C208.026 120.102 208.354 120.304 208.758 120.411C209.177 120.518 209.616 120.567 210.076 120.558L216.216 120.439L216.274 123.433L209.918 123.557C208.123 123.592 206.807 123.165 205.971 122.276C205.135 121.401 204.701 120.159 204.67 118.551Z" fill="white"/>
<path d="M204.62 126.264L219.821 127.573L219.563 130.579L204.362 129.27L204.62 126.264Z" fill="white"/>
<path d="M203.119 136.35C203.345 135.179 203.769 134.229 204.392 133.501C205.015 132.772 205.792 132.271 206.722 131.996C207.667 131.725 208.711 131.699 209.854 131.919C211.01 132.141 211.976 132.561 212.749 133.178C213.537 133.798 214.099 134.565 214.435 135.478C214.769 136.405 214.827 137.433 214.61 138.562C214.447 139.408 214.163 140.122 213.759 140.702C213.351 141.297 212.852 141.764 212.26 142.104C211.665 142.457 211.009 142.675 210.291 142.756C209.584 142.854 208.844 142.821 208.071 142.658C207.874 142.62 207.685 142.576 207.504 142.527C207.323 142.477 207.145 142.414 206.97 142.336L208.441 134.697C208.01 134.658 207.598 134.703 207.208 134.833C206.817 134.962 206.482 135.183 206.202 135.495C205.934 135.824 205.749 136.256 205.645 136.792C205.578 137.145 205.55 137.476 205.564 137.786C205.591 138.099 205.67 138.377 205.798 138.621C205.927 138.865 206.096 139.052 206.305 139.18L205.743 142.1C204.946 141.756 204.328 141.279 203.89 140.668C203.449 140.071 203.169 139.395 203.051 138.641C202.947 137.889 202.97 137.126 203.119 136.35ZM210.502 135.16L209.569 140.006C209.953 140.065 210.325 140.034 210.685 139.913C211.056 139.809 211.374 139.6 211.639 139.285C211.916 138.987 212.106 138.57 212.209 138.034C212.313 137.498 212.294 137.026 212.153 136.619C212.009 136.225 211.786 135.904 211.482 135.656C211.19 135.424 210.864 135.259 210.502 135.16Z" fill="white"/>
<path d="M206.466 155.335L208.645 154.024L209.535 155.981L210.744 154.196L212.674 155.839L211.086 157.302L213.155 157.883L212.17 160.251L210.3 159.193L210.39 161.331L207.856 161.14L208.269 159.025L206.262 159.754L205.655 157.284L207.783 157.049L206.466 155.335Z" fill="white"/>
<path d="M191.491 165.743L207.26 169.619L205.388 172.411L192.505 168.913L200.685 179.428L198.825 182.203L189.235 169.108L191.491 165.743Z" fill="white"/>
<path d="M185.201 174.295L193.816 181.695L191.85 183.983L183.235 176.583L185.201 174.295ZM193.699 183.583C194.064 183.158 194.484 182.923 194.96 182.877C195.446 182.84 195.891 182.994 196.294 183.341C196.719 183.706 196.945 184.137 196.972 184.634C197 185.131 196.836 185.587 196.48 186.001C196.152 186.382 195.741 186.597 195.245 186.645C194.751 186.713 194.292 186.564 193.867 186.199C193.453 185.843 193.232 185.417 193.204 184.92C193.178 184.443 193.343 183.997 193.699 183.583Z" fill="white"/>
<path d="M178.055 181.639C178.922 180.821 179.821 180.298 180.752 180.07C181.683 179.843 182.607 179.89 183.523 180.211C184.448 180.542 185.31 181.131 186.109 181.977C186.918 182.833 187.456 183.738 187.723 184.691C188.001 185.654 188.009 186.605 187.748 187.542C187.477 188.49 186.924 189.358 186.088 190.147C185.462 190.739 184.815 191.152 184.147 191.387C183.47 191.632 182.791 191.719 182.112 191.649C181.423 191.589 180.763 191.382 180.133 191.028C179.502 190.695 178.921 190.236 178.389 189.652C178.251 189.506 178.123 189.36 178.005 189.214C177.887 189.069 177.78 188.913 177.683 188.748L183.339 183.407C183.012 183.123 182.652 182.919 182.259 182.796C181.867 182.673 181.466 182.657 181.057 182.747C180.647 182.857 180.244 183.099 179.847 183.474C179.585 183.721 179.37 183.974 179.2 184.233C179.04 184.503 178.94 184.775 178.902 185.048C178.864 185.321 178.892 185.571 178.987 185.797L176.825 187.839C176.379 187.094 176.157 186.346 176.158 185.594C176.149 184.852 176.316 184.14 176.661 183.459C177.016 182.788 177.48 182.182 178.055 181.639ZM184.742 184.987L181.154 188.375C181.431 188.647 181.751 188.839 182.113 188.951C182.476 189.083 182.856 189.099 183.255 188.999C183.654 188.919 184.052 188.691 184.449 188.317C184.846 187.942 185.106 187.548 185.23 187.135C185.343 186.731 185.349 186.34 185.248 185.961C185.146 185.603 184.978 185.278 184.742 184.987Z" fill="white"/>
<path d="M170.42 188.421L179.559 196.053L176.782 197.832L170.738 192.312L173.117 200.18L170.268 202.005L164.115 196.555L166.639 204.33L163.9 206.086L160.785 194.594L163.706 192.722L169.75 197.961L167.499 190.292L170.42 188.421Z" fill="white"/>
<path d="M144.81 200.882C145.826 200.569 146.822 200.435 147.798 200.48C148.76 200.529 149.642 200.806 150.444 201.31C151.232 201.819 151.869 202.593 152.354 203.631L149.347 204.557C149.08 204.129 148.737 203.821 148.319 203.634C147.905 203.461 147.452 203.383 146.961 203.399C146.456 203.419 145.95 203.508 145.442 203.664C145.057 203.783 144.694 203.947 144.353 204.157C144.012 204.368 143.761 204.626 143.6 204.931C143.424 205.24 143.398 205.594 143.521 205.992C143.614 206.294 143.759 206.52 143.955 206.67C144.138 206.824 144.37 206.918 144.651 206.952C144.922 207.004 145.245 207.025 145.618 207.015C145.931 207.008 146.254 206.984 146.587 206.942C146.906 206.903 147.229 206.879 147.557 206.868C147.87 206.862 148.181 206.871 148.49 206.896C149.054 206.873 149.606 206.883 150.146 206.927C150.69 206.985 151.193 207.108 151.657 207.296C152.125 207.497 152.541 207.797 152.905 208.196C153.254 208.6 153.531 209.131 153.734 209.79C153.954 210.504 154.023 211.144 153.942 211.71C153.848 212.28 153.65 212.785 153.349 213.223C153.039 213.68 152.664 214.073 152.225 214.404C151.772 214.739 151.302 215.019 150.815 215.245C150.328 215.47 149.858 215.652 149.405 215.792C148.458 216.084 147.556 216.182 146.699 216.085C145.843 215.988 145.072 215.684 144.389 215.173C143.705 214.662 143.175 213.916 142.797 212.935L145.66 212.053C145.841 212.448 146.096 212.738 146.424 212.923C146.751 213.107 147.126 213.202 147.549 213.207C147.957 213.216 148.395 213.149 148.862 213.005C149.164 212.912 149.451 212.794 149.722 212.65C149.994 212.506 150.227 212.337 150.422 212.141C150.608 211.964 150.74 211.758 150.818 211.523C150.882 211.293 150.872 211.04 150.787 210.766C150.703 210.491 150.553 210.274 150.339 210.115C150.129 209.969 149.856 209.865 149.521 209.803C149.177 209.759 148.786 209.736 148.35 209.735C147.896 209.725 147.43 209.749 146.951 209.806C146.473 209.863 146.007 209.887 145.552 209.876C144.988 209.9 144.45 209.885 143.938 209.833C143.43 209.794 142.96 209.683 142.528 209.501C142.1 209.332 141.722 209.057 141.394 208.677C141.071 208.311 140.812 207.812 140.617 207.181C140.359 206.343 140.297 205.58 140.431 204.893C140.555 204.223 140.83 203.627 141.255 203.105C141.667 202.588 142.184 202.143 142.806 201.77C143.428 201.398 144.096 201.102 144.81 200.882Z" fill="white"/>
<path d="M131.695 203.764C132.847 203.604 133.869 203.701 134.76 204.055C135.636 204.412 136.347 204.987 136.893 205.781C137.441 206.589 137.796 207.577 137.959 208.744C138.124 209.925 138.046 210.98 137.726 211.909C137.408 212.853 136.87 213.624 136.112 214.223C135.34 214.824 134.364 215.207 133.183 215.372C132.272 215.498 131.438 215.448 130.681 215.22C129.924 214.992 129.289 214.602 128.777 214.049C128.251 213.499 127.889 212.781 127.693 211.894L130.617 211.486C130.815 211.967 131.114 212.295 131.516 212.471C131.904 212.649 132.346 212.703 132.844 212.634C133.485 212.544 133.975 212.316 134.316 211.95C134.642 211.585 134.857 211.149 134.96 210.642C135.049 210.136 135.06 209.641 134.992 209.157C134.919 208.631 134.764 208.145 134.528 207.699C134.294 207.268 133.971 206.928 133.559 206.681C133.135 206.45 132.617 206.377 132.006 206.463C131.493 206.534 131.061 206.71 130.709 206.992C130.358 207.287 130.161 207.692 130.116 208.206L127.128 208.622C127.07 207.687 127.241 206.88 127.639 206.201C128.038 205.522 128.592 204.973 129.303 204.555C130.001 204.153 130.798 203.889 131.695 203.764Z" fill="white"/>
<path d="M124.328 204.744L124.135 220L121.118 219.962L121.184 214.747C120.849 215.131 120.479 215.428 120.074 215.638C119.655 215.848 119.236 215.994 118.818 216.075C118.386 216.17 117.99 216.215 117.631 216.211C116.568 216.197 115.738 215.95 115.141 215.468C114.543 214.986 114.121 214.341 113.872 213.534C113.624 212.726 113.506 211.841 113.518 210.878L113.598 204.608L116.614 204.646L116.54 210.486C116.536 210.83 116.567 211.176 116.635 211.521C116.688 211.867 116.792 212.184 116.946 212.474C117.1 212.777 117.32 213.017 117.605 213.193C117.89 213.384 118.269 213.482 118.743 213.488C119.189 213.493 119.571 213.405 119.889 213.222C120.207 213.039 120.469 212.791 120.674 212.478C120.865 212.179 121.006 211.843 121.097 211.47C121.187 211.098 121.235 210.725 121.24 210.351L121.312 204.706L124.328 204.744Z" fill="white"/>
<path d="M105.956 203.331C107.131 203.528 108.091 203.929 108.834 204.535C109.578 205.141 110.097 205.905 110.394 206.829C110.688 207.767 110.739 208.81 110.546 209.957C110.351 211.119 109.954 212.094 109.355 212.882C108.755 213.685 108.002 214.265 107.097 214.623C106.177 214.978 105.151 215.061 104.018 214.87C103.168 214.728 102.448 214.461 101.858 214.071C101.253 213.678 100.775 213.189 100.421 212.606C100.053 212.019 99.8203 211.369 99.722 210.653C99.6071 209.949 99.6222 209.208 99.7672 208.432C99.8005 208.233 99.8397 208.043 99.8848 207.861C99.9299 207.679 99.9892 207.5 100.063 207.323L107.735 208.611C107.763 208.179 107.708 207.769 107.57 207.382C107.431 206.994 107.202 206.665 106.884 206.393C106.548 206.132 106.112 205.957 105.573 205.867C105.219 205.807 104.887 205.788 104.578 205.809C104.266 205.844 103.99 205.928 103.749 206.063C103.508 206.197 103.325 206.37 103.202 206.583L100.27 206.09C100.594 205.285 101.057 204.657 101.657 204.204C102.243 203.749 102.912 203.453 103.663 203.317C104.412 203.195 105.176 203.2 105.956 203.331ZM107.321 210.683L102.454 209.866C102.404 210.251 102.444 210.622 102.573 210.979C102.686 211.347 102.903 211.66 103.224 211.918C103.529 212.188 103.95 212.368 104.488 212.458C105.027 212.549 105.498 212.519 105.902 212.368C106.292 212.215 106.607 211.984 106.849 211.675C107.073 211.377 107.231 211.047 107.321 210.683Z" fill="white"/>
<path d="M93.9966 200.378C95.0863 200.743 95.91 201.292 96.4675 202.025C97.0068 202.766 97.3143 203.612 97.3899 204.561C97.4609 205.525 97.3252 206.517 96.9827 207.539C96.622 208.615 96.1116 209.504 95.4516 210.207C94.7871 210.924 94.0004 211.395 93.0914 211.621C92.1824 211.846 91.1694 211.772 90.0525 211.397C89.6711 211.269 89.3125 211.096 88.9767 210.878C88.6227 210.668 88.3187 210.422 88.0648 210.14C87.7927 209.867 87.5865 209.555 87.4463 209.205L85.8708 213.905L83.0103 212.946L87.86 198.48L90.6387 199.412L90.2754 200.631C90.6257 200.4 91.0121 200.241 91.4347 200.156C91.8392 200.079 92.2549 200.059 92.6819 200.096C93.1089 200.134 93.5471 200.227 93.9966 200.378ZM92.5615 202.761C91.9485 202.555 91.4034 202.532 90.9261 202.69C90.4352 202.843 90.019 203.113 89.6776 203.499C89.3362 203.884 89.0788 204.336 88.9053 204.853C88.7272 205.385 88.6604 205.9 88.705 206.4C88.7314 206.909 88.8987 207.359 89.2069 207.75C89.497 208.15 89.9553 208.456 90.5819 208.666C91.2085 208.876 91.7604 208.902 92.2377 208.743C92.715 208.585 93.113 208.302 93.4317 207.894C93.7322 207.494 93.9693 207.036 94.1428 206.518C94.2707 206.137 94.3531 205.755 94.3901 205.374C94.4089 205.001 94.3618 204.645 94.2488 204.304C94.1358 203.963 93.9433 203.656 93.6712 203.383C93.3945 203.123 93.0246 202.916 92.5615 202.761Z" fill="white"/>
<path d="M81.1382 194.954C82.6159 195.724 83.56 196.695 83.9707 197.865C84.362 199.041 84.1591 200.393 83.362 201.922L80.4229 207.559L77.7477 206.164L80.5873 200.718C80.8264 200.259 80.9752 199.819 81.0338 199.395C81.073 198.978 81.0057 198.595 80.8317 198.245C80.645 197.888 80.3223 197.591 79.8637 197.351C79.3669 197.092 78.9283 197.001 78.5479 197.078C78.1674 197.156 77.8333 197.346 77.5454 197.649C77.2509 197.966 76.9973 198.328 76.7848 198.735L73.9452 204.181L71.2892 202.796L74.2284 197.159C75.0587 195.567 76.0644 194.617 77.2455 194.309C78.4139 193.995 79.7115 194.21 81.1382 194.954Z" fill="white"/>
<path d="M74.5023 191.275L66.0654 203.987L63.5517 202.319L71.9887 189.607L74.5023 191.275Z" fill="white"/>
<path d="M66.3221 185.081C67.2412 185.841 67.8709 186.669 68.2112 187.565C68.5514 188.461 68.6186 189.384 68.4128 190.332C68.1978 191.291 67.7197 192.219 66.9784 193.116C66.2279 194.024 65.3963 194.67 64.4837 195.052C63.5619 195.446 62.6197 195.571 61.6571 195.428C60.6834 195.275 59.7536 194.833 58.8677 194.101C58.2033 193.552 57.7134 192.961 57.3981 192.327C57.0718 191.685 56.9017 191.022 56.8879 190.34C56.863 189.649 56.9871 188.968 57.2603 188.3C57.5133 187.633 57.897 186.999 58.4114 186.399C58.5395 186.244 58.6686 186.099 58.7987 185.965C58.9287 185.83 59.0699 185.704 59.2221 185.588L65.2186 190.543C65.4599 190.184 65.6175 189.801 65.6912 189.396C65.765 188.992 65.7321 188.592 65.5925 188.197C65.4327 187.804 65.1424 187.433 64.7216 187.086C64.4448 186.857 64.1672 186.674 63.8889 186.537C63.6014 186.411 63.3197 186.346 63.0438 186.342C62.7679 186.337 62.5235 186.396 62.3106 186.519L60.0183 184.624C60.7022 184.09 61.4174 183.777 62.1638 183.686C62.8992 183.585 63.6261 183.664 64.3445 183.922C65.0538 184.192 65.713 184.578 66.3221 185.081ZM63.8234 192.13L60.0195 188.986C59.7835 189.295 59.6322 189.635 59.5656 190.009C59.4789 190.385 59.5099 190.764 59.6586 191.148C59.7871 191.534 60.0617 191.901 60.4825 192.249C60.9033 192.596 61.3263 192.806 61.7515 192.878C62.1657 192.941 62.5545 192.899 62.9182 192.752C63.2615 192.607 63.5633 192.4 63.8234 192.13Z" fill="white"/>
<path d="M48.0671 178.95L48.1786 181.491L46.0341 181.338L47.0248 183.252L44.6593 184.164L44.1323 182.069L42.6343 183.61L41.024 181.615L42.8468 180.476L40.9246 179.535L42.3023 177.399L43.9638 178.772L44.2815 176.661L46.741 177.307L45.9314 179.289L48.0671 178.95Z" fill="white"/>
<path d="M46.0718 160.84L35.1475 172.855L33.5848 169.879L42.8015 160.221L29.6583 162.399L28.1057 159.442L44.1886 157.253L46.0718 160.84Z" fill="white"/>
<path d="M41.5576 151.237L30.9417 155.271L29.87 152.451L40.486 148.417L41.5576 151.237ZM29.3382 154.267C29.5373 154.791 29.5436 155.273 29.3572 155.712C29.1573 156.157 28.809 156.474 28.3121 156.663C27.7884 156.862 27.3015 156.855 26.8517 156.641C26.4018 156.428 26.0799 156.066 25.8859 155.556C25.7073 155.086 25.7154 154.622 25.9101 154.164C26.0863 153.697 26.4363 153.364 26.96 153.165C27.4703 152.971 27.9504 152.981 28.4003 153.194C28.8317 153.399 29.1443 153.757 29.3382 154.267Z" fill="white"/>
<path d="M38.5226 141.447C38.8262 142.6 38.8548 143.64 38.6085 144.567C38.3621 145.493 37.8789 146.281 37.1587 146.931C36.4246 147.585 35.4949 148.06 34.3695 148.357C33.2303 148.656 32.1784 148.696 31.2139 148.474C30.2355 148.256 29.3971 147.809 28.6987 147.131C27.9967 146.439 27.4994 145.538 27.2068 144.426C26.9873 143.593 26.9342 142.827 27.0475 142.128C27.1571 141.416 27.4053 140.779 27.7921 140.216C28.1752 139.64 28.6728 139.16 29.2848 138.776C29.8792 138.382 30.5603 138.091 31.3281 137.904C31.5226 137.853 31.712 137.81 31.8962 137.777C32.0805 137.743 32.2684 137.723 32.46 137.717L34.4405 145.24C34.8463 145.089 35.1973 144.87 35.4934 144.584C35.7896 144.298 35.9961 143.954 36.113 143.552C36.2125 143.14 36.1927 142.67 36.0537 142.142C35.9623 141.794 35.8434 141.484 35.6971 141.21C35.537 140.941 35.3461 140.724 35.1245 140.559C34.9029 140.395 34.67 140.3 34.4258 140.275L33.6687 137.399C34.5359 137.364 35.2994 137.527 35.959 137.888C36.6149 138.235 37.1593 138.723 37.5923 139.352C38.0113 139.985 38.3215 140.683 38.5226 141.447ZM32.3818 145.716L31.1255 140.943C30.754 141.056 30.4323 141.245 30.1603 141.509C29.8708 141.764 29.6745 142.09 29.5714 142.489C29.4508 142.877 29.46 143.335 29.5989 143.863C29.7379 144.391 29.9592 144.808 30.2626 145.115C30.5625 145.407 30.9029 145.6 31.2839 145.693C31.6473 145.775 32.0133 145.783 32.3818 145.716Z" fill="white"/>
<path d="M36.2362 131.52L25.1562 135.879L24.9267 132.59L32.6691 129.932L24.6236 128.247L24.388 124.872L32.1214 122.086L24.0879 120.573L23.8613 117.327L35.4394 120.105L35.681 123.566L28.1855 126.357L35.9946 128.059L36.2362 131.52Z" fill="white"/>
<path d="M37.56 102.958C37.3496 104 36.9914 104.939 36.4855 105.775C35.9825 106.597 35.3178 107.239 34.4914 107.703C33.6679 108.152 32.6842 108.342 31.5405 108.272L32.1632 105.188C32.6676 105.158 33.1018 105.004 33.4657 104.725C33.8156 104.444 34.1008 104.084 34.3214 103.645C34.5448 103.192 34.7092 102.705 34.8144 102.184C34.894 101.789 34.9229 101.392 34.9011 100.992C34.8793 100.592 34.7729 100.248 34.5818 99.9604C34.3936 99.6585 34.0953 99.4664 33.6869 99.3839C33.3771 99.3214 33.1094 99.3406 32.8838 99.4416C32.6611 99.5286 32.4678 99.6874 32.304 99.9181C32.1289 100.132 31.9565 100.405 31.7868 100.737C31.6426 101.016 31.5097 101.311 31.3879 101.624C31.2691 101.922 31.1361 102.218 30.989 102.511C30.8448 102.789 30.688 103.058 30.5184 103.317C30.2696 103.824 29.9968 104.303 29.7001 104.757C29.3894 105.207 29.0407 105.591 28.6541 105.908C28.2534 106.223 27.791 106.445 27.2667 106.574C26.7452 106.688 26.1465 106.677 25.4706 106.541C24.7383 106.393 24.1429 106.148 23.6843 105.806C23.2285 105.45 22.8799 105.036 22.6385 104.562C22.3858 104.071 22.2191 103.554 22.1384 103.01C22.0606 102.452 22.039 101.905 22.0738 101.37C22.1086 100.835 22.173 100.335 22.2668 99.87C22.463 98.8983 22.8083 98.0593 23.3026 97.3531C23.797 96.6468 24.4319 96.1155 25.2074 95.7591C25.9828 95.4027 26.8917 95.2931 27.9339 95.4302L27.341 98.3664C26.9072 98.3374 26.5309 98.4226 26.2122 98.6221C25.8934 98.8215 25.6309 99.1056 25.4245 99.4743C25.221 99.8289 25.0709 100.246 24.9742 100.724C24.9117 101.034 24.8787 101.343 24.8753 101.65C24.8719 101.957 24.9094 102.243 24.9878 102.508C25.055 102.756 25.1729 102.97 25.3416 103.151C25.5132 103.318 25.7398 103.429 26.0214 103.486C26.3031 103.543 26.5651 103.515 26.8077 103.403C27.0361 103.288 27.2576 103.098 27.4722 102.834C27.6756 102.552 27.8819 102.22 28.0911 101.837C28.3172 101.443 28.5195 101.023 28.6978 100.575C28.8761 100.127 29.0783 99.7065 29.3045 99.3124C29.5533 98.8058 29.8233 98.34 30.1143 97.9151C30.3912 97.4873 30.713 97.1273 31.0798 96.8349C31.4326 96.5398 31.8541 96.3391 32.3446 96.2329C32.8209 96.1239 33.383 96.1348 34.0308 96.2656C34.8898 96.4391 35.5894 96.7489 36.1295 97.1951C36.6584 97.6243 37.0504 98.1505 37.3057 98.7736C37.5638 99.3827 37.7076 100.049 37.7373 100.773C37.7669 101.498 37.7078 102.226 37.56 102.958Z" fill="white"/>
<path d="M41.3112 90.0164C40.9007 91.1053 40.3267 91.9559 39.5892 92.5684C38.8567 93.1674 38.0112 93.5165 37.0526 93.6157C36.0805 93.7099 35.0433 93.5492 33.941 93.1336C32.8253 92.713 31.9359 92.1398 31.273 91.4139C30.5967 90.683 30.1769 89.8415 30.0138 88.8895C29.8557 87.9241 29.987 86.8835 30.4076 85.7677C30.732 84.9074 31.1754 84.1994 31.738 83.6439C32.3006 83.0883 32.9469 82.7178 33.677 82.5324C34.4121 82.3336 35.2158 82.3602 36.088 82.6123L35.0466 85.3748C34.5305 85.3184 34.099 85.4244 33.7522 85.6929C33.4104 85.9478 33.1508 86.3106 32.9735 86.7811C32.7454 87.386 32.7108 87.9257 32.8698 88.4001C33.0337 88.8611 33.3138 89.2585 33.7101 89.5921C34.1114 89.9123 34.5406 90.1585 34.9976 90.3308C35.495 90.5183 35.9959 90.615 36.5004 90.6209C36.9913 90.6218 37.4439 90.5007 37.8579 90.2576C38.2636 89.996 38.5754 89.5762 38.7933 88.9981C38.9758 88.5142 39.0279 88.0502 38.9496 87.6061C38.8579 87.157 38.5971 86.79 38.1671 86.5051L39.2313 83.6821C40.0798 84.0787 40.7069 84.6145 41.1126 85.2895C41.5184 85.9645 41.7348 86.7139 41.762 87.5379C41.7807 88.3433 41.6305 89.1695 41.3112 90.0164Z" fill="white"/>
<path d="M43.9389 83.1597L30.6445 75.6738L32.1248 73.045L36.6689 75.6037C36.493 75.1255 36.4099 74.6583 36.4195 74.202C36.4361 73.7333 36.5091 73.2962 36.6384 72.8909C36.7623 72.466 36.9123 72.0971 37.0885 71.7841C37.6101 70.8578 38.2255 70.248 38.9347 69.9549C39.6438 69.6617 40.4123 69.5999 41.2402 69.7693C42.0681 69.9387 42.9014 70.2595 43.7402 70.7318L49.2044 73.8086L47.7241 76.4374L42.6354 73.5721C42.335 73.4029 42.017 73.265 41.6813 73.1584C41.3526 73.0393 41.0244 72.9782 40.6965 72.9749C40.356 72.9646 40.0402 73.0423 39.749 73.2081C39.4453 73.3668 39.1772 73.6527 38.9446 74.0658C38.726 74.4539 38.6206 74.8314 38.6283 75.1985C38.6359 75.5655 38.7281 75.9142 38.9048 76.2445C39.0761 76.5553 39.3033 76.8398 39.5865 77.0982C39.8697 77.3566 40.174 77.5774 40.4995 77.7607L45.4191 80.5309L43.9389 83.1597Z" fill="white"/>
<path d="M53.9726 67.7513C53.2352 68.6884 52.4226 69.3377 51.5348 69.6993C50.6469 70.061 49.7266 70.1503 48.7738 69.9672C47.8097 69.7752 46.8704 69.3194 45.9559 68.5998C45.0301 67.8713 44.3651 67.0554 43.9607 66.1522C43.545 65.2401 43.3972 64.3012 43.5174 63.3354C43.6464 62.3584 44.0663 61.4183 44.777 60.5151C45.3101 59.8377 45.8894 59.3338 46.515 59.0034C47.1495 58.6618 47.8076 58.4759 48.4895 58.4457C49.1802 58.4043 49.8632 58.5121 50.5383 58.7692C51.2111 59.0061 51.8535 59.3746 52.4656 59.8745C52.6236 59.9989 52.7716 60.1244 52.9095 60.2512C53.0474 60.378 53.1764 60.5161 53.2965 60.6655L48.4857 66.7789C48.851 67.0116 49.237 67.1599 49.6436 67.224C50.0503 67.288 50.4493 67.2456 50.8408 67.0966C51.2298 66.9274 51.5931 66.6283 51.9307 66.1993C52.1528 65.9171 52.329 65.6352 52.4591 65.3537C52.5779 65.0633 52.6362 64.7801 52.634 64.5042C52.6318 64.2282 52.567 63.9853 52.4397 63.7754L54.2787 61.4384C54.8293 62.1093 55.1592 62.8168 55.2684 63.5609C55.3865 64.2936 55.325 65.0222 55.084 65.7466C54.8317 66.4621 54.4613 67.1304 53.9726 67.7513ZM46.866 65.4221L49.9178 61.5441C49.6041 61.3155 49.2596 61.1724 48.8845 61.1148C48.5069 61.0371 48.128 61.0772 47.7479 61.235C47.3653 61.3727 47.0052 61.6561 46.6676 62.0851C46.33 62.5141 46.1304 62.942 46.0687 63.3688C46.016 63.7843 46.0673 64.1721 46.2228 64.5321C46.3759 64.8719 46.5903 65.1686 46.866 65.4221Z" fill="white"/>
<path d="M62.28 58.6795C61.4383 59.4621 60.5626 59.9233 59.6528 60.063C58.7438 60.1824 57.8541 60.0484 56.9838 59.661C56.1037 59.2631 55.2968 58.6696 54.5631 57.8805C53.7903 57.0493 53.2528 56.1759 52.9506 55.2602C52.6387 54.334 52.6009 53.4177 52.8371 52.5115C53.0734 51.6052 53.6229 50.751 54.4856 49.9488C54.7802 49.6749 55.1037 49.4427 55.4563 49.2522C55.8096 49.0414 56.1708 48.8919 56.5399 48.8036C56.9098 48.6951 57.282 48.6629 57.6565 48.707L54.2815 45.0773L56.4909 43.0229L66.8801 54.1962L64.7339 56.1918L63.8365 55.2901C63.8722 55.7081 63.8266 56.1233 63.6998 56.5354C63.5737 56.9273 63.3924 57.3019 63.1557 57.6592C62.9191 58.0166 62.6272 58.3567 62.28 58.6795ZM60.873 56.2802C61.3464 55.8399 61.6277 55.3724 61.7168 54.8775C61.8165 54.3729 61.7786 53.8785 61.603 53.3944C61.4275 52.9102 61.1539 52.4682 60.7821 52.0684C60.4006 51.6581 59.9797 51.3531 59.5193 51.1534C59.0597 50.9334 58.5844 50.8653 58.0935 50.9491C57.6032 51.0126 57.1161 51.2693 56.6321 51.7193C56.1482 52.1693 55.8616 52.6418 55.7725 53.1366C55.6833 53.6315 55.7419 54.1165 55.9483 54.5916C56.1554 55.0464 56.4448 55.4737 56.8166 55.8735C57.0905 56.168 57.3862 56.4228 57.7036 56.6376C58.0219 56.8322 58.3577 56.9613 58.7112 57.0249C59.0646 57.0886 59.4263 57.0662 59.7962 56.9577C60.1563 56.8386 60.5152 56.6128 60.873 56.2802Z" fill="white"/>
<path d="M73.1973 49.9576C71.8156 50.8893 70.5126 51.2567 69.2883 51.0599C68.0679 50.8432 66.9758 50.0201 66.012 48.5907L62.458 43.3198L64.9594 41.6332L68.3929 46.7254C68.6821 47.1542 68.9986 47.4952 69.3426 47.7484C69.6905 47.9817 70.0597 48.1053 70.4503 48.1192C70.8528 48.125 71.2684 47.9834 71.6972 47.6943C72.1618 47.381 72.4509 47.0388 72.5645 46.6677C72.6781 46.2965 72.6701 45.912 72.5405 45.5143C72.4029 45.1046 72.2055 44.7092 71.9485 44.328L68.515 39.2358L70.9986 37.5612L74.5526 42.8321C75.5565 44.321 75.9122 45.658 75.6195 46.8429C75.3388 48.0198 74.5314 49.0581 73.1973 49.9576Z" fill="white"/>
<path d="M79.5901 45.8789L72.4365 32.4028L75.1013 30.9883L82.2549 44.4643L79.5901 45.8789Z" fill="white"/>
<path d="M88.9443 41.6395C87.8379 42.0844 86.8098 42.2423 85.8598 42.1133C84.9099 41.9843 84.0675 41.603 83.3327 40.9694C82.5926 40.3225 82.0054 39.4592 81.5713 38.3796C81.1318 37.2866 80.9618 36.2478 81.0614 35.2632C81.1556 34.2653 81.4955 33.3777 82.081 32.6003C82.6798 31.8175 83.5124 31.2118 84.5787 30.783C85.3784 30.4614 86.1318 30.3133 86.8388 30.3387C87.5591 30.3587 88.2224 30.5256 88.8285 30.8393C89.448 31.1476 89.9864 31.5815 90.4436 32.1409C90.9087 32.6816 91.2821 33.3211 91.5635 34.0596C91.6386 34.2462 91.7043 34.4288 91.7606 34.6075C91.817 34.7861 91.86 34.9701 91.8897 35.1595L84.672 38.0618C84.8728 38.4456 85.1335 38.7666 85.4541 39.0248C85.7747 39.283 86.1418 39.445 86.5554 39.511C86.977 39.5582 87.441 39.48 87.9475 39.2763C88.2808 39.1423 88.5739 38.9858 88.827 38.8065C89.0748 38.614 89.2665 38.3976 89.4021 38.1572C89.5377 37.9169 89.6026 37.674 89.5969 37.4286L92.356 36.3191C92.4989 37.1752 92.4323 37.953 92.1561 38.6524C91.8933 39.3465 91.4769 39.9475 90.9069 40.4554C90.3316 40.95 89.6774 41.3447 88.9443 41.6395ZM83.9441 36.0783L88.5226 34.2372C88.3646 33.8827 88.1373 33.587 87.8407 33.3501C87.5521 33.0945 87.2037 32.9404 86.7954 32.8878C86.3951 32.8165 85.9417 32.8827 85.4352 33.0864C84.9287 33.29 84.5424 33.5615 84.2762 33.9008C84.0234 34.2347 83.8747 34.5965 83.83 34.9861C83.7934 35.357 83.8314 35.721 83.9441 36.0783Z" fill="white"/>
<path d="M103.083 28.5425L100.801 27.4215L101.964 25.6132L99.8087 25.564L100.144 23.0511L102.234 23.5936L101.601 21.54L104.125 21.0847L104.249 23.2301L105.997 21.9951L107.21 24.2287L105.208 25.0278L106.908 26.3196L105.162 28.1676L103.811 26.5062L103.083 28.5425Z" fill="white"/>
<rect x="70" y="70" width="100" height="100" rx="50" fill="white"/>
<path d="M117.428 140.428L120.999 144L124.571 140.428L120.999 136.857L117.428 140.428Z" fill="#734BDF"/>
<path d="M110.287 133.286L117.426 140.427L120.998 136.857L113.858 129.714L110.287 133.286Z" fill="#734BDF"/>
<path d="M124.571 97.5721L120.999 94L117.428 97.5721L120.999 101.143L124.571 97.5721Z" fill="#734BDF"/>
<path d="M120.999 136.857L124.571 140.427L131.713 133.283L128.141 129.714L120.999 136.857Z" fill="#734BDF"/>
<path d="M124.573 126.142L121.001 122.571L117.43 126.142L121.001 129.714L124.573 126.142Z" fill="#734BDF"/>
<path d="M128.141 101.143L124.57 104.715L138.856 118.999L135.284 122.57L120.999 108.284L106.714 122.57L103.141 119.001L117.427 104.713L113.857 101.143L96 119.001L106.719 129.714L110.29 126.142L110.288 126.14L120.999 115.428L133.692 128.122L133.694 128.121L135.284 129.711L145.998 119.001L128.141 101.143Z" fill="#734BDF"/>
</svg>
