<svg width="40" height="40" viewBox="0 0 40 40" fill="none" xmlns="http://www.w3.org/2000/svg">
<path fill-rule="evenodd" clip-rule="evenodd" d="M12.576 23.8479C11.5629 25.2672 9.64797 26.7952 7.04099 28.0672C6.3635 28.3978 6.66914 29.4223 7.41701 29.3277C12.8945 28.6349 16.4448 26.2359 18.3836 22.6684C19.1046 21.3416 19.5577 19.9293 19.7989 18.4875C19.958 17.537 20 16.8236 20 15.9997C20 12.3178 17.0152 9.33301 13.3333 9.33301C9.65145 9.33301 6.66668 12.3178 6.66668 15.9997C6.66668 19.6816 9.69907 22.6684 13.1838 22.6684C12.9999 23.1732 12.9558 23.3158 12.576 23.8479ZM27.2427 23.8479C26.2296 25.2672 24.3146 26.7952 21.7077 28.0672C21.0302 28.3978 21.3358 29.4223 22.0837 29.3277C27.5612 28.6349 31.1115 26.2359 33.0502 22.6684C33.7713 21.3416 34.2243 19.9293 34.4656 18.4875C34.6247 17.537 34.6667 16.8236 34.6667 15.9997C34.6667 12.3178 31.6819 9.33301 28 9.33301C24.3181 9.33301 21.3333 12.3178 21.3333 15.9997C21.3333 19.6816 24.3657 22.6684 27.8504 22.6684C27.6666 23.1732 27.6224 23.3158 27.2427 23.8479Z" fill="#734BDF"/>
</svg>
